<svg width="100px" height="200px" viewBox="0 0 400 800" version="1.1" xmlns="http://www.w3.org/2000/svg">
<g id="#929292ff">
<path fill="#929292" opacity="1.00" d=" M 136.00 84.00 C 178.67 84.00 221.33 84.00 264.00 84.00 C 264.00 113.29 264.01 142.58 264.00 171.87 C 244.00 171.86 224.00 171.87 204.00 171.87 C 204.26 175.43 203.45 179.23 204.38 182.64 C 212.35 190.66 220.67 198.36 228.77 206.26 C 226.92 208.18 225.07 210.09 223.22 212.01 C 215.47 204.55 207.72 197.09 199.97 189.63 C 192.23 197.02 184.51 204.42 176.76 211.81 C 174.92 209.89 173.08 207.97 171.24 206.04 C 179.36 198.18 187.67 190.50 195.69 182.55 C 196.44 179.08 195.80 175.41 196.00 171.87 C 176.00 171.87 156.00 171.86 136.00 171.87 C 135.99 142.58 136.00 113.29 136.00 84.00 M 144.00 92.00 C 144.00 101.31 144.00 110.62 144.00 119.94 C 153.38 119.94 162.77 119.93 172.15 119.94 C 176.28 115.05 180.40 110.15 184.54 105.27 C 188.62 112.01 192.69 118.76 196.78 125.50 C 200.43 121.87 204.06 118.23 207.71 114.60 C 210.99 117.23 214.28 119.84 217.55 122.49 C 224.07 115.44 230.52 108.33 237.03 101.28 C 239.01 103.06 240.96 104.88 242.93 106.68 C 234.73 115.57 226.61 124.52 218.39 133.39 C 215.04 130.68 211.66 127.99 208.29 125.31 C 203.93 129.66 199.58 134.02 195.21 138.36 C 191.29 131.89 187.38 125.41 183.46 118.93 C 180.92 121.93 178.39 124.93 175.86 127.93 C 165.24 127.93 154.62 127.93 144.00 127.93 C 144.00 134.60 144.00 141.27 144.00 147.94 C 181.33 147.93 218.67 147.93 256.00 147.94 C 256.00 129.29 256.00 110.65 256.00 92.00 C 218.67 92.00 181.33 92.00 144.00 92.00 M 144.00 155.87 C 144.00 158.56 144.00 161.25 144.00 163.94 C 164.00 163.93 184.00 163.93 204.00 163.94 C 204.00 161.25 204.00 158.56 204.00 155.87 C 184.00 155.86 164.00 155.86 144.00 155.87 Z" />
</g>
<g id="#ffffffff">
<path fill="#ffffff" opacity="1.00" d=" M 136.00 484.00 C 178.67 484.00 221.33 484.00 264.00 484.00 C 264.00 513.29 264.00 542.58 264.00 571.87 C 244.00 571.86 224.00 571.87 204.00 571.87 C 204.04 574.94 203.91 578.02 204.01 581.10 C 203.72 582.50 204.98 583.31 205.79 584.19 C 213.50 591.50 221.11 598.91 228.77 606.26 C 226.92 608.17 225.07 610.09 223.22 612.01 C 215.47 604.55 207.72 597.09 199.97 589.63 C 192.23 597.02 184.50 604.42 176.77 611.82 C 174.92 609.89 173.08 607.96 171.23 606.04 C 179.35 598.20 187.63 590.52 195.65 582.59 C 196.49 579.18 195.76 575.41 196.00 571.87 C 176.00 571.87 156.00 571.86 136.00 571.87 C 136.00 542.58 136.00 513.29 136.00 484.00 M 144.00 492.00 C 144.00 501.31 144.00 510.62 144.00 519.94 C 153.38 519.93 162.76 519.92 172.15 519.94 C 176.28 515.05 180.40 510.14 184.54 505.26 C 188.62 512.01 192.70 518.75 196.78 525.50 C 200.42 521.86 204.07 518.23 207.71 514.60 C 210.99 517.23 214.29 519.84 217.56 522.49 C 224.07 515.43 230.53 508.33 237.03 501.27 C 239.00 503.07 240.96 504.87 242.93 506.67 C 234.75 515.57 226.60 524.51 218.41 533.39 C 215.04 530.69 211.67 527.99 208.29 525.31 C 203.94 529.67 199.57 534.01 195.21 538.37 C 191.30 531.89 187.37 525.42 183.47 518.94 C 180.93 521.92 178.40 524.93 175.87 527.93 C 165.24 527.93 154.62 527.93 144.00 527.93 C 144.00 534.60 144.00 541.27 144.00 547.94 C 181.33 547.93 218.67 547.93 256.00 547.94 C 256.00 529.29 256.00 510.64 256.00 492.00 C 218.67 492.00 181.33 492.00 144.00 492.00 M 144.00 555.87 C 144.00 558.55 144.00 561.24 144.00 563.94 C 164.00 563.93 184.00 563.93 204.00 563.94 C 204.00 561.24 204.00 558.55 204.00 555.87 C 184.00 555.87 164.00 555.87 144.00 555.87 Z" />
</g>
</svg>