<svg width="28px" height="28px" viewBox="0 0 280 280" version="1.1" xmlns="http://www.w3.org/2000/svg">
<g id="#111111ff">
<path fill="#111111" opacity="1.00" d=" M 134.17 100.88 C 134.06 97.77 136.80 94.97 139.91 95.01 C 143.09 94.88 145.96 97.72 145.83 100.90 C 145.97 111.98 145.83 123.05 145.89 134.13 C 156.93 134.18 167.98 134.05 179.03 134.18 C 181.87 134.04 184.49 136.26 184.93 139.05 C 185.60 142.48 182.59 146.02 179.08 145.82 C 168.02 145.95 156.95 145.82 145.89 145.87 C 145.83 156.95 145.97 168.03 145.84 179.10 C 145.97 182.26 143.14 185.08 140.00 185.00 C 136.86 185.07 134.04 182.27 134.17 179.13 C 134.03 168.04 134.17 156.96 134.11 145.87 C 123.04 145.81 111.95 145.95 100.88 145.82 C 97.39 146.00 94.41 142.47 95.07 139.07 C 95.49 136.30 98.07 134.06 100.90 134.18 C 111.97 134.05 123.04 134.19 134.11 134.13 C 134.17 123.05 134.02 111.96 134.17 100.88 Z" />
</g>
</svg>