<svg width="28px" height="28px" viewBox="0 0 280 280" version="1.1" xmlns="http://www.w3.org/2000/svg">
<g id="#000000ff">
<path fill="#000000" opacity="1.00" d=" M 119.33 72.29 C 124.16 68.66 130.33 67.57 136.17 66.72 C 147.32 65.47 158.88 65.92 169.62 69.40 C 173.50 70.81 178.58 73.17 178.45 78.03 C 178.52 88.47 178.44 98.91 178.47 109.35 C 186.55 109.71 194.82 110.46 202.34 113.65 C 205.31 115.01 208.76 117.27 208.75 120.94 C 208.89 129.64 208.86 138.34 208.76 147.04 C 208.78 150.69 205.36 152.95 202.41 154.31 C 195.67 157.19 188.26 158.00 181.01 158.33 C 172.50 158.54 163.82 157.98 155.68 155.34 C 152.33 154.09 148.49 152.45 147.04 148.92 C 146.47 146.36 146.72 143.73 146.72 141.14 C 138.69 140.81 130.43 140.26 122.95 137.06 C 119.69 135.66 116.07 133.00 116.41 129.02 C 116.41 112.32 116.42 95.62 116.40 78.92 C 116.22 76.37 117.21 73.79 119.33 72.29 M 136.16 72.56 C 131.14 73.39 125.68 74.21 121.76 77.75 C 123.71 79.03 125.71 80.30 128.00 80.89 C 136.72 83.52 146.01 83.74 155.03 82.96 C 161.25 82.26 167.70 81.23 173.04 77.73 C 171.10 76.31 168.99 75.12 166.66 74.50 C 156.80 71.62 146.31 71.25 136.16 72.56 M 122.16 84.85 C 122.19 86.91 122.19 88.97 122.14 91.03 C 125.91 93.69 130.48 94.73 134.96 95.48 C 143.17 96.78 151.56 96.57 159.77 95.34 C 159.76 92.96 159.76 90.58 159.77 88.21 C 147.24 89.80 133.99 89.78 122.16 84.85 M 122.16 97.86 C 122.18 99.90 122.18 101.95 122.13 104.00 C 124.50 105.60 127.12 106.77 129.91 107.42 C 139.65 109.85 149.88 109.79 159.77 108.35 C 159.76 105.97 159.76 103.58 159.77 101.19 C 147.24 102.80 134.01 102.74 122.16 97.86 M 122.16 110.82 C 122.19 112.87 122.19 114.91 122.13 116.96 C 129.25 121.70 138.21 121.97 146.47 122.39 C 146.54 119.47 147.88 116.92 150.04 114.99 C 140.62 115.38 130.92 114.55 122.16 110.82 M 163.98 116.24 C 159.76 117.02 155.40 118.10 152.05 120.94 C 155.21 123.49 159.18 124.64 163.10 125.40 C 171.98 127.05 181.14 127.06 190.06 125.62 C 194.71 124.83 199.46 123.71 203.37 120.92 C 200.37 118.72 196.82 117.53 193.21 116.78 C 183.62 114.77 173.64 114.59 163.98 116.24 M 122.16 123.81 C 122.18 125.90 122.18 127.99 122.14 130.08 C 129.45 134.61 138.37 134.95 146.71 135.35 C 146.70 132.95 146.69 130.54 146.68 128.13 C 138.36 128.01 129.87 127.16 122.16 123.81 M 152.44 128.12 C 152.45 130.17 152.31 132.24 152.65 134.27 C 154.92 136.38 158.07 137.10 160.97 137.91 C 169.99 139.99 179.39 140.04 188.54 138.89 C 188.53 136.50 188.52 134.11 188.52 131.73 C 176.47 132.97 163.78 132.92 152.44 128.12 M 152.44 141.10 C 152.48 143.21 152.49 145.32 152.46 147.43 C 154.65 148.70 156.93 149.85 159.41 150.46 C 168.89 152.96 178.85 153.07 188.54 151.99 C 188.53 149.55 188.52 147.12 188.52 144.68 C 176.47 145.99 163.78 145.89 152.44 141.10 Z" />
<path fill="#000000" opacity="1.00" d=" M 66.00 160.53 C 73.98 160.57 81.96 160.46 89.94 160.56 C 94.04 160.46 97.56 162.84 100.24 165.72 C 108.82 165.78 117.40 165.67 125.98 165.76 C 134.59 166.02 142.02 171.16 148.20 176.73 C 149.99 178.51 152.50 179.23 154.99 178.93 C 162.90 178.54 171.72 177.62 178.63 182.35 C 181.11 183.87 182.21 186.64 183.88 188.88 C 191.65 187.92 199.02 185.19 206.37 182.63 C 214.12 180.46 223.31 179.98 230.18 184.81 C 235.02 188.17 234.97 195.45 231.91 199.98 C 229.41 202.99 225.59 204.40 222.23 206.21 C 211.53 211.52 200.71 216.60 190.15 222.20 C 184.68 225.05 179.58 228.69 173.72 230.78 C 162.44 235.02 149.89 234.64 138.32 231.79 C 125.70 228.49 113.98 222.59 101.59 218.61 C 99.21 222.73 95.00 226.06 90.06 226.02 C 82.04 226.16 74.02 226.02 66.00 226.06 C 66.00 204.22 66.00 182.38 66.00 160.53 M 102.78 176.26 C 102.75 186.86 102.76 197.46 102.77 208.06 C 117.11 212.14 130.36 219.62 145.06 222.51 C 155.24 224.38 166.28 223.74 175.41 218.48 C 188.18 210.86 201.70 204.64 215.00 198.04 C 218.07 196.47 221.37 195.22 223.99 192.91 C 218.30 190.78 211.98 191.42 206.43 193.66 C 199.17 196.57 191.53 198.34 183.83 199.65 C 181.20 205.40 174.62 207.49 168.73 207.63 C 157.24 207.86 145.74 207.67 134.24 207.73 C 134.23 204.24 134.23 200.75 134.24 197.27 C 144.81 197.25 155.39 197.30 165.96 197.25 C 168.71 197.27 171.43 196.77 174.07 196.01 C 173.77 193.98 174.01 191.18 171.58 190.40 C 163.02 186.77 152.95 192.21 144.77 187.13 C 138.82 183.19 133.75 176.85 126.14 176.32 C 118.35 176.16 110.57 176.33 102.78 176.26 Z" />
</g>
</svg>