<svg width="28px" height="28px" viewBox="0 0 280 280" version="1.1" xmlns="http://www.w3.org/2000/svg">
<g id="#000000ff">
<path fill="#000000" opacity="1.00" d=" M 127.56 105.29 C 129.69 95.36 138.61 87.26 148.91 87.01 C 159.76 86.22 170.24 94.31 172.30 104.99 C 174.47 105.87 176.68 106.68 178.85 107.58 C 188.59 99.66 201.86 99.10 213.85 99.33 C 210.39 108.94 206.71 118.46 203.01 127.97 C 205.13 131.41 206.90 135.06 208.27 138.87 C 211.86 138.92 215.46 138.69 219.04 138.99 C 222.49 139.34 225.41 142.48 225.46 145.95 C 225.60 152.64 225.56 159.35 225.48 166.04 C 225.55 169.64 222.61 172.98 219.02 173.32 C 214.38 173.68 209.72 173.39 205.07 173.43 C 202.48 178.18 198.74 182.10 195.39 186.25 C 195.05 192.82 195.51 199.43 195.23 206.01 C 195.19 210.16 191.08 213.35 187.06 213.00 C 181.55 212.84 175.96 213.41 170.49 212.66 C 165.54 211.41 164.60 205.84 165.06 201.50 C 155.17 203.59 144.89 203.59 134.99 201.53 C 134.84 204.24 135.37 207.28 133.68 209.64 C 132.27 211.83 129.66 213.04 127.09 212.98 C 122.02 213.01 116.95 213.09 111.89 212.94 C 108.60 212.88 105.49 210.28 104.95 207.02 C 104.22 199.95 105.44 192.63 104.39 185.68 C 97.02 178.20 91.53 168.68 90.02 158.18 C 86.29 157.29 82.65 156.04 79.15 154.45 C 74.73 157.10 69.69 158.52 64.54 158.68 C 64.52 155.40 64.53 152.12 64.54 148.84 C 66.32 148.56 68.10 148.28 69.89 148.01 C 66.83 144.42 64.01 139.96 64.60 135.03 C 65.17 128.91 70.88 123.91 77.01 124.04 C 82.63 123.89 88.03 127.98 89.31 133.48 C 90.42 138.14 88.74 142.84 86.58 146.91 C 87.67 147.27 88.76 147.63 89.85 147.98 C 92.03 127.61 108.60 111.32 127.56 105.29 M 186.95 113.92 C 184.69 115.69 183.48 119.39 180.04 119.07 C 177.08 118.55 174.64 116.51 171.92 115.32 C 170.96 117.62 169.87 119.87 168.61 122.03 C 170.70 122.82 172.81 123.58 174.87 124.47 C 173.53 127.47 172.23 130.48 170.94 133.49 C 157.81 127.48 142.25 127.49 129.13 133.49 C 127.82 130.46 126.52 127.43 125.22 124.41 C 127.28 123.59 129.35 122.82 131.43 122.04 C 130.23 119.92 129.16 117.73 128.22 115.49 C 115.94 120.37 104.86 130.02 101.09 143.02 C 97.32 155.12 101.58 168.73 110.46 177.51 C 112.16 179.41 114.93 181.02 114.75 183.93 C 114.94 190.32 114.76 196.73 114.83 203.13 C 118.18 203.14 121.54 203.14 124.89 203.13 C 124.88 201.60 124.86 200.08 124.83 198.56 C 122.78 197.66 120.22 196.61 119.94 194.05 C 119.00 190.08 123.74 186.88 127.20 188.78 C 139.18 193.69 152.73 194.50 165.25 191.27 C 167.26 187.68 173.06 187.13 174.77 191.27 C 175.64 195.14 174.99 199.18 175.18 203.13 C 178.53 203.14 181.88 203.14 185.23 203.13 C 185.22 198.78 185.29 194.42 185.18 190.08 C 184.08 188.60 182.59 187.02 183.03 185.01 C 183.22 182.93 185.09 181.72 186.48 180.43 C 190.49 177.07 193.90 172.96 196.29 168.29 C 197.32 166.34 198.45 163.83 200.99 163.68 C 205.79 163.30 210.61 163.65 215.41 163.52 C 215.41 158.59 215.42 153.66 215.41 148.74 C 210.96 148.42 206.30 149.43 201.99 148.15 C 198.34 145.54 198.82 140.20 196.42 136.63 C 193.48 136.07 190.35 133.54 191.46 130.22 C 193.86 123.33 196.77 116.62 199.26 109.76 C 195.01 110.59 190.58 111.43 186.95 113.92 M 77.63 141.35 C 79.22 139.20 81.17 134.26 76.97 133.90 C 72.73 134.68 75.26 139.76 77.63 141.35 Z" />
</g>
</svg>