<svg width="24px" height="24px" viewBox="0 0 240 240" version="1.1" xmlns="http://www.w3.org/2000/svg">
<g id="#1f76bcff">
<path fill="#1f76bc" opacity="1.00" d=" M 78.36 7.44 C 83.80 4.25 90.02 2.72 96.18 1.63 C 109.67 -0.55 123.53 -0.33 136.98 2.01 C 143.20 3.21 149.52 4.76 154.97 8.11 C 158.05 10.00 160.83 13.13 160.68 16.95 C 160.75 31.95 160.67 46.95 160.71 61.95 C 172.29 62.38 184.16 63.48 194.90 68.13 C 199.29 70.08 204.18 73.61 203.98 78.97 C 203.99 91.34 204.06 103.72 203.95 116.09 C 203.87 120.22 200.37 123.17 197.05 125.04 C 190.09 128.78 182.17 130.20 174.41 131.18 C 161.25 132.60 147.82 132.29 134.85 129.51 C 128.70 127.99 122.12 126.17 117.61 121.44 C 114.03 117.60 115.64 112.00 115.31 107.30 C 103.83 106.98 92.05 106.06 81.37 101.51 C 77.09 99.57 72.07 96.36 72.04 91.09 C 71.97 66.37 71.99 41.65 72.02 16.93 C 71.83 12.74 75.02 9.44 78.36 7.44 M 89.41 11.62 C 86.19 12.71 82.64 13.70 80.28 16.31 C 80.44 17.89 82.30 18.53 83.48 19.28 C 91.13 22.87 99.64 24.01 107.99 24.61 C 120.06 25.24 132.36 24.54 143.98 20.99 C 147.07 19.94 150.44 18.92 152.62 16.31 C 144.22 10.73 133.82 9.59 124.02 8.65 C 112.44 7.93 100.62 8.40 89.41 11.62 M 80.23 26.84 C 80.30 29.78 80.00 32.74 80.44 35.65 C 83.30 38.42 87.32 39.45 91.02 40.57 C 105.02 44.10 119.73 44.04 133.94 41.94 C 133.94 38.52 133.94 35.11 133.94 31.69 C 116.07 33.99 97.06 34.06 80.23 26.84 M 80.23 45.37 C 80.24 48.26 80.26 51.15 80.19 54.04 C 83.98 57.40 89.07 58.61 93.86 59.79 C 107.00 62.60 120.68 62.48 133.93 60.49 C 133.94 57.08 133.95 53.66 133.95 50.25 C 116.08 52.51 97.04 52.63 80.23 45.37 M 80.23 63.94 C 80.28 66.85 80.04 69.77 80.40 72.67 C 82.21 74.70 84.91 75.60 87.39 76.53 C 96.31 79.58 105.81 80.39 115.18 80.49 C 114.81 76.27 116.97 72.44 120.37 70.04 C 106.82 70.45 92.77 69.52 80.23 63.94 M 138.88 71.95 C 133.40 73.14 127.66 74.49 123.25 78.17 C 126.07 81.81 130.88 82.76 135.06 84.02 C 150.02 87.63 165.79 87.38 180.86 84.50 C 186.12 83.20 191.90 82.14 195.96 78.26 C 190.43 74.21 183.53 72.80 176.91 71.60 C 164.34 69.66 151.40 69.63 138.88 71.95 M 80.24 82.48 C 80.35 85.48 79.91 88.54 80.49 91.51 C 82.72 93.53 85.66 94.49 88.46 95.43 C 97.14 98.09 106.26 98.89 115.29 99.03 C 115.30 95.60 115.30 92.18 115.29 88.75 C 103.41 88.52 91.17 87.51 80.24 82.48 M 123.53 88.70 C 124.09 92.18 121.81 97.41 125.99 99.21 C 130.28 101.54 135.09 102.71 139.85 103.64 C 151.44 105.68 163.35 105.65 175.00 104.10 C 175.00 100.68 175.00 97.26 175.00 93.85 C 157.82 95.75 139.66 95.60 123.53 88.70 M 123.51 107.25 C 123.53 110.19 123.55 113.13 123.50 116.08 C 127.69 119.42 133.05 120.67 138.18 121.81 C 150.28 124.18 162.76 124.25 174.99 122.86 C 175.00 119.37 175.00 115.88 175.00 112.40 C 157.82 114.27 139.65 114.17 123.51 107.25 Z" />
<path fill="#1f76bc" opacity="1.00" d=" M 0.00 135.00 C 11.00 135.01 22.01 134.99 33.01 135.00 C 39.13 134.75 44.98 137.77 48.75 142.50 C 58.16 142.58 67.57 142.51 76.97 142.54 C 82.28 142.58 87.68 142.07 92.86 143.51 C 101.37 145.79 108.95 150.67 115.45 156.51 C 118.14 158.88 121.12 161.66 125.00 161.38 C 135.44 161.09 146.41 159.51 156.34 163.70 C 161.79 165.80 166.02 170.28 168.12 175.69 C 177.10 174.20 185.99 172.01 194.47 168.66 C 204.92 164.48 216.84 162.81 227.74 166.23 C 233.67 168.06 239.48 172.62 240.00 179.23 L 240.00 182.69 C 239.75 188.50 236.33 193.73 231.04 196.17 C 209.00 207.88 185.89 217.59 164.45 230.44 C 154.17 236.46 142.34 239.47 130.48 240.00 L 126.51 240.00 C 99.57 239.89 75.76 226.01 50.75 218.01 C 47.58 223.86 41.68 228.42 34.86 228.64 C 23.24 228.86 11.62 228.66 0.00 228.73 L 0.00 135.00 M 52.47 157.47 C 52.47 172.64 52.47 187.81 52.47 202.98 C 71.69 208.34 89.45 218.06 108.88 222.78 C 121.85 225.60 135.80 226.18 148.41 221.46 C 155.22 219.06 161.11 214.79 167.44 211.44 C 184.25 202.33 201.60 194.27 218.73 185.79 C 221.02 184.64 223.23 183.35 225.41 182.01 C 224.03 180.39 221.84 180.08 219.87 179.73 C 213.03 178.68 206.06 180.12 199.71 182.71 C 189.60 186.70 178.96 189.15 168.24 190.88 C 164.62 199.57 154.48 202.19 145.93 202.37 C 129.78 202.59 113.63 202.40 97.49 202.47 C 97.46 197.47 97.47 192.47 97.47 187.47 C 112.31 187.47 127.15 187.46 141.99 187.47 C 146.16 187.41 150.53 187.39 154.32 185.43 C 154.04 182.65 154.25 178.96 151.05 177.78 C 138.65 172.38 123.94 180.49 112.16 172.83 C 104.08 167.26 97.09 158.95 86.79 157.60 C 75.36 157.28 63.91 157.56 52.47 157.47 Z" />
</g>
</svg>