<svg width="28px" height="28px" viewBox="0 0 280 280" version="1.1" xmlns="http://www.w3.org/2000/svg">
<g id="#111111ff">
<path fill="#111111" opacity="1.00" d=" M 179.52 102.49 C 177.01 99.48 178.46 94.36 182.11 92.99 C 184.61 91.82 187.43 92.87 189.30 94.70 C 195.41 100.22 201.46 105.82 207.60 111.31 C 209.51 113.07 211.79 115.12 211.48 118.00 C 211.50 120.76 209.18 122.58 207.37 124.31 C 200.99 129.92 194.87 135.83 188.44 141.38 C 186.12 143.56 182.16 143.30 180.03 141.00 C 177.66 138.68 177.68 134.45 180.13 132.20 C 182.93 129.29 186.10 126.78 189.02 124.00 C 154.32 123.97 119.61 124.06 84.91 123.95 C 80.46 124.32 77.10 119.10 79.05 115.14 C 80.14 112.37 83.20 111.17 86.01 111.39 C 120.34 111.41 154.68 111.40 189.02 111.40 C 185.91 108.38 182.38 105.77 179.52 102.49 Z" />
<path fill="#111111" opacity="1.00" d=" M 101.59 148.61 C 103.92 146.43 107.89 146.71 110.01 149.05 C 112.15 151.20 112.36 154.99 110.32 157.28 C 107.48 160.46 104.05 163.03 101.00 166.00 C 135.69 166.04 170.40 165.93 205.09 166.05 C 209.53 165.70 212.90 170.89 210.96 174.84 C 209.87 177.59 206.85 178.84 204.05 178.61 C 169.69 178.59 135.33 178.60 100.98 178.60 C 104.24 181.83 108.10 184.48 110.92 188.13 C 113.27 191.86 110.41 197.29 106.00 197.47 C 103.43 197.82 101.44 195.95 99.66 194.40 C 93.77 188.95 87.81 183.58 81.87 178.20 C 80.09 176.59 78.21 174.57 78.51 171.96 C 78.55 169.24 80.81 167.42 82.61 165.71 C 89.00 160.09 95.14 154.17 101.59 148.61 Z" />
</g>
</svg>