<svg width="38px" height="38px" viewBox="0 0 380 380" version="1.1" xmlns="http://www.w3.org/2000/svg">
<g id="#000000ff">
<path fill="#000000" opacity="1.00" d=" M 157.55 111.63 C 161.75 109.62 166.53 110.01 171.05 109.99 C 189.02 110.01 207.00 110.00 224.97 110.00 C 236.68 123.34 248.31 136.75 260.00 150.11 C 260.01 176.39 259.99 202.68 260.01 228.96 C 260.36 237.52 254.54 245.62 246.67 248.69 C 243.04 250.22 239.01 250.01 235.16 250.01 C 234.70 257.89 229.66 265.26 222.40 268.39 C 218.24 270.36 213.52 269.99 209.05 270.01 C 188.37 269.99 167.69 270.00 147.01 270.00 C 143.38 269.98 139.71 270.22 136.12 269.55 C 128.53 267.83 122.22 261.48 120.46 253.91 C 119.77 250.31 120.02 246.64 120.00 243.00 C 120.00 214.33 120.00 185.66 120.00 156.98 C 120.02 153.35 119.79 149.68 120.43 146.08 C 122.01 138.52 128.20 131.94 135.88 130.49 C 138.84 129.99 141.85 130.08 144.85 130.00 C 145.29 122.13 150.31 114.77 157.55 111.63 M 156.68 124.75 C 154.52 127.72 155.05 131.57 154.98 135.01 C 155.03 164.00 154.99 192.99 155.00 221.98 C 155.03 225.30 154.78 228.65 155.27 231.95 C 156.28 236.73 161.06 240.36 165.97 240.00 C 189.98 240.01 213.99 239.97 238.01 240.03 C 243.86 240.81 249.95 236.12 249.96 230.08 C 250.06 206.72 249.97 183.36 250.00 160.00 C 243.71 159.80 237.37 160.46 231.13 159.57 C 222.24 157.65 214.97 149.25 215.02 140.05 C 214.90 133.36 215.01 126.68 215.00 120.00 C 198.69 120.00 182.38 120.00 166.08 119.99 C 162.36 119.75 158.68 121.62 156.68 124.75 M 225.01 120.17 C 225.16 126.02 224.62 131.92 225.33 137.74 C 226.51 142.37 228.74 147.49 233.29 149.66 C 238.80 150.46 244.44 149.79 250.00 149.99 C 241.66 140.06 233.35 130.10 225.01 120.17 M 136.84 140.60 C 132.48 141.95 129.70 146.55 130.00 151.03 C 130.00 183.71 129.99 216.38 130.01 249.05 C 129.53 255.02 135.02 260.50 140.98 260.00 C 165.68 259.96 190.39 260.06 215.09 259.96 C 220.47 259.96 224.60 255.13 225.22 250.03 C 205.12 249.94 185.01 250.06 164.91 249.97 C 155.74 249.92 147.47 242.68 145.45 233.87 C 144.77 230.31 145.02 226.66 145.00 223.06 C 145.00 195.37 144.99 167.68 145.00 140.00 C 142.28 140.10 139.50 139.93 136.84 140.60 Z" />
<path fill="#000000" opacity="1.00" d=" M 178.28 180.41 C 180.14 179.96 182.07 180.06 183.97 180.04 C 197.67 180.17 211.37 179.94 225.06 180.14 C 228.43 179.98 231.02 183.83 229.65 186.91 C 228.85 189.20 226.35 190.25 224.06 190.07 C 210.03 190.09 196.00 190.03 181.97 190.09 C 179.84 190.11 177.30 190.04 175.99 188.07 C 173.97 185.57 175.22 181.38 178.28 180.41 Z" />
<path fill="#000000" opacity="1.00" d=" M 178.32 205.37 C 192.51 204.64 206.79 205.31 221.02 205.04 C 223.72 205.15 227.17 204.49 228.98 207.06 C 231.51 210.05 229.02 215.21 225.08 215.00 C 210.02 215.11 194.94 215.12 179.88 214.99 C 174.52 215.26 173.22 206.84 178.32 205.37 Z" />
</g>
</svg>