<svg width="13px" height="8px" viewBox="0 0 130 80" version="1.1" xmlns="http://www.w3.org/2000/svg">
<g id="#0f0f0f4d">
<path fill="#0f0f0f" opacity="0.30" d=" M 7.28 0.00 L 11.57 0.00 C 15.96 2.22 18.87 6.31 22.20 9.77 C 36.50 25.10 50.66 40.54 65.02 55.80 C 79.21 40.72 93.21 25.46 107.34 10.32 C 110.83 6.71 113.84 2.48 118.33 0.00 L 122.67 0.00 C 126.11 1.27 128.65 4.09 130.00 7.45 L 130.00 12.52 C 128.94 14.82 127.48 16.91 125.79 18.77 C 110.17 35.48 94.64 52.29 79.06 69.04 C 75.41 72.86 72.16 77.19 67.60 80.00 L 62.58 80.00 C 60.61 78.85 58.81 77.44 57.23 75.80 C 41.19 58.47 25.09 41.18 9.03 23.86 C 5.79 20.31 2.06 17.03 0.00 12.59 L 0.00 7.51 C 1.31 4.12 3.86 1.32 7.28 0.00 Z" />
</g>
</svg>