<svg width="13px" height="8px" viewBox="0 0 130 80" version="1.1" xmlns="http://www.w3.org/2000/svg">
<g id="#0f0f0f4d">
<path fill="#0f0f0f" opacity="0.30" d=" M 62.76 0.00 L 66.91 0.00 C 69.13 0.98 71.18 2.35 72.80 4.17 C 88.96 21.67 105.20 39.09 121.40 56.55 C 124.56 60.01 128.27 63.20 130.00 67.70 L 130.00 72.12 C 128.89 75.75 126.25 78.72 122.65 80.00 L 118.78 80.00 C 116.88 79.13 115.07 78.03 113.63 76.50 C 97.45 59.03 81.26 41.56 65.01 24.15 C 50.56 39.64 36.18 55.21 21.75 70.72 C 18.55 74.05 15.76 78.03 11.43 80.00 L 7.45 80.00 C 3.84 78.80 1.23 75.85 0.00 72.30 L 0.00 67.94 C 1.55 63.29 5.40 60.12 8.58 56.61 C 23.36 40.72 38.11 24.81 52.88 8.90 C 55.91 5.67 58.70 2.02 62.76 0.00 Z" />
</g>
</svg>