<svg width="13px" height="16px" viewBox="0 0 130 160" version="1.1" xmlns="http://www.w3.org/2000/svg">
<g id="#000000ff">
<path fill="#000000" opacity="1.00" d=" M 17.68 0.00 L 89.98 0.00 C 103.34 13.31 116.66 26.67 130.00 40.01 L 130.00 141.60 C 129.27 151.14 121.16 159.27 111.62 160.00 L 18.40 160.00 C 8.84 159.27 0.73 151.14 0.00 141.59 L 0.00 17.89 C 1.04 8.77 8.61 1.20 17.68 0.00 M 10.02 19.93 C 9.99 59.96 9.97 100.01 10.04 140.05 C 9.84 145.75 15.32 150.56 20.93 150.01 C 50.65 149.97 80.37 150.04 110.09 149.98 C 115.37 150.09 120.14 145.32 119.98 140.02 C 120.03 110.02 119.99 80.01 120.00 50.00 C 112.97 49.95 105.95 50.09 98.93 49.94 C 89.41 49.67 80.92 41.61 80.15 32.13 C 79.76 24.76 79.85 17.38 79.88 10.00 C 59.89 10.02 39.91 9.97 19.93 10.03 C 14.68 9.94 9.88 14.64 10.02 19.93 M 90.01 10.02 C 90.03 16.72 89.93 23.42 90.04 30.12 C 89.91 35.37 94.63 40.04 99.86 39.98 C 106.56 40.05 113.27 39.98 119.98 39.99 C 110.00 29.99 100.01 20.00 90.01 10.02 Z" />
<path fill="#000000" opacity="1.00" d=" M 65.54 59.94 C 68.65 59.93 71.76 59.93 74.88 59.94 C 74.89 76.36 74.88 92.77 74.88 109.19 C 71.76 109.21 68.65 109.21 65.54 109.19 C 65.52 92.78 65.52 76.36 65.54 59.94 Z" />
<path fill="#000000" opacity="1.00" d=" M 85.04 75.06 C 92.44 70.82 102.25 72.39 108.83 77.51 C 107.59 79.61 106.36 81.71 105.14 83.82 C 101.39 80.72 96.11 78.79 91.34 80.40 C 89.72 80.90 89.00 82.50 88.78 84.06 C 93.74 87.78 100.78 86.52 105.81 90.28 C 111.94 94.20 111.06 104.42 104.70 107.69 C 96.52 111.96 85.86 110.39 78.74 104.67 C 80.05 102.46 81.38 100.26 82.74 98.08 C 86.94 101.25 92.33 103.64 97.69 102.57 C 99.69 102.22 101.63 100.27 100.87 98.12 C 99.66 96.39 97.43 96.09 95.55 95.59 C 90.84 94.48 85.37 93.95 81.97 90.08 C 78.20 85.48 79.90 77.91 85.04 75.06 Z" />
<path fill="#000000" opacity="1.00" d=" M 20.87 73.54 C 24.33 73.53 27.79 73.54 31.24 73.53 C 33.74 77.17 36.13 80.88 38.63 84.52 C 41.06 80.86 43.46 77.18 45.91 73.54 C 49.36 73.53 52.81 73.52 56.26 73.55 C 52.38 79.37 48.36 85.10 44.43 90.89 C 48.59 97.01 52.95 103.00 57.01 109.19 C 53.59 109.21 50.18 109.18 46.76 109.22 C 43.98 105.26 41.34 101.20 38.64 97.18 C 35.80 101.17 33.26 105.37 30.28 109.27 C 26.90 109.16 23.52 109.21 20.13 109.20 C 24.29 103.08 28.50 97.00 32.66 90.90 C 28.75 85.10 24.76 79.35 20.87 73.54 Z" />
</g>
</svg>