<svg width="7px" height="7px" viewBox="0 0 70 70" version="1.1" xmlns="http://www.w3.org/2000/svg">
<g id="#ffffffff">
<path fill="#ffffff" opacity="1.00" d=" M 5.32 15.22 C 8.61 11.92 11.91 8.62 15.21 5.33 C 21.82 11.91 28.40 18.52 35.00 25.10 C 41.61 18.52 48.19 11.91 54.79 5.33 C 58.09 8.62 61.39 11.92 64.68 15.22 C 58.09 21.81 51.48 28.40 44.90 35.00 C 51.48 41.61 58.09 48.19 64.68 54.79 C 61.39 58.09 58.09 61.39 54.78 64.68 C 48.19 58.09 41.60 51.49 35.00 44.90 C 28.40 51.49 21.81 58.09 15.22 64.68 C 11.91 61.39 8.61 58.09 5.32 54.79 C 11.92 48.19 18.51 41.60 25.10 35.00 C 18.51 28.41 11.92 21.81 5.32 15.22 Z" />
</g>
</svg>