<svg width="12px" height="12px" viewBox="0 0 120 120" version="1.1" xmlns="http://www.w3.org/2000/svg">
<g id="#ccccccff">
<path fill="#cccccc" opacity="1.00" d=" M 53.50 12.91 C 53.38 9.39 56.51 6.26 60.02 6.27 C 63.62 6.09 66.98 9.29 66.86 12.92 C 66.93 26.44 66.86 39.95 66.88 53.47 C 80.21 53.50 93.55 53.41 106.87 53.51 C 110.37 53.43 113.50 56.52 113.48 60.01 C 113.66 63.54 110.56 66.82 107.02 66.76 C 93.64 66.86 80.26 66.76 66.88 66.80 C 66.86 80.21 66.92 93.61 66.86 107.02 C 67.01 110.68 63.63 113.94 59.98 113.73 C 56.48 113.73 53.36 110.57 53.50 107.05 C 53.43 93.63 53.49 80.22 53.47 66.80 C 40.00 66.76 26.52 66.88 13.05 66.74 C 8.56 66.70 5.39 61.36 7.44 57.37 C 8.56 54.85 11.28 53.33 14.01 53.48 C 27.16 53.44 40.32 53.48 53.47 53.47 C 53.50 39.95 53.43 26.43 53.50 12.91 Z" />
</g>
</svg>