<svg width="12px" height="12px" viewBox="0 0 120 120" version="1.1" xmlns="http://www.w3.org/2000/svg">
<g id="#9f9f9fff">
<path fill="#9f9f9f" opacity="1.00" d=" M 22.53 0.00 L 30.00 0.00 C 29.87 4.15 30.32 8.34 29.77 12.47 C 28.93 15.59 24.14 15.83 22.87 12.92 C 22.10 8.67 22.72 4.30 22.53 0.00 Z" />
<path fill="#9f9f9f" opacity="1.00" d=" M 37.52 0.00 L 82.53 0.00 C 83.08 6.17 80.79 13.50 85.28 18.63 C 89.49 23.81 98.31 23.69 102.39 18.41 C 106.47 13.66 104.55 6.96 105.03 1.27 C 113.13 4.34 119.23 11.92 120.00 20.62 L 120.00 99.22 C 119.24 109.98 110.10 119.13 99.37 120.00 L 20.77 120.00 C 10.02 119.22 0.85 110.10 0.00 99.35 L 0.00 20.77 C 0.69 12.01 6.83 4.36 14.97 1.27 C 15.44 6.95 13.55 13.61 17.56 18.39 C 21.64 23.65 30.42 23.84 34.67 18.69 C 39.21 13.55 37.04 6.20 37.52 0.00 M 15.00 37.53 C 15.00 57.37 14.99 77.22 15.01 97.06 C 14.65 101.39 18.59 105.31 22.91 104.98 C 47.65 105.01 72.39 105.01 97.12 104.98 C 101.46 105.30 105.37 101.33 104.99 97.00 C 105.02 77.18 104.99 57.35 105.00 37.53 C 75.00 37.53 45.00 37.53 15.00 37.53 Z" />
<path fill="#9f9f9f" opacity="1.00" d=" M 90.00 0.00 L 97.53 0.00 C 97.41 4.11 97.84 8.26 97.30 12.35 C 96.56 15.71 91.19 15.87 90.25 12.54 C 89.67 8.39 90.13 4.18 90.00 0.00 Z" />
<path fill="#9f9f9f" opacity="1.00" d=" M 30.00 52.53 C 35.00 52.53 40.00 52.53 45.00 52.53 C 45.00 57.53 45.01 62.53 44.99 67.54 C 40.00 67.53 35.01 67.52 30.01 67.54 C 29.99 62.54 30.00 57.54 30.00 52.53 Z" />
<path fill="#9f9f9f" opacity="1.00" d=" M 52.54 52.54 C 57.53 52.53 62.53 52.53 67.53 52.54 C 67.53 57.53 67.53 62.53 67.53 67.53 C 62.53 67.53 57.53 67.53 52.53 67.53 C 52.53 62.53 52.53 57.53 52.54 52.54 Z" />
<path fill="#9f9f9f" opacity="1.00" d=" M 75.00 52.53 C 80.00 52.53 85.00 52.53 90.00 52.53 C 90.00 57.53 90.01 62.54 89.99 67.54 C 84.99 67.52 80.00 67.53 75.01 67.54 C 74.99 62.53 75.00 57.53 75.00 52.53 Z" />
<path fill="#9f9f9f" opacity="1.00" d=" M 30.00 75.00 C 35.00 75.00 40.00 75.00 45.00 75.00 C 45.00 80.00 45.00 85.00 45.00 90.00 C 40.00 90.00 35.00 90.00 30.00 90.00 C 30.00 85.00 30.00 80.00 30.00 75.00 Z" />
<path fill="#9f9f9f" opacity="1.00" d=" M 52.53 75.00 C 57.53 75.00 62.53 74.99 67.54 75.01 C 67.52 80.00 67.53 85.00 67.53 89.99 C 62.53 90.01 57.53 90.00 52.53 90.00 C 52.53 85.00 52.53 80.00 52.53 75.00 Z" />
<path fill="#9f9f9f" opacity="1.00" d=" M 75.00 75.00 C 80.00 75.00 85.00 75.00 90.00 75.00 C 90.00 80.00 90.00 85.00 90.00 90.00 C 85.00 90.00 80.00 90.00 75.00 90.00 C 75.00 85.00 75.00 80.00 75.00 75.00 Z" />
</g>
</svg>