<svg width="8px" height="8px" viewBox="0 0 80 80" version="1.1" xmlns="http://www.w3.org/2000/svg">
<g id="#ccccccff">
<path fill="#cccccc" opacity="1.00" d=" M 72.11 0.00 L 74.84 0.00 C 77.30 0.66 79.31 2.50 80.00 4.97 L 80.00 8.40 C 79.42 9.89 78.47 11.19 77.33 12.30 C 68.06 21.53 58.82 30.79 49.58 40.04 C 58.95 49.46 68.40 58.82 77.76 68.26 C 80.38 70.70 80.42 75.24 77.81 77.70 C 75.35 80.30 70.81 80.30 68.38 77.67 C 58.93 68.31 49.57 58.85 40.14 49.48 C 30.67 58.90 21.28 68.40 11.78 77.79 C 9.29 80.53 4.57 80.54 2.09 77.79 C -0.45 75.24 -0.34 70.73 2.32 68.31 C 11.73 58.83 21.22 49.43 30.64 39.96 C 21.54 30.86 12.45 21.76 3.34 12.68 C 2.06 11.37 0.71 9.91 0.53 7.99 C -0.17 4.17 3.12 0.27 7.01 0.35 C 9.32 0.20 11.25 1.65 12.77 3.22 C 21.85 12.34 30.96 21.44 40.07 30.53 C 48.66 21.95 57.25 13.38 65.81 4.78 C 67.69 2.93 69.46 0.73 72.11 0.00 Z" />
</g>
</svg>