<svg width="12px" height="12px" viewBox="0 0 120 120" version="1.1" xmlns="http://www.w3.org/2000/svg">
<g id="#ffffffff">
<path fill="#ffffff" opacity="1.00" d=" M 22.52 0.00 L 30.00 0.00 C 29.84 4.20 30.35 8.46 29.74 12.62 C 28.64 16.00 23.10 15.61 22.62 12.04 C 22.38 8.03 22.61 4.01 22.52 0.00 Z" />
<path fill="#ffffff" opacity="1.00" d=" M 37.52 0.00 L 82.53 0.00 C 83.10 6.18 80.76 13.53 85.31 18.66 C 89.53 23.82 98.33 23.68 102.40 18.40 C 106.50 13.67 104.52 6.99 105.03 1.32 C 113.19 4.29 119.26 12.01 120.00 20.69 L 120.00 99.06 C 119.35 109.90 110.10 119.19 99.29 120.00 L 20.91 120.00 C 10.09 119.32 0.79 110.09 0.00 99.28 L 0.00 20.90 C 0.62 12.12 6.77 4.33 14.97 1.30 C 15.47 7.02 13.51 13.73 17.65 18.50 C 21.78 23.67 30.48 23.79 34.69 18.66 C 39.23 13.52 37.00 6.19 37.52 0.00 M 15.01 37.53 C 14.99 57.36 15.01 77.20 15.00 97.03 C 14.65 101.36 18.58 105.31 22.91 104.99 C 47.60 105.01 72.29 105.00 96.98 105.00 C 101.34 105.37 105.36 101.40 104.99 97.03 C 105.01 77.20 105.00 57.36 104.99 37.53 C 75.00 37.53 45.01 37.54 15.01 37.53 Z" />
<path fill="#ffffff" opacity="1.00" d=" M 90.00 0.00 L 97.53 0.00 C 97.40 4.09 97.80 8.20 97.34 12.27 C 96.64 15.63 91.39 15.91 90.28 12.68 C 89.62 8.50 90.18 4.22 90.00 0.00 Z" />
<path fill="#ffffff" opacity="1.00" d=" M 30.01 52.53 C 35.00 52.53 40.00 52.53 44.99 52.53 C 45.00 57.53 45.00 62.53 45.00 67.53 C 40.01 67.54 35.02 67.52 30.03 67.55 C 29.97 62.54 30.01 57.54 30.01 52.53 Z" />
<path fill="#ffffff" opacity="1.00" d=" M 52.53 52.53 C 57.53 52.54 62.53 52.53 67.53 52.54 C 67.53 57.54 67.53 62.53 67.53 67.53 C 62.53 67.54 57.53 67.53 52.54 67.53 C 52.52 62.53 52.53 57.53 52.53 52.53 Z" />
<path fill="#ffffff" opacity="1.00" d=" M 75.01 52.53 C 80.00 52.54 85.00 52.53 89.99 52.53 C 90.00 57.53 90.00 62.53 89.99 67.54 C 85.00 67.54 80.02 67.52 75.03 67.55 C 74.97 62.54 75.00 57.54 75.01 52.53 Z" />
<path fill="#ffffff" opacity="1.00" d=" M 30.00 75.00 C 35.00 75.00 40.00 75.00 45.00 75.00 C 45.00 80.00 45.00 85.00 45.00 90.00 C 40.00 90.00 35.00 90.00 30.00 90.00 C 30.00 85.00 30.00 80.00 30.00 75.00 Z" />
<path fill="#ffffff" opacity="1.00" d=" M 52.53 75.01 C 57.56 75.08 62.60 74.82 67.63 75.15 C 67.36 80.11 67.69 85.09 67.45 90.05 C 62.47 89.93 57.50 90.03 52.53 89.99 C 52.53 85.00 52.53 80.00 52.53 75.01 Z" />
<path fill="#ffffff" opacity="1.00" d=" M 75.00 75.00 C 80.00 75.00 85.00 75.00 90.00 75.00 C 90.00 80.00 90.00 85.00 90.00 90.00 C 85.00 90.00 80.00 90.00 75.00 90.00 C 75.00 85.00 75.00 80.00 75.00 75.00 Z" />
</g>
</svg>