<svg width="7px" height="7px" viewBox="0 0 70 70" version="1.1" xmlns="http://www.w3.org/2000/svg">
<g id="#9f9f9fff">
<path fill="#9f9f9f" opacity="1.00" d=" M 28.00 0.00 L 42.00 0.00 C 42.00 9.33 42.00 18.67 42.00 28.00 C 51.33 28.00 60.67 28.00 70.00 28.00 L 70.00 42.00 C 60.67 42.00 51.33 42.00 42.00 42.00 C 42.00 51.33 42.00 60.67 42.00 70.00 L 28.00 70.00 C 28.00 60.67 28.00 51.33 28.00 42.00 C 18.67 42.00 9.33 42.00 0.00 42.00 L 0.00 28.00 C 9.33 28.00 18.67 28.00 28.00 28.00 C 28.00 18.67 28.00 9.33 28.00 0.00 Z" />
</g>
</svg>