<svg width="36px" height="36px" viewBox="0 0 360 360" version="1.1" xmlns="http://www.w3.org/2000/svg">
<path fill="#333333" opacity="1.00" d=" M 42.55 0.00 L 44.96 0.00 C 85.79 11.31 126.68 22.46 167.59 33.49 C 175.47 33.99 183.48 34.12 191.36 33.52 C 232.63 22.58 273.81 11.28 314.99 0.00 L 317.05 0.00 C 329.58 0.62 341.77 6.59 349.67 16.37 C 355.74 23.52 359.16 32.65 360.00 41.94 L 360.00 283.82 C 359.29 294.55 353.76 304.61 345.49 311.39 C 335.59 319.86 323.06 324.33 310.60 327.47 C 270.82 338.49 230.99 349.33 191.12 360.00 L 168.37 360.00 C 127.36 348.91 86.36 337.76 45.43 326.35 C 31.34 321.76 16.72 315.55 7.35 303.56 C 2.99 298.00 0.66 291.09 0.00 284.10 L 0.00 42.21 C 0.77 32.59 4.39 23.16 10.76 15.85 C 18.58 6.46 30.40 0.76 42.55 0.00 M 22.56 44.02 C 22.49 123.00 22.56 201.99 22.52 280.98 C 22.37 285.91 24.16 290.88 27.58 294.47 C 32.23 299.43 38.77 301.98 45.19 303.79 C 86.34 315.16 127.53 326.36 168.75 337.48 C 168.78 243.74 168.76 150.00 168.76 56.26 C 128.87 45.36 88.98 34.52 49.10 23.60 C 36.41 19.25 22.62 31.14 22.56 44.02 M 191.24 56.25 C 191.23 149.91 191.23 243.57 191.25 337.23 C 229.88 327.00 268.47 316.62 306.99 305.95 C 315.54 303.68 324.56 301.31 331.29 295.23 C 335.34 291.65 337.65 286.31 337.51 280.91 C 337.53 202.23 337.57 123.56 337.50 44.89 C 337.76 32.69 326.27 21.29 313.97 22.79 C 273.06 33.93 232.15 45.10 191.24 56.25 Z" />
</svg>
