<svg width="36px" height="36px" viewBox="0 0 36 36" version="1.1" xmlns="http://www.w3.org/2000/svg">
<path fill="#303030" opacity="1.00" d=" M 324.86 0.00 L 331.08 0.00 C 338.68 0.73 346.22 3.76 351.47 9.44 C 356.66 14.62 359.23 21.83 360.00 29.01 L 360.00 33.82 C 359.09 44.10 354.73 54.07 347.44 61.42 C 323.62 85.36 299.77 109.27 275.96 133.22 C 291.49 175.28 307.06 217.34 322.61 259.40 C 325.77 267.55 328.39 276.16 328.33 284.98 C 328.20 293.91 323.20 301.89 317.04 308.01 C 310.86 314.42 303.27 320.66 293.97 321.11 C 283.18 321.62 273.72 314.79 266.68 307.26 C 242.00 277.13 217.41 246.93 192.74 216.79 C 173.07 236.51 153.41 256.24 133.78 276.00 C 138.27 296.05 143.02 316.03 147.35 336.11 C 148.54 340.42 147.75 345.27 144.44 348.44 C 139.73 353.14 134.69 358.09 128.13 360.00 L 124.94 360.00 C 121.84 359.21 119.11 357.33 117.24 354.74 C 101.40 334.29 85.48 313.90 69.64 293.44 C 67.89 291.15 65.49 289.53 63.25 287.79 C 44.48 273.21 25.76 258.58 6.98 244.02 C 3.39 241.62 0.22 238.10 0.00 233.56 L 0.00 232.75 C 1.07 225.27 7.14 220.16 12.23 215.19 C 16.37 211.28 22.58 210.98 27.84 212.31 C 46.56 216.95 65.27 221.67 83.98 226.33 C 103.80 206.60 123.58 186.84 143.35 167.07 C 113.25 142.34 83.08 117.70 52.97 92.98 C 45.75 86.23 39.28 77.27 39.10 67.01 C 38.95 58.15 44.32 50.44 50.28 44.38 C 55.91 38.45 62.73 32.97 71.02 31.57 C 78.91 30.16 86.88 32.33 94.40 34.56 C 138.48 50.99 182.52 67.53 226.60 83.97 C 250.51 60.10 274.42 36.22 298.34 12.34 C 305.37 5.26 314.98 1.05 324.86 0.00 M 319.02 20.94 C 314.94 22.06 312.27 25.53 309.32 28.31 C 282.33 54.78 255.46 81.37 228.38 107.75 C 182.61 91.02 136.76 74.51 90.96 57.85 C 84.52 55.65 77.12 55.07 70.73 57.73 C 65.06 61.02 61.86 68.83 64.90 74.92 C 66.20 78.14 69.35 79.88 71.98 81.88 C 106.72 107.61 141.48 133.33 176.21 159.08 C 145.76 189.04 115.28 218.98 84.79 248.91 C 65.62 243.75 46.46 238.54 27.29 233.40 C 45.00 248.26 63.93 261.62 82.08 275.91 C 97.04 294.83 110.98 314.59 126.60 332.99 C 121.26 312.98 115.83 292.99 110.47 272.98 C 140.37 242.94 170.27 212.91 200.19 182.89 C 227.12 219.24 253.99 255.64 280.92 292.00 C 283.42 295.27 287.61 297.66 291.81 296.75 C 297.70 295.29 302.91 290.39 303.49 284.15 C 305.28 276.06 302.11 268.25 299.26 260.84 C 283.50 217.56 267.87 174.22 252.02 130.97 C 279.77 102.74 307.88 74.85 335.75 46.73 C 341.29 41.05 341.73 31.19 336.96 24.92 C 332.61 19.97 325.06 18.99 319.02 20.94 Z" />
</svg>