<svg width="36px" height="36px" viewBox="0 0 360 360" version="1.1" xmlns="http://www.w3.org/2000/svg">
<path fill="#333333" opacity="1.00" d=" M 350.38 0.00 L 353.78 0.00 C 357.18 1.01 359.33 4.02 360.00 7.40 L 360.00 8.69 C 359.37 13.10 356.71 16.81 354.81 20.74 C 296.46 133.84 237.98 246.87 179.70 360.00 L 179.34 360.00 C 177.98 356.46 175.92 353.25 174.14 349.92 C 153.94 312.83 133.65 275.78 113.48 238.68 C 111.89 235.46 108.24 234.32 105.42 232.47 C 71.19 212.14 37.15 191.50 3.02 171.01 C 2.05 170.49 1.04 170.04 0.00 169.66 L 0.00 169.23 C 115.06 113.47 230.21 57.89 345.28 2.16 C 346.95 1.37 348.64 0.63 350.38 0.00 M 291.99 51.07 C 209.66 90.41 127.36 129.79 45.03 169.12 C 71.09 184.30 97.37 199.12 123.56 214.07 C 183.30 158.02 243.08 102.01 302.89 46.02 C 299.17 47.52 295.60 49.35 291.99 51.07 M 306.57 62.67 C 249.28 116.86 192.06 171.10 134.75 225.26 C 148.75 255.67 164.39 285.29 179.65 315.08 C 224.76 228.36 269.92 141.67 314.96 54.91 C 312.03 57.35 309.34 60.07 306.57 62.67 Z" />
</svg>
