<svg width="36px" height="36px" viewBox="0 0 360 360" version="1.1" xmlns="http://www.w3.org/2000/svg">
<path fill="#333333" opacity="1.00" d=" M 177.47 0.00 L 182.29 0.00 C 194.22 0.70 205.86 6.16 213.70 15.23 C 220.95 23.31 225.03 34.11 224.99 44.97 C 225.01 74.98 224.99 104.99 225.00 135.00 C 254.67 135.01 284.35 134.99 314.02 135.01 C 320.83 134.94 327.67 136.23 333.85 139.14 C 348.53 145.75 358.73 160.71 360.00 176.70 L 360.00 182.51 C 359.09 199.33 348.08 215.10 332.46 221.48 C 325.72 224.43 318.30 225.25 311.01 225.01 C 282.34 224.99 253.67 225.00 225.00 225.00 C 224.99 254.99 225.01 284.99 224.99 314.98 C 225.01 325.58 221.18 336.14 214.24 344.17 C 206.59 353.36 195.12 358.92 183.28 360.00 L 176.88 360.00 C 164.29 358.96 152.15 352.70 144.48 342.59 C 138.32 334.82 135.02 324.93 135.02 315.02 C 134.97 285.02 135.02 255.01 135.00 225.00 C 105.00 224.99 75.00 225.01 45.00 225.00 C 33.20 225.06 21.50 220.20 13.19 211.82 C 5.17 203.86 0.43 192.85 0.00 181.57 L 0.00 176.84 C 1.23 160.26 12.15 144.81 27.59 138.51 C 33.99 135.74 41.03 134.80 47.97 134.99 C 76.98 135.02 105.99 135.00 135.00 135.00 C 135.01 104.99 134.99 74.97 135.01 44.96 C 134.98 34.14 139.02 23.37 146.24 15.30 C 154.03 6.24 165.59 0.79 177.47 0.00 M 166.85 26.76 C 161.06 30.88 157.45 37.87 157.53 44.98 C 157.53 82.50 157.54 120.01 157.52 157.53 C 120.01 157.54 82.50 157.53 44.99 157.53 C 37.86 157.44 30.87 161.07 26.75 166.86 C 22.35 172.86 21.29 181.10 23.99 188.03 C 26.58 194.94 32.79 200.36 40.01 201.92 C 43.28 202.68 46.67 202.51 50.00 202.54 C 85.84 202.53 121.68 202.54 157.52 202.53 C 157.55 240.02 157.52 277.51 157.53 315.00 C 157.45 322.10 161.04 329.10 166.82 333.22 C 171.97 337.01 178.79 338.37 185.02 336.93 C 192.24 335.34 198.45 329.92 201.02 323.00 C 202.81 318.55 202.53 313.69 202.53 309.00 C 202.53 273.51 202.52 238.03 202.53 202.54 C 240.04 202.51 277.54 202.58 315.04 202.50 C 322.62 202.52 330.04 198.45 334.03 192.00 C 338.35 185.27 338.64 176.20 334.73 169.22 C 330.92 162.11 323.07 157.40 314.98 157.53 C 277.50 157.52 240.01 157.55 202.53 157.52 C 202.53 122.01 202.52 86.51 202.53 51.01 C 202.49 47.01 202.78 42.92 201.68 39.02 C 199.60 31.20 192.96 24.82 185.05 23.09 C 178.82 21.64 172.01 22.98 166.85 26.76 Z">
</svg>