<svg width="31px" height="36px" viewBox="0 0 310 360" version="1.1" xmlns="http://www.w3.org/2000/svg">
<path fill="#333333" opacity="1.00" d=" M 98.41 0.00 L 232.50 0.00 C 258.33 30.09 284.17 60.17 310.00 90.27 L 310.00 273.20 C 308.06 291.86 294.02 308.64 275.91 313.62 C 269.01 315.61 261.78 314.85 254.71 315.01 C 254.44 337.21 236.06 357.28 214.11 360.00 L 41.57 360.00 C 20.38 358.16 2.72 339.88 0.00 319.03 L 0.00 86.22 C 1.88 69.33 13.23 53.47 29.41 47.66 C 37.66 44.41 46.66 45.53 55.31 44.96 C 55.57 22.04 75.37 0.93 98.41 0.00 M 77.53 44.99 C 77.53 119.99 77.53 194.99 77.53 270.00 C 77.60 281.73 88.10 292.51 99.91 292.51 C 154.94 292.55 209.97 292.54 265.00 292.52 C 277.37 292.78 288.30 281.22 287.88 268.96 C 287.89 216.82 287.88 164.68 287.88 112.54 C 276.29 112.48 264.70 112.63 253.11 112.46 C 230.67 111.59 211.09 91.43 210.40 69.07 C 210.18 53.56 210.34 38.05 210.35 22.54 C 173.54 22.52 136.74 22.54 99.94 22.53 C 88.12 22.43 77.61 33.28 77.53 44.99 M 232.54 22.90 C 232.56 34.60 232.46 46.30 232.58 57.99 C 233.35 66.65 236.91 74.98 242.04 81.94 C 245.19 86.00 249.54 90.09 255.02 89.99 C 265.96 90.01 276.90 90.00 287.84 90.00 C 269.42 67.62 251.00 45.25 232.54 22.90 M 22.12 90.99 C 22.12 165.34 22.11 239.68 22.12 314.03 C 21.74 326.27 32.66 337.79 45.01 337.52 C 100.03 337.54 155.05 337.56 210.07 337.51 C 221.95 337.52 232.27 326.74 232.56 315.01 C 191.03 314.98 149.51 315.01 107.98 315.00 C 102.01 314.95 95.94 315.39 90.12 313.80 C 70.43 308.71 54.99 289.48 55.35 268.98 C 55.35 201.82 55.36 134.67 55.34 67.52 C 50.19 67.75 45.00 67.57 39.87 68.19 C 29.39 70.04 21.71 80.51 22.12 90.99 Z" />
<path fill="#333333" opacity="1.00" d=" M 128.46 158.65 C 131.12 157.43 134.11 157.69 136.95 157.66 C 168.62 157.69 200.29 157.64 231.96 157.68 C 235.91 157.55 239.82 159.62 241.89 162.99 C 246.51 169.74 241.22 180.12 233.00 180.14 C 199.68 180.26 166.35 180.19 133.03 180.18 C 128.12 180.33 123.50 176.74 122.22 172.05 C 120.61 166.83 123.44 160.78 128.46 158.65 Z" />
<path fill="#333333" opacity="1.00" d=" M 129.33 214.50 C 131.16 213.85 133.13 213.88 135.05 213.85 C 167.37 213.90 199.69 213.84 232.00 213.88 C 237.36 213.63 242.48 217.70 243.37 223.00 C 244.83 229.42 239.53 236.28 232.92 236.35 C 199.63 236.45 166.33 236.40 133.04 236.37 C 127.70 236.52 122.75 232.30 121.95 227.04 C 120.93 221.79 124.25 216.16 129.33 214.50 Z" />
</svg>