<svg width="36px" height="36px" viewBox="0 0 360 360" version="1.1" xmlns="http://www.w3.org/2000/svg">
<path fill="#333333" opacity="1.00" d=" M 175.31 0.00 L 181.73 0.00 C 212.56 0.28 243.29 8.59 269.96 24.09 C 302.39 42.78 328.72 71.83 344.07 105.97 C 353.75 127.15 358.90 150.24 360.00 173.46 L 360.00 186.52 C 358.77 213.98 351.65 241.23 338.48 265.41 C 322.34 295.27 297.68 320.49 268.01 337.02 C 242.96 351.24 214.40 358.93 185.65 360.00 L 174.41 360.00 C 141.96 358.89 109.87 349.02 82.59 331.38 C 52.27 311.88 28.03 283.09 14.07 249.85 C 5.52 229.84 1.07 208.25 0.00 186.56 L 0.00 173.48 C 1.02 152.79 5.12 132.19 12.96 112.98 C 27.12 77.42 53.08 46.74 85.67 26.70 C 112.49 10.04 143.78 0.92 175.31 0.00 M 113.09 37.45 C 123.52 59.53 133.65 81.77 144.37 103.71 C 166.60 92.80 193.58 93.22 215.92 103.62 C 226.15 81.51 236.64 59.53 246.91 37.45 C 227.25 28.26 205.71 23.05 183.99 22.56 C 159.61 21.85 135.17 27.15 113.09 37.45 M 37.46 113.03 C 17.64 154.71 17.45 205.26 37.53 246.87 C 59.51 236.49 81.49 226.09 103.56 215.90 C 101.67 210.98 99.53 206.13 98.33 200.97 C 93.33 182.15 95.43 161.67 103.71 144.08 C 81.61 133.75 59.58 123.30 37.46 113.03 M 256.27 144.25 C 267.06 166.48 266.95 193.48 256.35 215.76 C 278.36 226.16 300.46 236.38 322.42 246.87 C 342.60 205.30 342.34 154.70 322.54 113.02 C 300.44 123.40 278.25 133.61 256.27 144.25 M 171.51 118.71 C 157.34 120.64 143.91 127.69 134.35 138.34 C 124.87 148.54 119.12 162.10 118.27 175.99 C 117.23 190.91 121.91 206.11 131.13 217.88 C 140.12 229.52 153.36 237.81 167.80 240.65 C 179.86 243.08 192.65 241.84 203.98 237.02 C 218.47 230.96 230.43 219.15 236.69 204.76 C 242.58 191.42 243.48 175.97 239.20 162.03 C 234.72 147.06 224.23 134.04 210.69 126.29 C 198.94 119.51 184.93 116.84 171.51 118.71 M 113.08 322.55 C 130.97 330.85 150.36 335.99 170.07 337.18 C 196.38 338.91 223.05 333.73 246.92 322.55 C 236.61 300.45 226.21 278.39 215.84 256.32 C 193.56 266.92 166.53 267.10 144.31 256.29 C 133.68 278.26 123.48 300.46 113.08 322.55 Z" /></svg>