<svg width="32px" height="30px" viewBox="0 0 320 300" version="1.1" xmlns="http://www.w3.org/2000/svg">
<g id="#00000033">
<path fill="#000000" opacity="0.20" d=" M 141.44 11.46 C 153.70 0.98 174.99 3.41 183.71 17.31 C 191.34 28.34 189.92 42.29 190.01 54.98 C 223.68 55.03 257.36 55.00 291.03 54.98 C 297.75 54.88 304.60 56.79 309.80 61.16 C 315.13 65.31 318.24 71.62 320.00 78.02 L 320.00 271.78 C 318.30 278.25 315.20 284.63 309.83 288.83 C 304.61 293.21 297.73 295.13 290.99 295.02 C 207.00 294.98 123.01 295.00 39.02 295.01 C 30.74 294.94 21.81 295.95 14.33 291.62 C 6.77 287.70 2.05 279.96 0.00 271.90 L 0.00 78.21 C 1.97 70.10 6.73 62.34 14.30 58.40 C 21.47 54.21 30.04 55.00 38.00 54.99 C 68.67 55.00 99.33 55.03 129.99 54.98 C 130.05 48.62 129.80 42.26 130.20 35.92 C 130.81 26.80 134.36 17.50 141.44 11.46 M 157.35 25.36 C 149.84 27.03 147.41 37.82 153.45 42.56 C 158.80 47.66 168.71 44.20 169.77 36.90 C 171.44 29.97 164.13 23.21 157.35 25.36 M 24.59 75.62 C 21.19 76.83 19.81 80.60 19.99 83.95 C 19.97 94.30 20.00 104.64 20.02 114.99 C 113.34 115.01 206.66 115.01 299.99 114.98 C 300.04 105.34 299.95 95.69 300.06 86.05 C 299.94 83.04 300.23 79.46 297.81 77.21 C 295.84 75.04 292.71 75.04 290.01 74.96 C 256.68 75.07 223.35 74.95 190.02 75.01 C 189.95 85.01 190.05 95.00 189.98 104.99 C 169.99 105.01 150.01 105.01 130.02 104.99 C 129.95 95.00 130.05 85.00 129.98 75.01 C 98.98 74.97 67.99 75.03 36.99 74.99 C 32.86 75.06 28.62 74.53 24.59 75.62 M 20.02 135.02 C 19.97 178.70 20.02 222.39 19.99 266.07 C 19.80 269.43 21.21 273.20 24.62 274.39 C 29.00 275.52 33.59 274.90 38.06 275.01 C 119.38 275.00 200.69 274.99 282.01 275.01 C 286.47 274.90 291.06 275.52 295.43 274.37 C 298.82 273.16 300.17 269.40 300.01 266.07 C 299.98 222.39 300.02 178.70 299.98 135.02 C 206.66 134.99 113.34 134.99 20.02 135.02 Z" />
<path fill="#000000" opacity="0.20" d=" M 72.47 164.55 C 76.43 157.89 84.52 155.05 91.94 155.03 C 99.69 154.75 108.29 157.63 112.43 164.59 C 115.39 169.17 115.03 174.80 115.33 180.01 C 115.42 184.38 116.31 189.08 114.02 193.07 C 111.94 197.15 110.32 201.43 108.59 205.66 C 107.26 208.76 104.63 211.08 103.31 214.18 C 103.24 216.37 104.35 218.66 106.31 219.74 C 110.23 222.00 114.66 223.20 118.59 225.46 C 126.26 229.74 133.48 235.64 137.39 243.69 C 139.14 247.18 139.65 251.11 140.20 254.93 C 108.38 255.06 76.55 255.01 44.73 254.96 C 45.11 244.62 51.40 235.55 59.65 229.73 C 64.96 225.54 71.28 223.08 77.42 220.43 C 80.52 219.40 82.93 215.37 80.63 212.50 C 76.27 206.38 73.51 199.38 70.45 192.57 C 68.86 189.22 69.51 185.46 69.57 181.90 C 69.91 176.07 69.21 169.73 72.47 164.55 Z" />
<path fill="#000000" opacity="0.20" d=" M 160.01 155.02 C 176.67 154.99 193.33 154.98 209.99 155.02 C 210.02 161.67 210.02 168.33 209.99 174.98 C 193.33 175.01 176.67 175.01 160.01 174.98 C 159.98 168.33 159.98 161.67 160.01 155.02 Z" />
<path fill="#000000" opacity="0.20" d=" M 160.01 195.01 C 196.65 194.99 233.29 194.98 269.93 195.02 C 269.96 201.67 269.96 208.33 269.93 214.98 C 233.29 215.01 196.65 215.01 160.01 214.98 C 159.98 208.32 159.98 201.67 160.01 195.01 Z" />
<path fill="#000000" opacity="0.20" d=" M 160.01 235.02 C 196.65 234.99 233.29 234.99 269.93 235.01 C 269.96 241.67 269.96 248.33 269.93 254.98 C 233.29 255.01 196.65 255.01 160.01 254.98 C 159.98 248.33 159.98 241.67 160.01 235.02 Z" />
</g>
</svg>