<svg width="38px" height="38px" viewBox="0 0 380 380" version="1.1" xmlns="http://www.w3.org/2000/svg">
<g id="#00000099">
<path fill="#000000" opacity="0.60" d=" M 185.01 110.01 C 188.34 109.99 191.66 109.99 194.99 110.01 C 195.02 134.31 194.98 158.60 195.01 182.90 C 203.76 174.19 212.50 165.46 221.21 156.71 C 223.72 158.93 226.10 161.29 228.30 163.82 C 215.47 176.50 202.85 189.39 190.00 202.05 C 177.16 189.39 164.53 176.50 151.70 163.82 C 153.89 161.28 156.29 158.93 158.79 156.70 C 167.51 165.45 176.23 174.19 184.99 182.90 C 185.02 158.60 184.98 134.31 185.01 110.01 Z" />
<path fill="#000000" opacity="0.60" d=" M 145.93 185.95 C 150.12 184.58 154.60 185.06 158.94 185.01 C 162.30 188.30 165.61 191.64 168.93 194.99 C 163.26 195.06 157.59 194.92 151.93 195.03 C 148.61 194.98 145.36 196.76 143.62 199.59 C 140.51 204.85 137.05 209.91 133.92 215.16 C 152.95 214.78 171.99 215.12 191.03 214.99 C 201.07 205.03 211.02 194.97 221.06 185.01 C 225.38 185.06 229.83 184.58 234.01 185.93 C 238.70 187.32 242.69 190.62 245.22 194.77 C 252.10 205.86 258.98 216.96 265.86 228.05 C 269.78 234.26 270.97 242.09 269.16 249.20 C 266.98 258.07 260.10 265.59 251.43 268.49 C 247.13 270.08 242.49 270.06 237.97 270.01 C 204.64 269.99 171.32 270.00 137.99 270.00 C 132.99 270.05 127.98 268.78 123.67 266.24 C 114.24 260.89 108.67 249.59 110.26 238.85 C 110.77 234.78 112.30 230.88 114.52 227.44 C 121.28 216.59 128.00 205.71 134.74 194.85 C 137.25 190.68 141.24 187.36 145.93 185.95 M 133.36 225.50 C 127.91 226.80 123.22 230.89 121.21 236.13 C 118.96 241.73 119.93 248.48 123.69 253.21 C 126.99 257.57 132.45 260.11 137.91 259.99 C 172.97 259.98 208.03 260.05 243.09 259.95 C 252.41 259.92 260.49 251.28 259.98 242.00 C 259.93 233.05 252.02 225.06 243.05 225.04 C 208.37 224.94 173.69 225.05 139.01 224.99 C 137.12 225.01 135.21 225.05 133.36 225.50 Z" />
<path fill="#000000" opacity="0.60" d=" M 239.47 235.64 C 244.77 232.97 251.40 238.45 249.81 244.15 C 248.84 249.42 241.77 251.85 237.76 248.30 C 233.45 245.06 234.47 237.62 239.47 235.64 Z" />
<path fill="#000000" opacity="0.60" d=" M 135.01 240.01 C 165.00 239.99 195.00 239.99 224.99 240.01 C 225.01 243.34 225.01 246.66 224.99 249.99 C 195.00 250.00 165.00 250.00 135.01 249.99 C 134.99 246.66 134.99 243.33 135.01 240.01 Z" />
</g>
</svg>