<svg width="38px" height="38px" viewBox="0 0 380 380" version="1.1" xmlns="http://www.w3.org/2000/svg">
<g id="#00000099">
<path fill="#000000" opacity="0.60" d=" M 145.00 110.00 C 175.00 110.00 205.00 110.00 235.00 110.00 C 235.01 121.67 234.99 133.33 235.00 145.00 C 242.37 145.10 249.74 144.81 257.10 145.12 C 264.08 145.53 270.02 151.95 269.95 158.94 C 270.06 179.31 269.97 199.68 270.00 220.05 C 270.48 227.38 264.48 234.47 257.09 234.88 C 249.74 235.19 242.37 234.90 235.00 235.00 C 234.99 246.67 235.01 258.33 235.00 270.00 C 205.00 270.00 175.00 270.00 145.00 270.00 C 144.99 258.33 145.01 246.67 145.00 235.00 C 137.64 234.89 130.28 235.19 122.94 234.88 C 115.92 234.49 109.96 228.04 110.04 221.03 C 109.97 200.34 109.97 179.64 110.04 158.95 C 109.95 151.56 116.57 144.95 123.95 145.05 C 130.96 144.89 137.98 145.06 145.00 145.00 C 145.01 133.33 144.99 121.67 145.00 110.00 M 155.00 120.00 C 155.00 128.23 154.98 136.45 155.02 144.67 C 178.34 144.66 201.66 144.66 224.98 144.67 C 225.02 136.45 225.00 128.23 225.00 120.00 C 201.67 120.00 178.33 120.00 155.00 120.00 M 122.33 155.46 C 120.20 156.39 119.90 158.89 119.98 160.94 C 120.02 175.63 119.99 190.31 120.00 205.00 C 166.67 205.00 213.33 205.00 260.00 205.00 C 259.98 189.97 260.04 174.93 259.98 159.91 C 260.37 157.11 257.89 154.63 255.10 155.03 C 213.40 154.95 171.69 155.04 129.99 154.98 C 127.45 155.06 124.79 154.68 122.33 155.46 M 155.00 215.00 C 155.00 230.00 155.00 245.00 155.00 260.00 C 178.33 260.00 201.66 260.00 225.00 260.00 C 225.00 245.00 225.00 230.00 225.00 215.00 C 201.67 215.00 178.33 215.00 155.00 215.00 Z" />
<path fill="#000000" opacity="0.60" d=" M 223.34 185.44 C 226.76 184.06 230.76 187.45 229.91 191.06 C 229.43 194.65 224.64 196.44 221.90 194.08 C 218.83 191.87 219.71 186.53 223.34 185.44 Z" />
<path fill="#000000" opacity="0.60" d=" M 243.26 185.40 C 246.69 183.92 250.76 187.36 249.92 190.99 C 249.42 194.54 244.71 196.35 241.97 194.05 C 238.85 191.89 239.66 186.56 243.26 185.40 Z" />
<path fill="#000000" opacity="0.60" d=" M 165.01 220.00 C 181.67 220.00 198.33 220.00 214.99 220.00 C 215.01 223.33 215.01 226.66 214.99 230.00 C 198.33 230.00 181.67 230.00 165.01 230.00 C 164.99 226.66 164.99 223.33 165.01 220.00 Z" />
<path fill="#000000" opacity="0.60" d=" M 165.01 240.00 C 181.67 240.00 198.33 240.00 214.99 240.00 C 215.01 243.33 215.01 246.66 214.99 250.00 C 198.33 250.00 181.67 250.00 165.01 250.00 C 164.99 246.66 164.99 243.33 165.01 240.00 Z" />
</g>
</svg>