<svg width="20px" height="20px" viewBox="0 0 320 320" version="1.1" xmlns="http://www.w3.org/2000/svg">
<g id="#fbb040ff">
<path fill="#fbb040" opacity="1.00" d=" M 155.78 0.00 L 162.80 0.00 C 194.06 0.58 225.11 10.40 250.79 28.28 C 277.62 46.67 298.55 73.49 309.89 103.98 C 316.17 120.51 319.39 138.12 320.00 155.77 L 320.00 164.57 C 319.06 196.42 308.46 227.90 289.71 253.69 C 269.08 282.33 238.72 303.82 204.80 313.61 C 191.63 317.54 177.93 319.43 164.22 320.00 L 155.99 320.00 C 124.89 319.15 94.08 309.21 68.61 291.31 C 40.32 271.74 18.72 242.75 8.00 210.07 C 2.98 194.92 0.39 179.03 0.00 163.09 L 0.00 155.97 C 0.50 141.16 2.80 126.38 7.26 112.24 C 17.60 79.04 39.10 49.44 67.55 29.44 C 93.16 11.11 124.33 0.92 155.78 0.00 M 149.35 20.44 C 104.53 23.44 62.28 49.94 39.61 88.65 C 23.66 115.27 17.07 147.34 21.20 178.10 C 25.01 208.50 39.38 237.37 61.08 258.97 C 84.30 282.31 115.98 297.10 148.85 299.53 C 178.42 301.97 208.70 294.67 233.84 278.90 C 262.32 261.22 284.13 233.06 293.88 200.98 C 302.66 172.41 301.96 141.03 291.84 112.90 C 281.53 84.04 261.44 58.81 235.64 42.27 C 210.30 25.80 179.47 18.03 149.35 20.44 Z" />
<path fill="#fbb040" opacity="1.00" d=" M 145.01 95.02 C 144.87 88.09 150.18 81.59 156.98 80.32 C 166.73 77.93 176.38 87.19 175.01 97.00 C 174.98 113.00 175.01 129.00 175.00 145.00 C 191.70 145.02 208.39 144.97 225.09 145.02 C 230.67 144.97 236.06 148.38 238.46 153.40 C 241.05 158.54 240.29 165.13 236.58 169.52 C 233.80 172.94 229.46 175.01 225.05 174.99 C 208.36 175.02 191.68 174.99 175.00 175.00 C 174.99 191.69 175.02 208.38 174.99 225.07 C 175.05 230.93 171.27 236.55 165.88 238.80 C 156.94 243.05 145.40 235.99 145.07 226.13 C 144.90 209.09 145.05 192.04 145.00 175.00 C 128.32 174.99 111.63 175.02 94.95 174.99 C 86.96 175.18 79.82 168.00 80.00 160.02 C 79.80 152.03 86.93 144.84 94.93 145.02 C 111.62 144.97 128.31 145.02 145.00 145.00 C 145.01 128.34 144.98 111.68 145.01 95.02 Z" />
</g>
</svg>
