<svg width="38px" height="76px" viewBox="0 0 380 760" version="1.1" xmlns="http://www.w3.org/2000/svg">
<g id="#00000099">
<path fill="#000000" opacity="0.60" d=" M 164.68 127.70 C 171.17 117.92 182.18 111.35 193.86 110.22 C 205.41 108.99 217.38 113.17 225.68 121.27 C 233.38 128.69 237.92 139.28 237.87 149.98 C 237.96 158.65 234.36 166.71 232.21 174.96 C 235.13 175.03 238.19 174.82 240.95 175.99 C 246.58 178.11 250.35 184.04 250.00 190.03 C 249.97 212.04 250.05 234.05 249.96 256.06 C 250.05 263.44 243.44 270.03 236.06 269.96 C 205.36 270.02 174.65 270.03 143.95 269.96 C 136.55 270.04 129.94 263.41 130.03 256.01 C 129.98 233.65 129.97 211.29 130.04 188.93 C 129.97 181.55 136.58 174.95 143.96 175.04 C 168.17 174.91 192.39 175.11 216.60 174.94 C 218.33 168.62 220.38 162.41 222.09 156.09 C 224.38 147.53 221.51 137.93 215.06 131.88 C 208.43 125.45 198.05 123.28 189.39 126.52 C 181.99 129.14 175.99 135.45 173.89 143.03 C 172.40 148.36 170.84 153.67 169.55 159.05 C 164.59 158.17 159.87 156.30 155.01 154.99 C 157.90 145.80 159.10 135.80 164.68 127.70 M 142.34 185.45 C 140.67 186.25 139.86 188.13 140.01 189.92 C 139.99 211.64 139.99 233.37 140.01 255.10 C 139.61 257.89 142.15 260.40 144.94 259.99 C 174.97 260.01 205.01 260.01 235.03 259.99 C 237.82 260.40 240.38 257.92 239.98 255.12 C 240.01 233.38 240.01 211.64 239.99 189.91 C 240.39 187.11 237.87 184.61 235.08 185.01 C 205.73 184.96 176.37 185.05 147.02 184.97 C 145.47 185.07 143.80 184.82 142.34 185.45 Z" />
<path fill="#000000" opacity="0.60" d=" M 180.00 215.02 C 179.81 209.33 185.34 204.34 190.97 205.08 C 196.31 205.48 200.69 210.74 199.94 216.08 C 199.71 219.34 197.46 221.88 195.01 223.80 C 194.97 229.20 195.02 234.60 194.99 239.99 C 191.66 240.01 188.33 240.01 185.00 239.99 C 184.98 234.60 185.02 229.20 184.99 223.80 C 182.22 221.71 179.87 218.66 180.00 215.02 Z" />
</g>
<g id="#fb5240ff">
<path fill="#fb5240" opacity="1.00" d=" M 163.81 499.78 C 173.26 491.45 186.81 488.13 199.06 491.07 C 215.71 494.62 228.87 509.98 229.87 526.97 C 230.17 536.31 229.92 545.66 230.00 555.01 C 233.97 555.05 238.20 554.53 241.87 556.39 C 247.02 558.76 250.32 564.39 250.01 570.05 C 249.97 592.06 250.05 614.09 249.97 636.10 C 250.02 643.47 243.41 650.03 236.05 649.97 C 205.71 650.05 175.35 649.97 145.01 650.00 C 139.36 650.30 133.75 647.00 131.38 641.86 C 130.14 639.43 129.97 636.65 129.98 633.98 C 130.05 612.30 129.94 590.61 130.03 568.92 C 130.04 563.36 133.74 558.09 138.89 556.06 C 142.39 554.57 146.29 555.06 150.00 555.01 C 150.03 546.33 149.95 537.66 150.03 528.99 C 150.25 517.88 155.38 507.01 163.81 499.78 M 165.12 527.90 C 164.84 536.93 165.08 545.97 165.00 555.00 C 181.67 555.00 198.33 555.00 215.00 555.00 C 214.92 545.97 215.16 536.94 214.88 527.92 C 214.16 515.37 202.60 504.76 190.05 505.02 C 177.45 504.71 165.87 515.33 165.12 527.90 M 142.36 565.45 C 140.64 566.21 139.87 568.15 140.01 569.94 C 140.00 591.65 139.99 613.36 140.01 635.07 C 139.60 637.86 142.11 640.38 144.91 639.99 C 174.98 640.00 205.05 640.00 235.12 639.99 C 237.90 640.37 240.39 637.86 239.99 635.09 C 240.01 613.35 240.00 591.62 239.99 569.89 C 240.38 567.09 237.85 564.60 235.06 565.01 C 205.71 564.97 176.36 565.04 147.01 564.97 C 145.47 565.05 143.81 564.81 142.36 565.45 Z" />
<path fill="#fb5240" opacity="1.00" d=" M 182.06 588.97 C 185.71 583.77 194.24 583.77 197.91 588.94 C 201.72 593.49 199.98 600.75 195.03 603.72 C 194.97 609.14 195.01 614.57 195.00 620.00 C 191.67 620.00 188.33 620.00 185.00 620.00 C 184.99 614.58 185.02 609.16 184.98 603.74 C 180.05 600.75 178.28 593.55 182.06 588.97 Z" />
</g>
</svg>