<svg width="24px" height="24px" viewBox="0 0 240 240" version="1.1" xmlns="http://www.w3.org/2000/svg">
<path fill="#3bb54a" opacity="1.00" d=" M 77.59 0.00 L 79.51 0.00 C 99.57 0.51 119.93 2.30 138.99 8.97 C 146.42 11.77 154.24 15.36 158.82 22.16 C 161.64 26.18 161.25 31.30 161.25 35.97 C 161.22 61.49 161.23 87.01 161.25 112.54 C 181.30 113.17 201.71 115.23 220.57 122.49 C 228.94 125.93 238.47 131.32 240.00 141.14 L 240.00 211.48 C 239.38 217.97 234.50 222.95 229.20 226.18 C 220.60 231.42 210.73 234.07 200.96 236.11 C 187.64 238.83 174.02 239.68 160.45 240.00 L 158.57 240.00 C 138.02 239.51 117.02 237.87 97.71 230.31 C 90.07 227.06 81.47 222.36 79.16 213.74 C 78.29 207.53 78.98 201.21 78.76 194.95 C 58.94 194.55 38.75 192.78 20.05 185.78 C 11.55 182.31 1.79 177.07 0.00 167.16 L 0.00 29.47 C 0.33 25.49 2.01 21.67 4.80 18.81 C 10.13 13.21 17.41 10.03 24.61 7.57 C 41.65 1.92 59.74 0.44 77.59 0.00 M 29.05 21.86 C 23.85 23.72 18.25 25.62 14.63 30.04 C 17.89 34.27 23.12 36.08 27.94 37.89 C 44.35 43.41 61.82 44.95 79.05 45.05 C 96.55 44.95 114.23 43.24 131.01 38.03 C 136.49 36.16 142.30 34.28 146.47 30.05 C 142.27 25.83 136.46 23.94 130.97 22.06 C 113.87 16.77 95.86 15.11 78.03 15.08 C 61.52 15.21 44.82 16.75 29.05 21.86 M 15.00 48.66 C 15.10 53.77 14.81 58.89 15.11 63.99 C 16.43 66.65 19.48 67.83 21.96 69.19 C 32.62 74.01 44.26 76.14 55.81 77.53 C 74.68 79.55 93.84 79.15 112.59 76.11 C 112.59 69.91 112.59 63.71 112.58 57.51 C 91.86 60.51 70.71 60.91 49.93 58.15 C 37.95 56.54 25.94 53.94 15.00 48.66 M 15.00 82.39 C 14.98 87.61 15.04 92.82 14.97 98.04 C 18.54 101.91 23.60 103.76 28.43 105.51 C 38.92 109.03 49.92 110.80 60.93 111.76 C 78.14 113.13 95.54 112.64 112.59 109.84 C 112.58 103.64 112.59 97.43 112.59 91.23 C 91.62 94.26 70.22 94.68 49.22 91.78 C 37.48 90.17 25.73 87.56 15.00 82.39 M 15.00 116.11 C 15.08 121.08 14.85 126.06 15.08 131.03 C 15.00 132.32 16.32 133.04 17.13 133.82 C 21.26 136.83 26.17 138.50 30.98 140.08 C 46.44 144.70 62.66 146.15 78.73 146.22 C 78.74 143.05 78.60 139.74 79.90 136.77 C 81.51 132.80 84.72 129.81 88.04 127.26 C 72.94 127.86 57.75 127.13 42.84 124.54 C 33.28 122.84 23.77 120.37 15.00 116.11 M 103.75 135.76 C 99.92 137.41 95.64 139.04 93.41 142.82 C 97.92 147.56 104.37 149.58 110.43 151.53 C 127.80 156.57 146.05 157.80 164.06 157.37 C 179.94 156.85 195.94 154.98 211.09 150.02 C 216.11 148.20 221.51 146.45 225.17 142.34 C 218.19 136.24 208.81 134.14 200.07 131.89 C 181.74 127.79 162.80 126.87 144.09 127.92 C 130.41 128.85 116.60 130.79 103.75 135.76 M 15.00 149.85 C 15.00 155.21 15.00 160.56 15.01 165.92 C 19.55 170.08 25.54 172.00 31.29 173.82 C 46.68 178.31 62.79 179.73 78.77 179.94 C 78.77 173.70 78.76 167.46 78.77 161.22 C 57.17 160.90 34.84 159.06 15.00 149.85 M 93.76 161.10 C 93.77 166.40 93.74 171.69 93.79 176.99 C 97.03 180.14 101.20 182.03 105.38 183.58 C 114.31 186.82 123.71 188.63 133.12 189.79 C 151.11 191.89 169.36 191.63 187.29 189.16 C 187.30 182.95 187.30 176.74 187.29 170.52 C 167.13 173.05 146.61 173.20 126.48 170.30 C 115.26 168.61 104.02 166.08 93.76 161.10 M 93.76 194.86 C 93.77 200.23 93.75 205.61 93.79 210.98 C 96.59 213.47 99.93 215.23 103.43 216.54 C 114.15 220.68 125.57 222.64 136.95 223.85 C 153.68 225.44 170.61 225.32 187.29 223.21 C 187.30 216.88 187.30 210.56 187.29 204.24 C 166.27 206.90 144.86 206.95 123.91 203.63 C 113.56 201.95 103.26 199.40 93.76 194.86 Z" />
</svg>