<svg width="217px" height="30px" viewBox="0 0 2170 300" version="1.1" xmlns="http://www.w3.org/2000/svg">
<g id="#f3b623ff">
<path fill="#f3b623" opacity="1.00" d=" M 600.00 0.00 L 660.00 0.00 C 660.00 100.00 660.00 200.00 660.00 300.00 L 600.00 300.00 C 600.00 200.00 600.00 100.00 600.00 0.00 Z" />
<path fill="#f3b623" opacity="1.00" d=" M 450.01 30.00 C 470.00 29.99 490.00 29.99 510.00 30.00 C 510.01 120.00 509.99 210.00 510.00 300.00 L 450.00 300.00 C 450.01 210.00 449.99 120.00 450.01 30.00 Z" />
<path fill="#f3b623" opacity="1.00" d=" M 750.01 30.00 C 770.00 29.99 789.99 29.99 810.00 30.00 C 810.01 120.00 809.99 210.00 810.00 300.00 L 750.00 300.00 C 750.01 210.00 749.99 120.00 750.01 30.00 Z" />
<path fill="#f3b623" opacity="1.00" d=" M 300.01 50.00 C 320.00 49.99 340.00 49.99 360.00 50.00 C 360.01 133.33 359.99 216.66 360.00 300.00 L 300.00 300.00 C 300.01 216.67 299.99 133.34 300.01 50.00 Z" />
<path fill="#f3b623" opacity="1.00" d=" M 900.01 50.00 C 920.00 49.99 939.99 49.99 960.00 50.00 C 960.01 133.33 959.99 216.66 960.00 300.00 L 900.00 300.00 C 900.01 216.67 899.99 133.34 900.01 50.00 Z" />
<path fill="#f3b623" opacity="1.00" d=" M 150.01 80.00 C 170.00 79.99 190.00 79.99 210.00 80.00 C 210.01 153.33 209.99 226.66 210.00 300.00 L 150.00 300.00 C 150.01 226.67 149.99 153.34 150.01 80.00 Z" />
<path fill="#f3b623" opacity="1.00" d=" M 0.00 110.00 C 20.00 110.00 40.00 109.99 60.00 110.00 C 60.01 173.34 59.99 236.67 60.00 300.00 L 0.00 300.00 L 0.00 110.00 Z" />
<path fill="#f3b623" opacity="1.00" d=" M 1050.01 110.00 C 1070.00 109.99 1089.99 109.99 1110.00 110.00 C 1110.01 173.33 1109.99 236.66 1110.00 300.00 L 1050.00 300.00 C 1050.01 236.67 1049.98 173.34 1050.01 110.00 Z" />
<path fill="#f3b623" opacity="1.00" d=" M 1360.01 110.00 C 1380.00 109.99 1399.99 109.99 1420.00 110.00 C 1420.01 173.33 1419.99 236.66 1420.00 300.00 L 1360.00 300.00 C 1360.01 236.67 1359.98 173.34 1360.01 110.00 Z" />
<path fill="#f3b623" opacity="1.00" d=" M 1210.01 130.00 C 1230.00 129.99 1249.99 129.99 1270.00 130.00 C 1270.01 186.66 1269.99 243.33 1270.00 300.00 L 1210.00 300.00 C 1210.01 243.33 1209.98 186.67 1210.01 130.00 Z" />
<path fill="#f3b623" opacity="1.00" d=" M 1660.01 130.00 C 1679.99 129.99 1699.99 129.99 1720.00 130.00 C 1720.01 186.66 1719.99 243.33 1720.00 300.00 L 1660.00 300.00 C 1660.00 243.33 1659.98 186.67 1660.01 130.00 Z" />
<path fill="#f3b623" opacity="1.00" d=" M 1510.01 160.00 C 1530.00 159.99 1549.99 159.99 1570.00 160.00 C 1570.01 206.66 1569.99 253.33 1570.00 300.00 L 1510.00 300.00 C 1510.00 253.33 1509.98 206.67 1510.01 160.00 Z" />
<path fill="#f3b623" opacity="1.00" d=" M 1810.01 180.00 C 1829.99 179.99 1849.99 179.99 1870.00 180.00 C 1870.01 220.00 1869.99 260.00 1870.00 300.00 L 1810.00 300.00 C 1810.00 260.00 1809.98 220.00 1810.01 180.00 Z" />
<path fill="#f3b623" opacity="1.00" d=" M 1960.01 210.00 C 1979.99 209.99 1999.99 209.99 2020.00 210.00 C 2020.00 240.00 2020.00 270.00 2020.00 300.00 L 1960.00 300.00 C 1959.98 270.00 1959.99 240.00 1960.01 210.00 Z" />
<path fill="#f3b623" opacity="1.00" d=" M 2110.00 240.00 C 2129.99 240.00 2149.99 239.99 2170.00 240.00 L 2170.00 300.00 L 2110.00 300.00 C 2109.99 280.00 2109.98 260.00 2110.00 240.00 Z" />
</g>
</svg>