<svg width="28px" height="28px" viewBox="0 0 280 280" version="1.1" xmlns="http://www.w3.org/2000/svg">
<g id="#000000ff">
<path fill="#000000" opacity="1.00" d=" M 82.40 61.51 C 86.69 59.62 91.48 60.02 96.05 60.00 C 125.38 60.00 154.70 60.00 184.03 60.00 C 188.57 60.02 193.32 59.64 197.59 61.51 C 204.95 64.44 210.11 72.06 209.98 80.00 C 210.02 126.67 209.99 173.33 210.00 219.99 C 206.77 219.78 203.37 220.50 200.26 219.63 C 193.43 214.88 186.78 209.85 180.00 205.01 C 173.33 209.99 166.68 215.01 160.00 219.99 C 153.32 215.01 146.67 209.99 140.00 205.01 C 133.33 210.00 126.68 215.01 120.00 219.99 C 113.32 215.01 106.68 209.99 100.00 205.01 C 93.82 209.50 87.62 213.95 81.48 218.48 C 78.32 221.27 73.80 219.55 70.00 220.00 C 70.01 173.31 69.98 126.63 70.02 79.95 C 69.91 72.03 75.06 64.44 82.40 61.51 M 85.32 71.20 C 81.77 73.02 79.69 77.02 79.99 80.97 C 80.02 124.08 79.98 167.18 80.01 210.28 C 86.68 205.20 93.33 200.09 100.00 195.01 C 106.67 200.31 113.33 205.63 120.00 210.93 C 126.68 205.64 133.32 200.30 140.00 195.01 C 146.68 200.31 153.33 205.64 160.00 210.93 C 166.68 205.64 173.32 200.30 180.01 195.01 C 186.68 200.02 193.31 205.11 199.99 210.12 C 200.01 167.08 199.98 124.05 200.01 81.01 C 200.28 77.33 198.56 73.60 195.42 71.62 C 192.34 69.51 188.47 70.07 184.96 69.99 C 154.64 70.00 124.33 70.02 94.01 69.98 C 91.10 70.04 87.95 69.67 85.32 71.20 Z" />
<path fill="#000000" opacity="1.00" d=" M 103.16 90.36 C 104.71 89.85 106.38 90.04 108.00 89.98 C 130.39 90.07 152.78 89.91 175.17 90.05 C 178.47 89.97 180.97 93.75 179.67 96.77 C 178.86 99.07 176.37 100.24 174.04 100.00 C 150.98 99.96 127.93 100.07 104.88 99.95 C 99.61 100.20 98.21 91.99 103.16 90.36 Z" />
<path fill="#000000" opacity="1.00" d=" M 102.38 120.63 C 103.74 119.76 105.41 119.92 106.95 119.85 C 129.63 119.93 152.32 119.78 175.00 119.92 C 178.39 119.74 181.03 123.62 179.65 126.71 C 178.84 129.01 176.32 130.11 174.02 129.87 C 150.98 129.83 127.94 129.92 104.91 129.83 C 100.08 130.12 98.18 122.89 102.38 120.63 Z" />
<path fill="#000000" opacity="1.00" d=" M 103.20 150.34 C 104.76 149.86 106.42 150.03 108.03 149.98 C 130.40 150.06 152.78 149.92 175.15 150.05 C 178.43 149.96 180.94 153.69 179.69 156.72 C 178.90 159.06 176.36 160.25 174.01 160.00 C 150.98 159.97 127.96 160.06 104.94 159.96 C 99.61 160.27 98.18 151.95 103.20 150.34 Z" />
</g>
</svg>