<svg width="210px" height="55px" viewBox="0 0 420 110" version="1.1" xmlns="http://www.w3.org/2000/svg">
<g id="#292561fe">
<path fill="#292561" opacity="1.00" d=" M 50.36 0.00 L 57.69 0.00 C 60.81 3.92 64.19 7.61 67.27 11.56 C 58.75 9.07 49.64 9.31 41.18 11.93 C 41.61 11.77 42.48 11.45 42.91 11.29 C 45.13 7.56 47.41 3.87 49.52 0.08 C 49.73 0.06 50.15 0.02 50.36 0.00 Z" />
<path fill="#292561" opacity="1.00" d=" M 81.59 18.70 C 81.98 15.10 82.74 11.56 83.90 8.13 C 92.85 13.51 99.95 21.66 104.46 31.04 C 100.19 30.31 95.94 29.55 91.65 28.96 C 88.84 25.05 85.44 21.58 81.59 18.70 Z" />
<path fill="#292561" opacity="1.00" d=" M 124.57 18.82 C 128.88 18.98 133.37 18.20 137.51 19.74 C 139.75 20.94 139.96 23.76 139.99 26.01 C 140.01 28.57 139.87 31.93 137.12 33.12 C 134.27 34.20 131.14 33.62 128.18 33.52 C 128.11 36.48 128.10 39.45 128.12 42.42 C 126.86 42.52 125.59 42.63 124.33 42.73 C 124.42 34.76 123.99 26.77 124.57 18.82 M 127.83 21.79 C 127.75 24.73 127.74 27.66 127.73 30.59 C 130.19 30.58 132.72 30.86 135.12 30.18 C 137.27 28.11 136.23 24.97 135.62 22.48 C 133.05 21.96 130.44 21.73 127.83 21.79 Z" />
<path fill="#292561" opacity="1.00" d=" M 149.58 19.32 C 151.45 19.34 153.32 19.37 155.19 19.43 C 157.55 27.21 160.16 34.92 162.65 42.66 C 161.69 42.64 159.77 42.58 158.81 42.56 C 158.16 40.28 157.53 38.00 156.99 35.69 C 153.97 35.51 150.94 35.49 147.92 35.49 C 147.16 37.89 146.40 40.29 145.62 42.68 C 144.43 42.63 143.24 42.59 142.05 42.54 C 144.49 34.78 147.03 27.05 149.58 19.32 M 152.01 21.78 C 150.98 25.31 150.00 28.85 148.87 32.34 C 151.17 32.36 153.47 32.38 155.77 32.39 C 154.52 28.86 154.09 24.97 152.01 21.78 Z" />
<path fill="#292561" opacity="1.00" d=" M 162.92 19.35 C 164.16 19.33 165.40 19.31 166.64 19.29 C 168.52 23.02 170.36 26.76 172.15 30.53 C 174.16 26.91 176.00 23.19 177.69 19.41 C 179.04 19.38 180.38 19.35 181.73 19.33 C 179.50 23.60 177.37 27.91 175.19 32.19 C 173.40 35.38 174.22 39.17 173.95 42.65 C 172.75 42.62 171.56 42.60 170.37 42.57 C 170.34 39.76 170.62 36.91 170.15 34.11 C 168.02 29.07 165.21 24.33 162.92 19.35 Z" />
<path fill="#292561" opacity="1.00" d=" M 41.68 40.68 C 43.92 40.65 46.15 40.63 48.39 40.61 C 50.81 47.28 52.64 54.16 54.64 60.97 C 54.83 61.79 55.25 62.44 55.92 62.94 C 57.97 55.45 60.15 47.98 62.66 40.63 C 64.89 40.64 67.13 40.64 69.36 40.65 C 70.04 50.21 70.32 59.79 70.76 69.37 C 69.78 69.36 67.82 69.33 66.85 69.32 C 66.21 60.74 66.77 52.01 65.57 43.51 C 62.65 50.91 61.14 58.79 58.32 66.24 C 56.45 66.22 54.59 66.22 52.73 66.21 C 50.02 58.74 48.24 50.98 45.66 43.47 C 44.16 51.99 44.98 60.70 44.28 69.30 C 43.29 69.31 41.33 69.35 40.34 69.37 C 40.82 59.81 41.03 50.24 41.68 40.68 Z" />
</g>
<g id="#2a3b90ff">
<path fill="#2a3b90" opacity="1.00" d=" M 57.69 0.00 L 59.50 0.00 C 68.12 0.81 76.55 3.54 83.90 8.13 C 82.74 11.56 81.98 15.10 81.59 18.70 C 77.26 15.54 72.41 13.09 67.27 11.56 C 64.19 7.61 60.81 3.92 57.69 0.00 Z" />
<path fill="#2a3b90" opacity="1.00" d=" M 91.65 28.96 C 95.94 29.55 100.19 30.31 104.46 31.04 C 107.93 38.23 109.84 46.17 109.88 54.16 C 106.28 51.01 102.79 47.71 98.98 44.80 C 97.22 39.24 95.12 33.71 91.65 28.96 Z" />
</g>
<g id="#f79421ff">
<path fill="#f79421" opacity="1.00" d=" M 39.08 2.17 C 42.50 1.19 46.00 0.52 49.52 0.08 C 47.41 3.87 45.13 7.56 42.91 11.29 C 42.48 11.45 41.61 11.77 41.18 11.93 L 40.40 12.21 C 39.97 8.86 39.53 5.51 39.08 2.17 Z" />
<path fill="#f79421" opacity="1.00" d=" M 14.70 17.26 C 16.30 15.58 17.99 13.96 19.76 12.47 C 24.77 13.00 29.76 13.67 34.70 14.62 C 27.99 18.10 22.11 23.15 17.81 29.39 C 16.83 25.33 15.81 21.28 14.70 17.26 Z" />
<path fill="#f79421" opacity="1.00" d=" M 0.00 50.39 C 0.62 44.04 2.21 37.78 4.85 31.95 C 7.20 34.99 9.60 37.98 12.05 40.94 C 10.35 46.47 9.39 52.30 9.81 58.10 C 6.54 58.37 3.27 58.65 0.00 58.99 L 0.00 50.39 Z" />
<path fill="#f79421" opacity="1.00" d=" M 99.61 82.90 C 99.64 85.74 97.19 87.54 95.37 89.35 C 90.12 94.10 85.04 99.03 80.02 104.02 C 75.69 106.36 70.99 107.95 66.18 108.96 C 65.81 105.63 65.43 102.30 65.02 98.98 C 72.76 97.19 79.97 93.28 85.75 87.84 C 90.08 86.98 94.51 86.27 98.52 84.34 C 98.79 83.98 99.33 83.26 99.61 82.90 Z" />
<path fill="#f79421" opacity="1.00" d=" M 28.04 98.23 C 29.26 96.70 30.59 95.26 31.90 93.81 C 34.06 95.10 36.33 96.19 38.66 97.15 C 35.31 97.92 31.99 98.81 28.61 99.46 L 28.18 99.30 C 28.14 99.03 28.07 98.49 28.04 98.23 Z" />
</g>
<g id="#ef4435ff">
<path fill="#ef4435" opacity="1.00" d=" M 19.76 12.47 C 25.46 7.82 32.03 4.26 39.08 2.17 C 39.53 5.51 39.97 8.86 40.40 12.21 C 38.47 12.93 36.56 13.72 34.70 14.62 C 29.76 13.67 24.77 13.00 19.76 12.47 Z" />
<path fill="#ef4435" opacity="1.00" d=" M 123.53 64.06 C 123.60 60.85 123.46 57.58 124.59 54.51 C 127.76 54.51 130.94 54.51 134.12 54.56 C 137.66 64.55 140.00 74.93 143.19 85.03 C 145.62 76.37 148.16 67.73 150.57 59.06 C 150.98 57.43 151.71 55.91 152.53 54.45 C 155.75 54.50 158.98 54.48 162.20 54.72 C 163.12 67.68 163.17 80.69 164.13 93.64 C 162.18 93.63 160.24 93.64 158.30 93.64 C 157.39 86.80 157.73 79.89 157.40 73.01 C 157.09 68.25 157.73 63.36 156.28 58.74 C 153.05 68.59 150.76 78.73 147.54 88.59 C 144.60 89.36 141.55 89.39 138.63 88.49 C 136.13 79.94 133.65 71.38 131.29 62.79 C 130.92 61.38 130.31 60.05 129.57 58.80 C 129.18 70.39 128.34 81.97 128.32 93.57 C 126.36 93.61 124.40 93.63 122.44 93.65 C 122.41 83.77 123.49 73.94 123.53 64.06 Z" />
<path fill="#ef4435" opacity="1.00" d=" M 183.89 54.56 C 186.73 54.52 189.56 54.51 192.40 54.47 C 194.25 58.06 195.15 62.01 196.45 65.81 C 199.48 75.07 202.45 84.34 205.53 93.58 C 203.51 93.62 201.49 93.64 199.48 93.67 C 198.20 89.76 196.95 85.83 196.01 81.83 C 190.93 81.69 185.86 81.77 180.78 81.75 C 179.57 85.68 178.33 89.59 177.24 93.55 C 175.17 93.60 173.10 93.63 171.03 93.64 C 175.46 80.66 179.40 67.52 183.89 54.56 M 187.69 59.28 C 185.86 65.05 184.16 70.87 182.33 76.64 C 186.26 76.67 190.18 76.65 194.11 76.68 C 192.86 71.41 191.05 66.30 189.55 61.11 C 189.20 60.24 189.01 58.61 187.69 59.28 Z" />
<path fill="#ef4435" opacity="1.00" d=" M 213.71 54.61 C 216.55 54.52 219.41 54.51 222.26 54.48 C 228.04 65.50 232.49 77.19 238.09 88.31 C 238.11 77.06 238.34 65.79 237.87 54.56 C 239.85 54.53 241.84 54.53 243.83 54.54 C 243.49 67.50 244.10 80.49 243.52 93.44 C 240.59 93.65 237.65 93.65 234.72 93.51 C 229.41 82.31 224.25 71.03 219.36 59.63 C 219.24 70.94 219.30 82.25 219.33 93.56 C 217.35 93.60 215.36 93.62 213.38 93.63 C 213.65 80.63 213.03 67.60 213.71 54.61 Z" />
<path fill="#ef4435" opacity="1.00" d=" M 255.78 54.57 C 261.80 54.26 267.84 53.96 273.87 54.31 C 277.60 54.49 281.42 56.44 283.05 59.93 C 285.94 65.81 285.43 72.60 285.30 78.96 C 284.90 84.05 283.61 90.23 278.52 92.64 C 271.26 95.71 263.34 93.37 255.78 93.56 C 255.81 80.56 255.81 67.56 255.78 54.57 M 261.72 59.23 C 261.60 69.02 261.79 78.80 261.61 88.58 C 265.90 88.64 270.30 89.53 274.49 88.25 C 279.10 85.66 279.05 79.66 279.32 75.04 C 279.16 70.11 279.57 64.06 275.52 60.48 C 271.38 58.14 266.26 59.70 261.72 59.23 Z" />
<path fill="#ef4435" opacity="1.00" d=" M 291.48 93.60 C 296.30 80.72 299.69 67.32 304.63 54.49 C 307.47 54.51 310.31 54.52 313.16 54.56 C 317.77 67.45 321.79 80.56 326.03 93.58 C 324.03 93.62 322.02 93.63 320.02 93.65 C 318.80 89.68 317.59 85.71 316.37 81.74 C 311.40 81.75 306.42 81.79 301.44 81.71 C 300.03 85.62 298.91 89.64 297.72 93.63 C 295.64 93.63 293.55 93.62 291.48 93.60 M 308.33 59.25 C 306.32 64.97 304.67 70.82 303.01 76.65 C 306.95 76.67 310.90 76.65 314.84 76.66 C 313.01 70.87 311.37 65.02 309.45 59.27 C 309.17 59.26 308.61 59.26 308.33 59.25 Z" />
<path fill="#ef4435" opacity="1.00" d=" M 333.75 54.60 C 339.77 54.08 345.85 54.03 351.89 54.33 C 355.40 54.39 358.94 56.63 359.80 60.16 C 361.52 65.71 360.84 74.15 353.89 75.49 C 355.31 76.55 356.94 77.58 357.55 79.36 C 359.33 84.00 360.39 88.88 361.95 93.60 C 359.83 93.62 357.71 93.63 355.60 93.64 C 353.98 88.80 353.61 83.44 351.04 78.99 C 347.91 76.43 343.41 78.07 339.71 77.66 C 339.74 82.98 339.66 88.29 339.78 93.61 C 337.77 93.61 335.75 93.59 333.74 93.55 C 334.61 85.41 333.96 77.22 334.15 69.06 C 334.09 64.23 334.42 59.39 333.75 54.60 M 339.69 59.32 C 339.73 63.70 339.72 68.07 339.70 72.45 C 344.25 72.45 349.01 73.13 353.32 71.26 C 354.83 67.60 355.75 62.20 351.88 59.65 C 347.87 58.86 343.74 59.36 339.69 59.32 Z" />
<path fill="#ef4435" opacity="1.00" d=" M 371.54 54.53 C 373.52 54.52 375.50 54.52 377.48 54.52 C 377.43 67.55 377.40 80.57 377.50 93.59 C 375.51 93.61 373.52 93.62 371.54 93.61 C 371.61 80.58 371.60 67.55 371.54 54.53 Z" />
<path fill="#ef4435" opacity="1.00" d=" M 389.82 55.87 C 391.74 53.28 395.96 54.62 398.76 54.91 C 404.46 65.81 408.92 77.36 414.36 88.42 C 414.45 77.12 414.42 65.83 414.35 54.53 C 416.23 54.52 418.11 54.52 420.00 54.52 L 420.00 93.29 C 417.06 93.62 414.03 93.97 411.13 93.28 C 409.91 91.62 409.12 89.71 408.27 87.86 C 404.14 78.46 399.73 69.19 395.61 59.78 C 395.33 71.06 395.53 82.34 395.52 93.62 C 393.54 93.62 391.56 93.61 389.59 93.60 C 389.81 81.03 389.32 68.43 389.82 55.87 Z" />
<path fill="#ef4435" opacity="1.00" d=" M 0.00 58.99 C 3.27 58.65 6.54 58.37 9.81 58.10 C 9.93 59.13 10.07 60.17 10.24 61.20 C 7.05 62.42 3.90 63.73 0.78 65.11 C 0.46 63.30 0.19 61.48 0.00 59.65 L 0.00 58.99 Z" />
<path fill="#ef4435" opacity="1.00" d=" M 99.02 64.25 C 102.41 64.31 105.79 64.31 109.18 64.27 C 106.30 81.07 95.37 96.43 80.02 104.02 C 85.04 99.03 90.12 94.10 95.37 89.35 C 97.19 87.54 99.64 85.74 99.61 82.90 C 98.99 78.81 97.95 74.81 97.10 70.76 C 97.86 68.63 98.49 66.45 99.02 64.25 Z" />
<path fill="#ef4435" opacity="1.00" d=" M 85.75 87.84 C 88.26 85.41 90.51 82.73 92.46 79.84 C 94.48 81.33 96.51 82.83 98.52 84.34 C 94.51 86.27 90.08 86.98 85.75 87.84 Z" />
<path fill="#ef4435" opacity="1.00" d=" M 27.07 90.44 C 28.63 91.64 30.23 92.77 31.90 93.81 C 30.59 95.26 29.26 96.70 28.04 98.23 C 27.70 95.63 27.39 93.04 27.07 90.44 Z" />
<path fill="#ef4435" opacity="1.00" d=" M 28.61 99.46 C 31.99 98.81 35.31 97.92 38.66 97.15 C 47.03 100.32 56.30 101.17 65.02 98.98 C 65.43 102.30 65.81 105.63 66.18 108.96 C 64.00 109.39 61.80 109.76 59.58 110.00 L 53.88 110.00 C 45.69 105.96 37.09 102.84 28.61 99.46 Z" />
</g>
<g id="#fbb141ff">
<path fill="#fbb141" opacity="1.00" d=" M 4.85 31.95 C 7.39 26.61 10.66 21.59 14.70 17.26 C 15.81 21.28 16.83 25.33 17.81 29.39 C 15.36 32.94 13.43 36.85 12.05 40.94 C 9.60 37.98 7.20 34.99 4.85 31.95 Z" />
<path fill="#fbb141" opacity="1.00" d=" M 98.98 44.80 C 102.79 47.71 106.28 51.01 109.88 54.16 C 109.91 57.54 109.68 60.92 109.18 64.27 C 105.79 64.31 102.41 64.31 99.02 64.25 C 100.28 57.84 100.04 51.22 98.98 44.80 Z" />
<path fill="#fbb141" opacity="1.00" d=" M 0.78 65.11 C 3.90 63.73 7.05 62.42 10.24 61.20 C 11.79 72.63 17.98 83.35 27.07 90.44 C 27.39 93.04 27.70 95.63 28.04 98.23 C 28.07 98.49 28.14 99.03 28.18 99.30 L 28.61 99.46 C 37.09 102.84 45.69 105.96 53.88 110.00 L 50.49 110.00 C 41.14 109.21 31.99 106.09 24.23 100.79 C 11.93 92.80 3.43 79.48 0.78 65.11 Z" />
<path fill="#fbb141" opacity="1.00" d=" M 92.46 79.84 C 94.33 76.99 95.88 73.94 97.10 70.76 C 97.95 74.81 98.99 78.81 99.61 82.90 C 99.33 83.26 98.79 83.98 98.52 84.34 C 96.51 82.83 94.48 81.33 92.46 79.84 Z" />
</g>
</svg>