<svg width="89px" height="70px" viewBox="0 0 890 700" version="1.1" xmlns="http://www.w3.org/2000/svg">
<g id="#984c19a6">
<path fill="#984c19" opacity="0.65" d=" M 422.12 0.00 L 457.54 0.00 L 456.53 0.18 L 455.57 0.23 C 446.72 0.40 437.82 -0.37 429.03 0.90 C 426.06 1.20 423.08 1.20 420.11 1.45 C 405.95 2.91 391.92 5.60 378.16 9.26 C 376.43 9.73 374.66 10.00 372.89 10.25 C 386.40 5.40 400.74 3.17 414.94 1.29 C 417.32 0.84 420.00 1.41 422.12 0.00 Z" />
</g>
<g id="#f15a2aff">
<path fill="#f15a2a" opacity="1.00" d=" M 420.11 1.45 C 423.08 1.20 426.06 1.20 429.03 0.90 C 437.82 -0.37 446.72 0.40 455.57 0.23 C 466.47 13.65 478.55 26.07 489.91 39.10 C 493.08 42.79 496.70 46.11 499.40 50.18 C 479.08 44.70 458.00 42.43 436.98 43.32 C 422.38 43.52 407.99 46.36 393.78 49.39 C 393.20 49.17 392.06 48.74 391.49 48.53 C 400.88 32.75 410.66 17.19 420.11 1.45 Z" />
<path fill="#f15a2a" opacity="1.00" d=" M 578.22 37.45 C 620.00 63.02 654.18 100.86 675.14 145.15 C 659.63 141.98 644.39 137.65 628.94 134.17 C 624.85 133.30 620.85 131.83 616.62 131.77 C 603.18 112.85 586.61 96.17 567.81 82.56 C 571.43 67.56 574.26 52.37 578.22 37.45 Z" />
<path fill="#f15a2a" opacity="1.00" d=" M 191.06 273.74 C 205.97 271.34 220.92 269.22 235.80 266.69 C 236.36 272.54 236.59 278.43 237.62 284.23 C 223.19 290.06 209.12 296.76 194.83 302.95 C 193.00 293.30 191.39 283.57 191.06 273.74 Z" />
<path fill="#f15a2a" opacity="1.00" d=" M 650.76 297.66 C 665.96 297.53 681.17 297.48 696.37 297.69 C 691.10 328.04 680.60 357.57 664.80 384.06 C 659.93 386.42 656.31 390.76 652.22 394.24 L 652.04 393.10 C 648.14 371.76 645.03 350.28 640.91 328.99 C 643.59 322.11 645.93 315.10 647.83 307.96 C 649.20 304.65 649.94 301.13 650.76 297.66 Z" />
<path fill="#f15a2a" opacity="1.00" d=" M 584.42 409.89 C 597.76 398.40 609.23 384.86 619.22 370.40 C 629.81 378.23 640.56 385.85 651.27 393.52 C 647.64 395.81 643.27 396.16 639.22 397.28 C 622.61 401.44 605.92 405.25 589.33 409.43 C 587.72 409.81 586.05 409.81 584.42 409.89 Z" />
<path fill="#f15a2a" opacity="1.00" d=" M 315.14 417.20 C 323.03 423.48 331.35 429.25 340.10 434.26 C 335.15 438.97 331.31 444.67 326.82 449.80 C 324.65 452.60 321.86 455.01 320.49 458.35 C 322.33 458.37 324.18 458.33 326.01 458.05 C 338.49 456.22 350.96 454.31 363.43 452.45 C 366.97 451.99 370.54 451.55 373.91 450.29 C 411.87 463.88 453.64 466.39 492.93 457.28 C 495.25 471.36 497.14 485.50 499.36 499.59 C 499.67 501.08 500.26 502.49 500.77 503.94 C 482.27 508.08 463.28 510.41 444.30 509.90 C 416.90 498.34 389.14 487.66 361.63 476.35 C 347.67 470.62 333.52 465.32 319.69 459.29 C 317.84 445.30 316.74 431.21 315.14 417.20 Z" />
</g>
<g id="#f89520ff">
<path fill="#f89520" opacity="1.00" d=" M 455.57 0.23 L 456.53 0.18 C 499.39 1.81 541.69 15.03 578.22 37.45 C 574.26 52.37 571.43 67.56 567.81 82.56 C 547.18 67.81 523.95 56.63 499.40 50.18 C 496.70 46.11 493.08 42.79 489.91 39.10 C 478.55 26.07 466.47 13.65 455.57 0.23 Z" />
<path fill="#f89520" opacity="1.00" d=" M 259.06 80.08 C 266.71 71.92 274.98 64.36 283.60 57.25 C 305.81 60.40 328.10 62.88 350.31 65.98 C 319.15 81.84 292.16 105.66 272.35 134.46 C 271.63 132.21 270.95 129.95 270.45 127.65 C 267.49 113.05 264.21 98.52 261.17 83.94 C 260.99 82.40 260.30 81.02 259.06 80.08 Z" />
<path fill="#f89520" opacity="1.00" d=" M 616.62 131.77 C 620.85 131.83 624.85 133.30 628.94 134.17 C 644.39 137.65 659.63 141.98 675.14 145.15 C 690.51 177.61 699.34 213.37 699.71 249.33 C 687.04 239.09 675.31 227.68 662.94 217.05 C 660.10 214.65 657.56 211.92 654.73 209.51 C 654.18 209.55 653.08 209.65 652.54 209.70 C 652.54 209.48 652.56 209.06 652.56 208.85 C 651.79 208.61 651.01 208.40 650.24 208.19 C 644.54 180.74 632.73 154.67 616.62 131.77 Z" />
<path fill="#f89520" opacity="1.00" d=" M 190.84 231.53 C 193.48 203.47 200.67 175.78 212.36 150.11 C 215.96 153.06 218.53 156.97 221.46 160.53 C 228.24 169.07 235.12 177.53 241.85 186.11 C 242.88 187.41 244.18 188.43 245.45 189.47 C 244.10 193.84 242.88 198.24 241.78 202.68 C 237.59 216.00 236.32 230.04 235.38 243.91 C 235.10 251.50 235.03 259.12 235.80 266.69 C 220.92 269.22 205.97 271.34 191.06 273.74 C 190.76 271.46 190.36 269.19 190.18 266.90 C 190.01 255.11 189.78 243.29 190.84 231.53 Z" />
<path fill="#f89520" opacity="1.00" d=" M 651.27 393.52 L 652.04 393.10 L 652.22 394.24 C 645.76 401.09 638.58 407.21 631.87 413.80 C 615.25 429.53 598.63 445.26 581.99 460.97 C 574.34 468.42 566.27 475.47 558.89 483.18 C 540.54 492.62 520.86 499.33 500.77 503.94 C 500.26 502.49 499.67 501.08 499.36 499.59 C 497.14 485.50 495.25 471.36 492.93 457.28 C 526.74 449.44 558.54 433.01 584.42 409.89 C 586.05 409.81 587.72 409.81 589.33 409.43 C 605.92 405.25 622.61 401.44 639.22 397.28 C 643.27 396.16 647.64 395.81 651.27 393.52 Z" />
<path fill="#f89520" opacity="1.00" d=" M 326.82 449.80 C 331.31 444.67 335.15 438.97 340.10 434.26 C 350.81 440.73 362.32 445.68 373.91 450.29 C 370.54 451.55 366.97 451.99 363.43 452.45 C 350.96 454.31 338.49 456.22 326.01 458.05 C 324.18 458.33 322.33 458.37 320.49 458.35 C 321.86 455.01 324.65 452.60 326.82 449.80 Z" />
</g>
<g id="#e38b25ff">
<path fill="#e38b25" opacity="1.00" d=" M 378.16 9.26 C 391.92 5.60 405.95 2.91 420.11 1.45 C 410.66 17.19 400.88 32.75 391.49 48.53 C 392.06 48.74 393.20 49.17 393.78 49.39 C 388.34 51.41 382.35 52.50 376.85 54.65 C 374.96 39.95 374.07 25.14 372.20 10.45 C 372.38 10.40 372.72 10.30 372.89 10.25 C 374.66 10.00 376.43 9.73 378.16 9.26 Z" />
</g>
<g id="#ef4137ff">
<path fill="#ef4137" opacity="1.00" d=" M 283.60 57.25 C 309.63 35.98 339.90 19.81 372.20 10.45 C 374.07 25.14 374.96 39.95 376.85 54.65 C 367.73 57.74 358.93 61.71 350.31 65.98 C 328.10 62.88 305.81 60.40 283.60 57.25 Z" />
<path fill="#ef4137" opacity="1.00" d=" M 385.84 189.89 C 387.12 188.39 389.13 188.35 390.95 188.41 C 397.65 188.45 404.35 188.37 411.05 188.44 C 414.04 188.47 416.15 191.17 416.91 193.84 C 422.15 210.48 426.99 227.25 432.15 243.92 C 432.67 246.04 433.68 248.04 433.76 250.27 C 433.94 250.34 434.30 250.49 434.47 250.56 C 434.56 251.18 434.72 252.43 434.81 253.05 C 439.26 266.31 442.97 279.87 446.84 293.32 C 448.63 293.82 450.40 293.13 450.49 291.06 C 452.82 282.03 455.10 272.82 458.30 264.13 C 465.09 240.67 472.62 217.37 479.59 193.94 C 480.25 191.06 482.90 188.35 485.99 188.44 C 492.66 188.38 499.33 188.43 506.01 188.41 C 509.21 188.06 512.85 190.53 512.72 193.97 C 514.99 236.41 516.57 278.98 518.42 321.49 C 512.74 321.69 507.04 321.56 501.36 321.56 C 500.74 303.01 499.63 284.53 499.31 265.97 C 498.26 256.31 498.56 246.48 498.24 236.74 C 496.97 234.39 497.98 231.54 497.58 228.99 C 497.73 220.12 496.50 211.41 496.50 202.56 C 495.58 202.59 493.74 202.66 492.82 202.70 C 482.99 235.57 473.06 268.40 463.23 301.27 C 462.53 304.48 459.31 306.73 456.08 306.56 C 449.99 306.56 443.89 306.78 437.81 306.38 C 435.70 305.17 433.80 303.41 433.09 301.03 C 432.40 299.78 432.76 298.15 431.76 297.07 C 422.88 266.27 413.28 235.62 404.23 204.85 C 404.07 202.81 402.30 202.19 400.49 202.47 C 399.43 204.87 399.79 207.48 399.69 210.02 C 398.64 238.32 397.52 266.60 396.51 294.87 C 396.12 297.87 396.88 301.03 395.84 303.91 C 395.81 309.79 395.55 315.66 395.56 321.54 C 389.84 321.62 384.12 321.57 378.40 321.57 C 378.35 315.33 378.78 309.10 378.75 302.86 L 379.24 302.09 C 379.74 293.42 379.12 284.66 380.34 276.06 C 380.53 267.70 380.70 259.34 380.86 250.98 C 382.33 243.79 381.01 236.27 382.15 229.04 C 382.87 219.74 382.26 210.32 383.38 201.05 C 383.67 197.29 382.54 192.65 385.84 189.89 Z" />
<path fill="#ef4137" opacity="1.00" d=" M 652.22 394.24 C 656.31 390.76 659.93 386.42 664.80 384.06 C 662.73 387.85 660.36 391.46 658.12 395.15 C 657.58 395.49 656.50 396.18 655.97 396.52 C 654.87 396.40 653.63 395.28 652.59 395.91 C 653.22 397.92 653.80 399.99 653.28 402.11 C 629.02 436.25 596.54 464.70 558.89 483.18 C 566.27 475.47 574.34 468.42 581.99 460.97 C 598.63 445.26 615.25 429.53 631.87 413.80 C 638.58 407.21 645.76 401.09 652.22 394.24 Z" />
<path fill="#ef4137" opacity="1.00" d=" M 400.65 581.91 C 411.10 581.42 421.53 580.73 432.00 580.59 C 444.16 580.48 457.16 579.73 468.22 585.74 C 475.14 589.41 479.88 596.12 482.53 603.37 C 486.07 613.16 486.82 623.66 487.27 633.97 C 487.38 648.22 487.35 662.86 482.66 676.48 C 479.88 684.81 473.93 692.31 465.72 695.77 C 455.79 700.12 444.65 699.93 434.03 699.63 C 422.87 699.65 411.74 698.95 400.61 698.27 C 400.64 659.49 400.56 620.70 400.65 581.91 M 415.54 593.75 C 415.53 624.61 415.53 655.48 415.54 686.35 C 425.59 686.54 435.65 686.69 445.71 686.54 C 450.93 686.11 456.41 684.95 460.58 681.56 C 465.16 678.02 467.67 672.52 469.07 667.04 C 471.84 656.30 471.69 645.09 471.57 634.09 C 471.14 623.55 470.55 612.30 464.77 603.13 C 460.55 596.48 452.45 593.78 444.93 593.52 C 435.13 593.23 425.34 593.70 415.54 593.75 Z" />
<path fill="#ef4137" opacity="1.00" d=" M 634.33 582.19 C 649.07 580.17 664.05 580.57 678.91 580.57 C 687.83 580.97 697.81 581.98 704.54 588.51 C 711.15 595.18 711.87 605.17 712.14 614.04 C 711.87 621.28 711.44 629.04 707.23 635.24 C 703.58 640.73 696.99 643.47 690.60 644.04 C 691.85 645.80 694.26 645.74 695.82 647.16 C 701.48 651.05 704.24 657.69 705.82 664.14 C 709.35 675.53 712.75 686.96 716.38 698.32 C 711.00 698.20 705.61 698.48 700.25 698.17 C 697.50 688.45 694.78 678.73 692.02 669.02 C 690.45 663.47 689.29 657.29 684.85 653.22 C 681.38 650.04 676.46 649.56 671.98 649.75 C 664.38 649.92 656.78 649.53 649.21 649.72 C 649.41 665.91 649.24 682.11 649.29 698.31 C 644.36 698.32 639.42 698.24 634.49 698.36 C 634.21 659.64 634.54 620.91 634.33 582.19 M 649.31 593.55 C 649.26 607.96 649.34 622.37 649.27 636.78 C 656.83 636.82 664.40 636.78 671.96 636.80 C 678.43 636.77 685.52 636.92 691.02 632.99 C 696.11 629.02 696.76 622.04 696.87 616.06 C 696.80 610.42 696.87 604.17 693.34 599.43 C 689.78 594.80 683.55 593.84 678.09 593.54 C 668.50 593.19 658.90 593.56 649.31 593.55 Z" />
<path fill="#ef4137" opacity="1.00" d=" M 4.88 588.01 C 4.90 585.21 6.83 582.26 9.83 582.16 C 16.23 582.08 22.65 582.11 29.05 582.15 C 31.67 582.12 33.60 584.43 34.19 586.81 C 39.11 602.88 44.04 618.95 48.94 635.02 C 52.71 647.79 57.13 660.40 60.15 673.38 C 60.91 673.40 62.44 673.44 63.21 673.46 C 67.84 655.11 73.96 637.19 79.36 619.06 C 82.72 608.23 86.03 597.38 89.36 586.54 C 90.00 584.07 92.33 582.00 94.95 582.13 C 101.01 582.12 107.07 582.11 113.12 582.13 C 115.87 581.98 118.29 584.42 118.39 587.12 C 120.02 624.18 121.68 661.25 123.31 698.31 C 118.35 698.31 113.40 698.27 108.45 698.33 C 106.83 663.75 105.58 629.16 104.21 594.56 C 103.35 594.55 101.63 594.51 100.77 594.49 C 92.02 623.48 83.35 652.50 74.44 681.44 C 72.33 686.36 66.25 685.11 61.98 685.21 C 57.44 685.07 50.88 686.49 48.77 681.12 C 39.87 652.29 31.32 623.35 22.49 594.49 C 21.43 594.49 20.37 594.49 19.31 594.51 C 18.00 629.11 16.64 663.71 15.26 698.31 C 10.30 698.30 5.34 698.28 0.39 698.32 C 1.75 661.55 3.42 624.78 4.88 588.01 Z" />
<path fill="#ef4137" opacity="1.00" d=" M 183.66 585.91 C 184.23 583.62 186.55 581.92 188.91 582.12 C 194.28 582.12 199.65 582.12 205.02 582.12 C 207.33 581.94 209.56 583.62 210.22 585.81 C 222.73 623.31 235.19 660.83 247.70 698.33 C 242.48 698.23 237.26 698.41 232.05 698.22 C 228.42 686.21 224.65 674.23 220.75 662.31 L 220.02 661.90 C 204.65 661.86 189.28 661.88 173.91 661.89 L 173.13 662.38 C 169.18 674.28 165.56 686.30 161.78 698.27 C 156.61 698.35 151.44 698.26 146.28 698.32 C 158.65 660.83 171.19 623.38 183.66 585.91 M 177.41 648.93 C 190.43 648.76 203.47 648.80 216.50 648.91 C 210.98 630.39 204.72 612.09 199.17 593.57 C 197.68 593.57 196.19 593.57 194.71 593.57 C 189.18 612.10 182.94 630.41 177.41 648.93 Z" />
<path fill="#ef4137" opacity="1.00" d=" M 272.88 588.04 C 272.70 585.15 274.73 581.97 277.89 582.14 C 283.28 582.10 288.68 582.10 294.08 582.14 C 296.63 582.20 298.54 584.31 299.42 586.55 C 314.65 618.95 330.18 651.22 345.30 683.67 C 345.94 683.72 347.21 683.81 347.85 683.85 C 347.15 649.96 347.67 616.03 347.52 582.12 C 352.44 582.12 357.37 582.11 362.29 582.13 C 362.30 619.06 362.28 655.99 362.31 692.92 C 362.54 695.84 359.87 698.38 357.00 698.29 C 351.99 698.33 346.98 698.28 341.97 698.31 C 339.25 698.46 336.76 696.69 335.75 694.22 C 325.69 673.01 315.59 651.83 305.51 630.64 C 300.31 619.18 294.20 608.10 289.79 596.30 C 289.20 596.20 288.02 596.00 287.44 595.90 C 288.31 630.01 287.59 664.16 287.84 698.29 C 282.86 698.30 277.88 698.33 272.89 698.27 C 272.91 661.52 272.91 624.78 272.88 588.04 Z" />
<path fill="#ef4137" opacity="1.00" d=" M 545.28 585.49 C 545.93 583.53 547.92 582.08 550.00 582.13 C 555.70 582.13 561.42 582.08 567.13 582.15 C 569.32 582.22 571.30 583.90 571.78 586.04 C 584.20 623.47 596.72 660.86 609.12 698.30 C 603.97 698.33 598.83 698.25 593.69 698.34 C 589.79 686.24 586.03 674.08 582.21 661.96 C 568.16 661.81 554.10 661.91 540.04 661.88 C 538.19 661.89 536.30 661.67 534.51 662.22 C 530.83 674.28 526.99 686.30 523.17 698.32 C 518.00 698.30 512.84 698.26 507.67 698.34 C 520.24 660.74 532.70 623.09 545.28 585.49 M 556.04 593.70 C 550.78 612.21 544.30 630.36 538.94 648.83 C 551.97 648.84 565.00 648.84 578.04 648.83 C 572.15 630.37 566.51 611.81 560.36 593.45 C 558.91 593.52 557.47 593.60 556.04 593.70 Z" />
<path fill="#ef4137" opacity="1.00" d=" M 747.42 582.21 C 752.39 582.02 757.37 582.17 762.35 582.13 C 762.34 620.86 762.36 659.60 762.34 698.33 C 757.42 698.30 752.50 698.23 747.59 698.37 C 747.29 659.66 747.64 620.93 747.42 582.21 Z" />
<path fill="#ef4137" opacity="1.00" d=" M 800.72 587.93 C 800.44 585.34 802.18 582.51 804.90 582.20 C 810.27 582.01 815.66 582.16 821.04 582.12 C 823.65 581.91 826.00 583.73 826.96 586.08 C 842.34 618.65 857.80 651.18 873.17 683.76 C 873.82 683.77 875.13 683.78 875.78 683.79 C 875.50 679.22 875.40 674.65 875.28 670.08 C 875.23 640.77 875.33 611.46 875.24 582.16 C 880.15 582.09 885.07 582.11 890.00 582.15 L 890.00 694.27 C 889.36 696.50 887.40 698.29 885.01 698.27 C 879.64 698.33 874.28 698.35 868.92 698.26 C 866.27 698.18 864.27 696.11 863.31 693.80 C 850.74 667.32 838.13 640.86 825.53 614.39 C 822.76 608.37 819.61 602.50 817.55 596.18 C 816.95 596.15 815.73 596.08 815.13 596.05 C 816.15 611.01 815.47 626.02 815.67 641.01 C 815.58 660.14 815.84 679.27 815.54 698.39 C 810.60 698.22 805.66 698.33 800.73 698.30 C 800.71 661.51 800.74 624.72 800.72 587.93 Z" />
</g>
<g id="#fbb041ff">
<path fill="#fbb041" opacity="1.00" d=" M 212.36 150.11 C 223.82 124.34 239.92 100.75 259.06 80.08 C 260.30 81.02 260.99 82.40 261.17 83.94 C 264.21 98.52 267.49 113.05 270.45 127.65 C 270.95 129.95 271.63 132.21 272.35 134.46 C 260.81 151.39 251.71 169.97 245.45 189.47 C 244.18 188.43 242.88 187.41 241.85 186.11 C 235.12 177.53 228.24 169.07 221.46 160.53 C 218.53 156.97 215.96 153.06 212.36 150.11 Z" />
<path fill="#fbb041" opacity="1.00" d=" M 652.54 209.70 C 653.08 209.65 654.18 209.55 654.73 209.51 C 657.56 211.92 660.10 214.65 662.94 217.05 C 675.31 227.68 687.04 239.09 699.71 249.33 C 700.12 265.52 699.10 281.72 696.37 297.69 C 681.17 297.48 665.96 297.53 650.76 297.66 C 656.62 271.30 657.21 243.76 652.51 217.17 C 652.34 214.68 652.38 212.18 652.54 209.70 Z" />
<path fill="#fbb041" opacity="1.00" d=" M 194.83 302.95 C 209.12 296.76 223.19 290.06 237.62 284.23 C 238.55 289.73 239.66 295.20 240.78 300.67 C 240.88 300.51 241.07 300.19 241.17 300.03 C 251.38 346.03 278.25 388.00 315.14 417.20 C 316.74 431.21 317.84 445.30 319.69 459.29 C 333.52 465.32 347.67 470.62 361.63 476.35 C 389.14 487.66 416.90 498.34 444.30 509.90 C 388.02 510.59 332.07 490.62 287.83 456.04 C 298.02 456.61 308.10 458.53 318.31 458.91 C 308.20 450.22 297.48 442.24 287.10 433.87 C 269.60 420.06 252.13 406.20 234.66 392.36 C 232.33 390.61 230.20 388.26 227.12 387.98 C 215.58 369.01 206.36 348.56 200.26 327.20 C 198.68 319.07 196.16 311.14 194.83 302.95 Z" />
<path fill="#fbb041" opacity="1.00" d=" M 619.22 370.40 C 627.95 357.44 635.21 343.54 640.91 328.99 C 645.03 350.28 648.14 371.76 652.04 393.10 L 651.27 393.52 C 640.56 385.85 629.81 378.23 619.22 370.40 Z" />
</g>
<g id="#804b1485">
<path fill="#804b14" opacity="0.52" d=" M 235.38 243.91 C 236.32 230.04 237.59 216.00 241.78 202.68 C 237.64 223.15 234.97 244.09 236.55 265.00 C 236.78 276.82 239.22 288.42 241.17 300.03 C 241.07 300.19 240.88 300.51 240.78 300.67 C 239.66 295.20 238.55 289.73 237.62 284.23 C 236.59 278.43 236.36 272.54 235.80 266.69 C 235.03 259.12 235.10 251.50 235.38 243.91 Z" />
</g>
<g id="#bf5f26c7">
<path fill="#bf5f26" opacity="0.78" d=" M 650.24 208.19 C 651.01 208.40 651.79 208.61 652.56 208.85 C 652.56 209.06 652.54 209.48 652.54 209.70 C 652.38 212.18 652.34 214.68 652.51 217.17 L 651.76 216.53 C 651.28 213.74 650.78 210.96 650.24 208.19 Z" />
</g>
<g id="#885a218b">
<path fill="#885a21" opacity="0.55" d=" M 651.76 216.53 L 652.51 217.17 C 657.21 243.76 656.62 271.30 650.76 297.66 C 649.94 301.13 649.20 304.65 647.83 307.96 C 649.20 300.96 650.94 294.03 651.98 286.97 C 655.95 263.69 655.38 239.81 651.76 216.53 Z" />
</g>
<g id="#86441a8c">
<path fill="#86441a" opacity="0.55" d=" M 190.18 266.90 C 190.36 269.19 190.76 271.46 191.06 273.74 C 191.39 283.57 193.00 293.30 194.83 302.95 C 196.16 311.14 198.68 319.07 200.26 327.20 C 198.55 324.05 197.98 320.48 197.04 317.07 C 194.21 306.24 192.61 295.14 191.09 284.06 C 190.63 278.35 189.84 272.64 190.18 266.90 Z" />
</g>
<g id="#f7d570ff">
<path fill="#f7d570" opacity="1.00" d=" M 227.12 387.98 C 230.20 388.26 232.33 390.61 234.66 392.36 C 252.13 406.20 269.60 420.06 287.10 433.87 C 297.48 442.24 308.20 450.22 318.31 458.91 C 308.10 458.53 298.02 456.61 287.83 456.04 C 263.70 437.27 243.07 414.06 227.12 387.98 Z" />
</g>
<g id="#a52127d0">
<path fill="#a52127" opacity="0.82" d=" M 652.59 395.91 C 653.63 395.28 654.87 396.40 655.97 396.52 C 656.50 396.18 657.58 395.49 658.12 395.15 C 656.71 397.61 655.01 399.88 653.28 402.11 C 653.80 399.99 653.22 397.92 652.59 395.91 Z" />
</g>
</svg>