<svg width="175px" height="50px" viewBox="0 0 875 250" version="1.1" xmlns="http://www.w3.org/2000/svg">
<g id="#ed9900ff">
<path fill="#ed9900" opacity="1.00" d=" M 130.16 0.00 L 131.38 0.00 C 134.50 0.76 137.70 1.18 140.92 1.10 C 157.78 2.95 173.94 9.23 188.44 17.89 C 187.04 25.66 185.52 33.40 183.54 41.03 C 179.71 38.46 175.90 35.79 171.58 34.11 C 165.05 30.77 158.25 27.95 151.21 25.90 C 150.13 24.03 149.01 22.16 147.51 20.59 C 141.42 13.73 135.25 6.96 129.25 0.02 L 130.16 0.00 Z" />
<path fill="#ed9900" opacity="1.00" d=" M 33.70 39.81 C 37.32 35.87 41.25 32.24 45.16 28.61 C 51.12 28.72 56.98 29.94 62.90 30.59 C 67.89 31.44 73.05 31.34 77.90 32.91 C 72.00 36.35 65.78 39.51 60.85 44.31 C 53.29 50.44 46.48 57.48 40.94 65.49 C 38.60 62.54 38.60 58.65 37.71 55.15 C 36.41 50.02 35.98 44.64 33.70 39.81 Z" />
<path fill="#ed9900" opacity="1.00" d=" M 207.25 65.75 C 208.51 65.04 209.95 64.93 211.32 65.38 C 219.28 67.43 227.28 69.33 235.32 71.05 C 235.28 70.54 235.22 69.51 235.19 68.99 C 237.45 73.47 239.45 78.08 241.01 82.86 C 241.24 83.44 241.70 84.59 241.93 85.16 C 244.41 93.48 246.55 101.95 247.35 110.61 C 246.94 113.80 246.75 117.03 246.86 120.25 C 238.53 114.47 231.49 107.16 223.70 100.73 C 222.81 97.19 221.74 93.69 220.13 90.40 C 216.89 81.69 212.69 73.31 207.25 65.75 Z" />
<path fill="#ed9900" opacity="1.00" d=" M 0.64 110.05 C 2.18 97.34 5.51 84.82 10.87 73.18 C 14.14 76.90 17.15 80.83 20.23 84.70 C 22.61 87.73 25.24 90.66 26.67 94.29 C 22.99 105.85 21.69 118.03 22.15 130.12 C 14.89 131.56 7.54 132.83 0.15 133.41 C 0.05 125.63 -0.20 117.81 0.64 110.05 Z" />
<path fill="#ed9900" opacity="1.00" d=" M 193.32 200.00 C 203.22 199.35 212.54 195.47 222.30 193.91 C 222.53 194.15 222.98 194.63 223.20 194.87 C 213.05 204.50 202.89 214.12 192.80 223.81 C 189.28 227.22 185.39 230.30 182.45 234.27 L 183.98 234.34 C 174.33 239.72 163.95 243.89 153.18 246.40 C 152.60 246.38 151.43 246.36 150.85 246.35 C 149.28 239.20 148.47 231.90 147.84 224.62 C 164.77 220.51 180.68 212.02 193.32 200.00 Z" />
<path fill="#ed9900" opacity="1.00" d=" M 63.83 223.96 C 66.52 220.26 68.87 216.00 72.90 213.57 C 77.72 216.47 82.84 218.85 88.11 220.81 C 80.01 221.81 71.95 223.11 63.83 223.96 Z" />
</g>
<g id="#7e623385">
<path fill="#7e6233" opacity="0.52" d=" M 131.38 0.00 L 139.84 0.00 L 140.92 1.10 C 137.70 1.18 134.50 0.76 131.38 0.00 Z" />
</g>
<g id="#da9000ff">
<path fill="#da9000" opacity="1.00" d=" M 84.90 6.07 C 93.52 3.27 102.42 1.33 111.44 0.40 C 107.88 9.23 101.35 16.50 97.67 25.27 C 95.31 25.93 92.98 26.68 90.67 27.48 C 89.92 20.14 89.72 12.72 88.39 5.46 C 87.52 5.61 85.77 5.92 84.90 6.07 Z" />
</g>
<g id="#e56021ff">
<path fill="#e56021" opacity="1.00" d=" M 111.44 0.40 C 117.37 -0.15 123.32 0.18 129.25 0.02 C 135.25 6.96 141.42 13.73 147.51 20.59 C 149.01 22.16 150.13 24.03 151.21 25.90 C 140.59 23.04 129.57 21.77 118.58 22.30 C 111.50 22.01 104.51 23.66 97.67 25.27 C 101.35 16.50 107.88 9.23 111.44 0.40 Z" />
<path fill="#e56021" opacity="1.00" d=" M 188.44 17.89 L 188.67 18.04 C 192.05 21.17 196.11 23.41 199.68 26.31 C 207.73 32.28 214.15 40.06 221.30 47.01 C 226.64 53.84 231.46 61.14 235.19 68.99 C 235.22 69.51 235.28 70.54 235.32 71.05 C 227.28 69.33 219.28 67.43 211.32 65.38 C 209.95 64.93 208.51 65.04 207.25 65.75 C 204.96 62.49 202.48 59.39 199.90 56.36 C 195.68 50.12 189.39 45.63 183.54 41.03 C 185.52 33.40 187.04 25.66 188.44 17.89 Z" />
<path fill="#e56021" opacity="1.00" d=" M 0.15 133.41 C 7.54 132.83 14.89 131.56 22.15 130.12 L 22.16 130.73 C 22.07 133.56 22.12 136.39 22.38 139.21 C 16.06 142.53 9.26 144.82 2.91 148.07 C 2.83 149.30 2.74 150.53 2.64 151.76 C 1.33 145.73 0.43 139.58 0.15 133.41 Z" />
<path fill="#e56021" opacity="1.00" d=" M 225.02 145.89 C 232.02 145.44 239.05 145.92 246.07 145.71 C 245.18 150.65 243.77 155.48 243.11 160.46 C 240.00 171.02 235.59 181.24 229.71 190.56 C 228.28 190.61 226.90 190.99 225.61 191.59 C 223.55 188.10 223.52 183.93 222.74 180.06 C 221.77 173.55 220.36 167.10 219.60 160.56 C 220.41 158.14 221.19 155.72 222.01 153.30 C 223.26 150.95 223.36 147.93 225.02 145.89 Z" />
<path fill="#e56021" opacity="1.00" d=" M 193.32 200.00 C 199.48 194.13 205.06 187.64 209.61 180.43 C 210.07 182.39 211.92 183.42 213.39 184.57 C 216.79 186.99 220.23 189.34 223.49 191.94 C 223.19 192.43 222.60 193.41 222.30 193.91 C 212.54 195.47 203.22 199.35 193.32 200.00 Z" />
<path fill="#e56021" opacity="1.00" d=" M 62.38 218.78 C 62.14 214.46 61.29 210.18 61.48 205.84 C 65.13 208.64 68.92 211.26 72.90 213.57 C 68.87 216.00 66.52 220.26 63.83 223.96 C 71.95 223.11 80.01 221.81 88.11 220.81 C 107.01 228.17 128.16 229.51 147.84 224.62 C 148.47 231.90 149.28 239.20 150.85 246.35 C 151.43 246.36 152.60 246.38 153.18 246.40 C 147.83 247.63 142.44 248.86 136.92 248.96 C 131.81 248.90 126.72 249.57 121.61 249.35 C 118.00 247.00 113.85 245.81 109.91 244.15 C 95.44 238.25 81.00 232.27 66.44 226.61 C 65.05 226.03 63.76 225.27 62.48 224.50 C 62.48 222.59 62.47 220.69 62.38 218.78 Z" />
</g>
<g id="#e34833ff">
<path fill="#e34833" opacity="1.00" d=" M 47.02 26.67 C 58.27 17.60 71.24 10.73 84.90 6.07 C 85.77 5.92 87.52 5.61 88.39 5.46 C 89.72 12.72 89.92 20.14 90.67 27.48 C 86.30 29.01 82.07 30.91 77.90 32.91 C 73.05 31.34 67.89 31.44 62.90 30.59 C 56.98 29.94 51.12 28.72 45.16 28.61 C 45.78 27.96 46.40 27.32 47.02 26.67 Z" />
<path fill="#e34833" opacity="1.00" d=" M 350.24 65.36 C 356.02 65.13 361.87 64.47 367.60 65.59 C 370.53 66.20 372.66 68.98 372.57 71.97 C 372.89 75.39 372.60 80.55 368.19 81.01 C 370.46 82.47 373.25 84.05 373.42 87.10 C 374.08 91.08 373.96 96.62 369.49 98.28 C 363.19 99.94 356.58 99.06 350.18 98.68 C 350.31 87.57 350.19 76.46 350.24 65.36 M 355.09 69.44 C 355.21 72.76 355.21 76.07 355.09 79.39 C 359.02 79.01 363.82 80.72 367.06 77.83 C 368.05 75.23 368.42 70.74 365.08 69.72 C 361.78 69.12 358.42 69.39 355.09 69.44 M 355.13 94.28 L 355.13 94.60 C 358.99 94.66 363.06 95.41 366.78 94.04 C 369.50 91.59 369.33 85.79 365.93 83.97 C 362.33 83.07 358.57 83.48 354.91 83.56 L 354.81 82.76 C 354.08 86.41 353.29 90.94 355.13 94.28 Z" />
<path fill="#e34833" opacity="1.00" d=" M 93.60 93.52 C 94.30 92.39 95.68 92.17 96.90 92.21 C 100.27 92.18 103.64 92.10 107.01 92.27 C 108.50 92.24 109.49 93.69 109.75 95.01 C 113.97 108.62 118.00 122.28 122.09 135.92 C 123.00 138.71 123.21 141.79 125.02 144.22 C 126.98 138.55 128.18 132.66 130.17 126.99 C 131.11 123.67 132.19 120.40 133.24 117.11 C 135.87 109.08 137.71 100.73 140.92 92.94 C 144.65 91.35 149.09 92.52 153.10 92.22 C 155.28 91.83 156.56 94.06 156.47 95.96 C 157.14 116.53 158.57 137.08 158.86 157.68 C 156.08 157.63 153.30 157.63 150.53 157.65 C 150.37 152.78 150.50 147.89 149.78 143.06 C 149.50 135.71 149.51 128.35 149.19 121.00 C 148.29 113.95 148.64 106.82 148.34 99.73 L 146.74 99.14 C 141.70 115.19 137.17 131.40 132.27 147.50 C 131.74 149.27 129.95 150.56 128.08 150.33 C 124.68 150.16 120.95 151.05 117.89 149.15 C 114.93 139.47 112.00 129.78 109.11 120.08 C 107.13 113.67 105.29 107.22 103.36 100.79 C 103.14 99.75 102.47 99.24 101.36 99.26 C 100.81 118.70 99.79 138.12 99.26 157.56 C 96.36 157.67 93.45 157.68 90.54 157.52 C 90.65 154.02 90.79 150.51 90.76 147.01 L 91.33 146.14 C 91.38 138.41 91.73 130.68 91.80 122.95 C 93.08 113.19 92.13 103.26 93.60 93.52 Z" />
<path fill="#e34833" opacity="1.00" d=" M 591.41 120.27 C 600.88 119.53 610.58 118.78 619.99 120.49 C 627.66 121.82 634.09 128.39 635.05 136.11 C 635.22 136.62 635.56 137.63 635.72 138.13 C 637.56 146.95 637.56 156.11 636.70 165.06 C 636.08 171.49 634.69 178.31 630.27 183.29 C 625.69 188.34 618.49 189.72 611.96 189.78 C 603.60 189.79 595.21 189.73 586.88 188.93 C 586.72 166.45 586.59 143.96 586.90 121.49 C 588.39 121.08 589.90 120.65 591.41 120.27 M 594.66 127.64 C 594.92 145.69 594.58 163.74 594.83 181.79 C 600.91 181.66 607.00 182.09 613.09 181.79 C 616.40 181.63 619.82 180.53 622.16 178.08 C 625.45 174.96 626.46 170.30 627.12 165.99 C 628.02 158.73 627.98 151.38 627.22 144.11 C 626.57 139.65 625.65 134.86 622.43 131.47 C 619.55 128.34 615.10 127.33 611.00 127.37 C 605.55 127.38 600.10 127.27 594.66 127.64 Z" />
<path fill="#e34833" opacity="1.00" d=" M 724.04 120.37 C 728.69 120.11 733.32 119.50 737.99 119.62 C 745.81 119.60 754.03 118.67 761.48 121.63 C 766.84 123.67 769.54 129.48 769.73 134.92 C 769.91 140.46 770.40 146.53 767.40 151.46 C 765.34 154.82 761.55 156.50 757.79 157.06 C 761.10 159.00 764.13 161.66 765.27 165.47 C 766.40 169.72 768.25 173.81 768.91 178.17 C 769.12 178.65 769.54 179.63 769.75 180.11 C 770.80 182.99 771.62 185.94 772.46 188.89 C 769.26 188.83 766.06 188.82 762.87 188.87 C 760.68 181.62 758.81 174.27 756.59 167.03 C 755.60 163.99 753.23 161.08 749.89 160.65 C 744.21 160.40 738.52 160.35 732.83 160.36 C 732.79 169.86 732.82 179.35 732.82 188.85 C 729.83 188.84 726.85 188.84 723.87 188.84 C 723.98 166.02 723.65 143.18 724.04 120.37 M 732.80 127.39 C 732.86 135.84 732.75 144.29 732.85 152.74 C 738.70 152.62 744.56 152.89 750.40 152.60 C 754.17 152.34 758.71 150.93 759.92 146.88 C 761.18 142.42 761.20 137.50 759.96 133.03 C 758.77 129.18 754.54 127.58 750.86 127.46 C 744.84 127.25 738.81 127.42 732.80 127.39 Z" />
<path fill="#e34833" opacity="1.00" d=" M 790.57 120.53 C 793.60 120.35 796.64 120.39 799.68 120.42 C 799.67 143.21 799.62 166.01 799.71 188.80 C 796.68 188.85 793.67 188.85 790.66 188.85 C 790.58 166.08 790.75 143.30 790.57 120.53 Z" />
<path fill="#e34833" opacity="1.00" d=" M 866.24 120.41 C 869.16 120.41 872.07 120.41 875.00 120.42 L 875.00 187.25 C 873.98 188.45 872.55 189.06 871.00 188.86 C 867.77 188.84 864.52 189.04 861.32 188.65 C 859.51 187.71 858.91 185.60 858.02 183.93 C 849.58 165.86 840.62 148.02 832.39 129.85 C 832.02 129.46 831.27 128.67 830.90 128.28 C 831.37 148.46 830.99 168.65 831.11 188.83 C 828.12 188.84 825.14 188.84 822.16 188.85 C 822.17 167.90 822.19 146.95 822.15 126.00 C 822.20 124.12 821.89 121.54 824.10 120.71 C 827.70 120.16 831.40 120.30 835.03 120.54 C 837.03 120.74 837.79 122.85 838.61 124.37 C 847.03 142.27 855.62 160.07 864.06 177.95 C 864.53 179.19 865.35 180.13 866.52 180.77 C 865.94 160.66 866.38 140.53 866.24 120.41 Z" />
<path fill="#e34833" opacity="1.00" d=" M 352.65 121.77 C 354.81 119.50 358.27 120.71 361.03 120.40 C 363.51 120.65 366.47 119.66 368.53 121.47 C 369.54 122.79 369.97 124.50 369.93 126.14 C 370.16 126.61 370.61 127.56 370.84 128.04 C 373.25 135.96 376.19 143.83 377.91 151.92 C 378.13 152.42 378.55 153.42 378.76 153.92 C 380.85 159.90 382.64 165.99 384.29 172.11 C 384.49 173.23 385.08 174.12 386.06 174.76 C 389.41 163.81 392.51 152.75 396.20 141.89 C 396.41 141.39 396.84 140.39 397.05 139.89 C 398.08 134.16 400.28 128.67 401.93 123.08 C 403.09 119.17 407.95 120.70 410.97 120.40 C 413.71 120.63 418.24 119.34 419.13 123.02 C 420.22 144.95 421.01 166.91 422.17 188.83 C 419.19 188.83 416.21 188.84 413.24 188.88 C 412.14 169.93 411.69 150.94 410.76 131.98 C 410.72 130.35 410.75 128.70 410.01 127.21 C 408.78 128.12 408.32 129.57 407.71 130.88 C 407.52 131.38 407.13 132.37 406.94 132.86 C 406.98 134.28 406.45 135.62 406.07 136.96 C 401.79 150.82 397.69 164.74 393.38 178.59 C 391.78 182.75 386.39 181.02 382.97 181.35 C 377.60 182.07 376.64 175.75 376.07 171.85 C 375.86 171.37 375.43 170.40 375.22 169.91 C 372.69 162.26 370.54 154.48 368.11 146.80 C 367.64 145.19 366.98 143.57 367.08 141.86 C 366.84 141.40 366.38 140.46 366.14 140.00 C 364.50 135.83 363.81 131.34 361.93 127.27 C 360.96 127.91 360.50 128.80 360.56 129.92 C 360.39 136.17 360.26 142.43 359.74 148.67 C 358.41 156.70 359.44 164.85 358.59 172.92 C 358.05 178.12 358.13 183.34 358.11 188.56 C 355.33 188.62 352.55 188.64 349.77 188.61 C 349.53 175.97 351.35 163.39 350.89 150.76 C 351.20 143.52 351.50 136.27 351.76 129.03 C 351.90 126.61 351.48 123.99 352.65 121.77 Z" />
<path fill="#e34833" opacity="1.00" d=" M 457.72 122.51 C 459.65 118.85 464.65 120.96 467.97 120.39 C 471.02 119.69 474.40 121.74 473.91 125.16 C 474.16 125.62 474.66 126.54 474.91 127.00 L 474.92 128.13 C 475.15 128.61 475.61 129.55 475.84 130.03 C 476.45 131.31 476.93 132.70 476.92 134.15 C 477.15 134.63 477.61 135.57 477.84 136.05 C 479.59 141.38 481.90 146.64 482.91 152.15 C 483.15 152.62 483.61 153.57 483.84 154.04 C 484.76 156.33 485.78 158.67 485.92 161.16 C 486.15 161.64 486.62 162.58 486.86 163.05 C 489.90 171.61 492.74 180.26 495.53 188.91 C 492.43 188.84 489.34 188.84 486.24 188.81 C 485.48 186.17 484.19 183.63 484.09 180.85 C 483.84 180.38 483.35 179.46 483.10 179.00 L 483.08 177.85 C 482.87 177.37 482.43 176.40 482.22 175.92 C 481.13 173.27 480.43 170.48 479.71 167.72 C 470.37 167.27 461.01 167.75 451.67 167.46 C 451.04 169.28 450.50 171.13 449.81 172.93 C 449.59 173.42 449.16 174.38 448.94 174.86 C 448.21 179.66 446.13 184.14 444.86 188.81 C 441.77 188.84 438.68 188.84 435.59 188.89 C 442.79 166.71 450.36 144.64 457.72 122.51 M 464.00 129.09 L 463.14 129.24 L 462.76 130.25 L 463.27 131.05 C 460.07 140.55 457.17 150.15 454.08 159.68 C 461.72 159.66 469.35 159.66 476.99 159.68 C 475.23 154.17 473.53 148.65 471.72 143.16 L 472.23 142.33 L 471.81 141.31 L 470.92 141.19 C 470.50 138.74 469.62 136.39 468.79 134.06 L 469.26 133.23 L 468.81 132.24 L 467.92 132.14 C 467.85 130.42 467.16 128.82 466.65 127.21 C 465.58 127.39 463.12 127.16 464.00 129.09 Z" />
<path fill="#e34833" opacity="1.00" d=" M 510.40 123.93 C 510.11 122.24 511.33 120.74 513.02 120.50 C 516.31 120.32 519.62 120.32 522.91 120.49 C 524.59 120.56 525.69 122.06 526.34 123.45 C 534.61 140.89 542.88 158.33 551.21 175.74 C 552.01 177.56 552.84 179.38 554.11 180.94 C 555.09 179.10 554.40 176.98 554.51 175.01 C 554.48 156.81 554.51 138.61 554.50 120.41 C 557.45 120.41 560.41 120.41 563.37 120.41 C 563.35 141.91 563.37 163.41 563.36 184.91 C 563.54 186.51 562.79 188.54 560.99 188.77 C 557.36 188.91 553.71 188.93 550.09 188.75 C 548.54 188.57 547.69 187.10 547.11 185.83 C 538.78 168.18 530.20 150.65 521.93 132.98 C 521.02 131.46 521.13 128.89 518.97 128.55 C 519.94 148.63 519.22 168.76 519.40 188.87 C 516.39 188.84 513.38 188.84 510.38 188.82 C 510.44 167.19 510.39 145.56 510.40 123.93 Z" />
<path fill="#e34833" opacity="1.00" d=" M 670.07 127.16 C 670.36 124.85 670.81 121.91 673.06 120.67 C 676.67 120.15 680.37 120.42 684.02 120.47 C 685.34 120.47 687.30 121.58 686.92 123.17 C 687.14 123.65 687.58 124.60 687.80 125.08 C 690.55 133.41 693.83 141.67 695.92 150.17 C 696.14 150.65 696.60 151.60 696.82 152.08 C 697.74 154.36 698.73 156.69 698.91 159.16 C 699.15 159.63 699.62 160.57 699.86 161.04 C 700.44 162.33 700.95 163.71 700.90 165.15 C 701.15 165.61 701.65 166.53 701.90 166.99 L 701.91 168.18 C 702.15 168.64 702.64 169.56 702.88 170.02 C 703.46 171.32 703.94 172.71 703.90 174.15 C 704.16 174.61 704.66 175.53 704.91 175.99 L 704.92 177.16 C 705.16 177.63 705.63 178.57 705.87 179.03 C 706.47 180.32 706.95 181.70 706.92 183.14 C 707.16 183.61 707.63 184.55 707.87 185.02 C 708.41 186.25 708.74 187.55 709.11 188.84 C 706.02 188.84 702.92 188.83 699.84 188.87 C 698.67 184.51 696.62 180.34 696.07 175.85 C 695.84 175.38 695.39 174.42 695.16 173.94 C 694.54 172.61 694.12 171.17 694.04 169.70 C 693.98 169.28 693.87 168.44 693.81 168.02 L 693.10 167.90 C 683.81 167.10 674.41 167.72 665.09 167.59 C 664.02 171.04 663.08 174.53 661.84 177.92 C 661.61 178.39 661.15 179.34 660.92 179.81 C 660.70 182.93 659.24 185.79 658.46 188.79 C 655.32 188.87 652.19 188.85 649.06 188.82 C 650.81 183.90 652.27 178.88 654.11 173.99 C 654.35 173.53 654.85 172.62 655.09 172.16 C 655.18 169.66 656.21 167.31 657.13 165.03 C 657.37 164.56 657.85 163.62 658.09 163.16 C 658.19 160.65 659.22 158.30 660.16 156.01 C 660.39 155.54 660.86 154.60 661.09 154.13 C 661.20 151.65 662.23 149.31 663.17 147.04 C 663.40 146.57 663.85 145.61 664.08 145.13 C 664.23 142.65 665.22 140.32 666.18 138.06 C 666.41 137.58 666.85 136.61 667.07 136.13 C 667.26 133.67 668.23 131.34 669.18 129.08 C 669.40 128.60 669.84 127.64 670.07 127.16 M 677.66 127.44 C 677.40 128.65 677.19 129.88 677.04 131.11 L 676.16 131.23 L 675.73 132.23 L 676.22 133.05 C 673.15 141.81 670.75 150.79 667.55 159.49 C 675.24 159.85 682.96 159.64 690.66 159.60 C 687.48 150.50 684.84 141.23 681.74 132.11 L 682.24 131.28 L 681.80 130.28 L 680.91 130.15 C 680.81 129.46 680.63 128.08 680.54 127.39 C 679.57 127.40 678.61 127.42 677.66 127.44 Z" />
</g>
<g id="#924f2f9f">
<path fill="#924f2f" opacity="0.62" d=" M 188.67 18.04 C 195.57 21.57 201.50 26.66 207.34 31.70 C 212.42 36.38 217.39 41.28 221.30 47.01 C 214.15 40.06 207.73 32.28 199.68 26.31 C 196.11 23.41 192.05 21.17 188.67 18.04 Z" />
</g>
<g id="#6c492c75">
<path fill="#6c492c" opacity="0.46" d=" M 97.67 25.27 C 104.51 23.66 111.50 22.01 118.58 22.30 C 114.53 23.43 110.29 23.36 106.20 24.21 C 93.55 26.70 81.19 31.15 70.27 38.07 C 67.11 40.12 64.14 42.47 60.85 44.31 C 65.78 39.51 72.00 36.35 77.90 32.91 C 82.07 30.91 86.30 29.01 90.67 27.48 C 92.98 26.68 95.31 25.93 97.67 25.27 Z" />
</g>
<g id="#8c6a2a95">
<path fill="#8c6a2a" opacity="0.58" d=" M 23.76 50.98 C 29.98 41.62 37.96 33.32 47.02 26.67 C 46.40 27.32 45.78 27.96 45.16 28.61 C 41.25 32.24 37.32 35.87 33.70 39.81 C 30.06 43.24 27.31 47.46 23.76 50.98 Z" />
</g>
<g id="#84512b8f">
<path fill="#84512b" opacity="0.56" d=" M 171.58 34.11 C 175.90 35.79 179.71 38.46 183.54 41.03 C 189.39 45.63 195.68 50.12 199.90 56.36 C 197.51 54.32 195.29 52.11 193.07 49.89 C 186.67 43.66 179.09 38.86 171.58 34.11 Z" />
</g>
<g id="#f2b52dff">
<path fill="#f2b52d" opacity="1.00" d=" M 23.76 50.98 C 27.31 47.46 30.06 43.24 33.70 39.81 C 35.98 44.64 36.41 50.02 37.71 55.15 C 38.60 58.65 38.60 62.54 40.94 65.49 C 34.74 74.28 29.96 84.06 26.67 94.29 C 25.24 90.66 22.61 87.73 20.23 84.70 C 17.15 80.83 14.14 76.90 10.87 73.18 C 14.54 65.44 18.64 57.87 23.76 50.98 Z" />
<path fill="#f2b52d" opacity="1.00" d=" M 223.70 100.73 C 231.49 107.16 238.53 114.47 246.86 120.25 C 246.75 117.03 246.94 113.80 247.35 110.61 C 248.02 117.47 248.60 124.34 248.20 131.25 C 246.30 135.73 247.36 140.77 245.98 145.41 C 238.78 145.60 231.57 145.32 224.37 145.55 C 227.48 130.78 227.00 115.42 223.70 100.73 Z" />
<path fill="#f2b52d" opacity="1.00" d=" M 22.16 130.73 C 23.74 159.90 38.51 187.85 61.48 205.84 C 61.29 210.18 62.14 214.46 62.38 218.78 C 62.26 220.37 62.10 221.97 61.92 223.56 C 57.58 221.25 54.00 217.82 50.09 214.89 C 40.72 207.23 31.12 199.84 21.77 192.16 C 20.74 191.27 19.46 190.83 18.21 190.38 C 10.88 178.51 5.60 165.39 2.64 151.76 C 2.74 150.53 2.83 149.30 2.91 148.07 C 9.26 144.82 16.06 142.53 22.38 139.21 C 22.12 136.39 22.07 133.56 22.16 130.73 Z" />
<path fill="#f2b52d" opacity="1.00" d=" M 209.61 180.43 C 213.69 174.22 217.03 167.54 219.60 160.56 C 220.36 167.10 221.77 173.55 222.74 180.06 C 223.52 183.93 223.55 188.10 225.61 191.59 C 224.88 192.73 224.09 193.84 223.20 194.87 C 222.98 194.63 222.53 194.15 222.30 193.91 C 222.60 193.41 223.19 192.43 223.49 191.94 C 220.23 189.34 216.79 186.99 213.39 184.57 C 211.92 183.42 210.07 182.39 209.61 180.43 Z" />
<path fill="#f2b52d" opacity="1.00" d=" M 49.12 224.56 C 53.55 223.62 58.02 225.05 62.48 224.50 C 63.76 225.27 65.05 226.03 66.44 226.61 C 81.00 232.27 95.44 238.25 109.91 244.15 C 113.85 245.81 118.00 247.00 121.61 249.35 C 117.75 249.30 113.91 248.90 110.05 248.92 C 87.97 246.96 66.69 237.94 49.12 224.56 Z" />
</g>
<g id="#e34731ff">
<path fill="#e34731" opacity="1.00" d=" M 395.87 65.91 C 398.11 64.72 400.91 65.57 403.38 65.42 C 404.06 66.92 405.02 68.42 404.92 70.15 C 405.13 70.64 405.56 71.61 405.77 72.10 C 408.95 80.85 411.43 89.86 414.69 98.58 C 412.90 98.74 411.10 98.79 409.31 98.78 C 408.27 95.44 407.28 92.09 406.21 88.76 C 401.87 88.81 397.54 88.67 393.21 88.84 C 392.50 91.12 391.94 93.46 391.10 95.70 C 390.47 96.64 389.83 97.57 389.18 98.49 C 388.30 98.41 386.53 98.24 385.64 98.15 C 385.70 97.58 385.82 96.44 385.88 95.87 L 386.13 95.01 C 386.38 94.54 386.86 93.61 387.10 93.14 C 387.52 89.30 389.40 85.79 390.37 82.07 C 392.28 76.71 393.66 71.15 395.87 65.91 M 397.07 77.14 L 396.19 77.28 L 395.79 78.30 L 396.30 79.13 C 395.66 80.83 395.15 82.57 394.59 84.30 C 398.04 84.26 401.49 84.39 404.94 84.19 C 403.17 79.14 401.81 73.96 400.07 68.91 C 398.20 71.20 397.71 74.32 397.07 77.14 Z" />
<path fill="#e34731" opacity="1.00" d=" M 469.69 65.55 C 471.37 65.37 473.05 65.31 474.74 65.31 C 474.70 69.99 474.88 74.69 474.58 79.37 C 475.45 79.33 477.19 79.25 478.07 79.21 C 481.28 74.62 484.56 70.07 487.70 65.42 C 489.54 65.36 491.38 65.32 493.23 65.31 C 489.83 70.82 486.16 76.24 482.04 81.24 C 485.72 85.87 488.91 90.88 492.07 95.88 C 492.36 96.52 492.94 97.81 493.23 98.46 C 491.07 98.38 488.75 98.48 487.04 96.93 C 484.12 92.38 481.00 87.97 478.02 83.46 C 477.18 83.44 475.49 83.40 474.65 83.39 C 474.82 88.50 474.69 93.61 474.78 98.73 C 473.15 98.76 471.53 98.78 469.91 98.82 C 469.57 87.74 470.00 76.64 469.69 65.55 Z" />
</g>
<g id="#e34732ff">
<path fill="#e34732" opacity="1.00" d=" M 427.41 66.26 C 428.72 64.63 431.24 65.54 433.06 65.34 C 434.64 65.06 435.71 66.33 436.21 67.66 C 439.99 75.91 443.74 84.17 447.55 92.41 L 448.67 93.73 C 448.29 84.26 448.58 74.78 448.48 65.30 C 450.14 65.33 451.81 65.37 453.48 65.45 C 453.19 76.32 453.69 87.22 453.23 98.07 C 451.00 99.34 448.04 98.87 445.60 98.43 C 442.31 92.57 439.81 86.25 437.00 80.14 C 436.17 77.92 435.18 75.77 434.09 73.67 C 433.45 72.40 432.85 71.11 432.24 69.84 C 432.39 79.50 432.43 89.17 432.28 98.83 C 430.59 98.79 428.91 98.76 427.23 98.73 C 427.42 87.91 427.04 77.07 427.41 66.26 Z" />
</g>
<g id="#6548446b">
<path fill="#654844" opacity="0.42" d=" M 404.92 70.15 L 405.80 70.27 L 406.24 71.26 L 405.77 72.10 C 405.56 71.61 405.13 70.64 404.92 70.15 Z" />
</g>
<g id="#6e393279">
<path fill="#6e3932" opacity="0.47" d=" M 434.09 73.67 C 435.18 75.77 436.17 77.92 437.00 80.14 C 435.62 78.19 434.63 76.00 434.09 73.67 Z" />
</g>
<g id="#7e514c86">
<path fill="#7e514c" opacity="0.53" d=" M 396.19 77.28 L 397.07 77.14 C 396.88 77.64 396.50 78.63 396.30 79.13 L 395.79 78.30 L 396.19 77.28 Z" />
</g>
<g id="#62533866">
<path fill="#625338" opacity="0.40" d=" M 241.01 82.86 C 241.24 83.44 241.70 84.59 241.93 85.16 C 241.70 84.59 241.24 83.44 241.01 82.86 Z" />
</g>
<g id="#d45a4aec">
<path fill="#d45a4a" opacity="0.93" d=" M 355.13 94.28 C 353.29 90.94 354.08 86.41 354.81 82.76 L 354.91 83.56 C 355.35 87.12 355.21 90.71 355.13 94.28 Z" />
</g>
<g id="#916d389a">
<path fill="#916d38" opacity="0.60" d=" M 220.13 90.40 C 221.74 93.69 222.81 97.19 223.70 100.73 C 227.00 115.42 227.48 130.78 224.37 145.55 C 231.57 145.32 238.78 145.60 245.98 145.41 C 247.36 140.77 246.30 135.73 248.20 131.25 C 248.02 141.15 246.22 151.06 243.11 160.46 C 243.77 155.48 245.18 150.65 246.07 145.71 C 239.05 145.92 232.02 145.44 225.02 145.89 C 223.36 147.93 223.26 150.95 222.01 153.30 C 223.12 147.20 224.74 141.16 225.15 134.95 C 226.92 119.92 224.30 104.82 220.13 90.40 Z" />
</g>
<g id="#6d4a4575">
<path fill="#6d4a45" opacity="0.46" d=" M 386.22 93.22 L 387.10 93.14 C 386.86 93.61 386.38 94.54 386.13 95.01 L 385.72 94.18 L 386.22 93.22 Z" />
</g>
<g id="#8f51499b">
<path fill="#8f5149" opacity="0.61" d=" M 384.80 98.98 C 384.95 97.87 385.31 96.83 385.88 95.87 C 385.82 96.44 385.70 97.58 385.64 98.15 C 386.53 98.24 388.30 98.41 389.18 98.49 C 389.83 97.57 390.47 96.64 391.10 95.70 C 390.82 96.83 390.52 97.95 390.19 99.07 C 388.39 99.02 386.59 99.00 384.80 98.98 Z" />
</g>
<g id="#87484094">
<path fill="#874840" opacity="0.58" d=" M 492.07 95.88 C 493.11 96.66 493.68 97.83 494.27 98.96 C 492.23 99.01 490.20 99.02 488.17 99.02 C 487.89 98.50 487.32 97.45 487.04 96.93 C 488.75 98.48 491.07 98.38 493.23 98.46 C 492.94 97.81 492.36 96.52 492.07 95.88 Z" />
</g>
<g id="#3a28263d">
<path fill="#3a2826" opacity="0.24" d=" M 585.42 119.86 L 585.78 120.56 C 585.91 143.41 586.04 166.28 585.72 189.13 C 585.30 187.44 585.18 185.69 585.24 183.95 C 585.41 162.59 585.10 141.22 585.42 119.86 Z" />
</g>
<g id="#d95745f2">
<path fill="#d95745" opacity="0.95" d=" M 585.78 120.56 C 587.64 120.28 589.52 120.21 591.41 120.27 C 589.90 120.65 588.39 121.08 586.90 121.49 C 586.59 143.96 586.72 166.45 586.88 188.93 L 585.72 189.13 C 586.04 166.28 585.91 143.41 585.78 120.56 Z" />
</g>
<g id="#6d494574">
<path fill="#6d4945" opacity="0.45" d=" M 686.92 123.17 L 687.80 123.27 L 688.26 124.25 L 687.80 125.08 C 687.58 124.60 687.14 123.65 686.92 123.17 Z" />
</g>
<g id="#7a4d4783">
<path fill="#7a4d47" opacity="0.51" d=" M 473.91 125.16 L 474.79 125.22 L 475.30 126.15 L 474.91 127.00 C 474.66 126.54 474.16 125.62 473.91 125.16 Z" />
</g>
<g id="#7f514b88">
<path fill="#7f514b" opacity="0.53" d=" M 369.93 126.14 L 370.81 126.21 L 371.28 127.18 L 370.84 128.04 C 370.61 127.56 370.16 126.61 369.93 126.14 Z" />
</g>
<g id="#7a4f4a82">
<path fill="#7a4f4a" opacity="0.51" d=" M 669.18 127.26 L 670.07 127.16 C 669.84 127.64 669.40 128.60 669.18 129.08 L 668.72 128.24 L 669.18 127.26 Z" />
</g>
<g id="#744c477d">
<path fill="#744c47" opacity="0.49" d=" M 474.92 128.13 L 475.80 128.23 L 476.27 129.20 L 475.84 130.03 C 475.61 129.55 475.15 128.61 474.92 128.13 Z" />
</g>
<g id="#6b4a4672">
<path fill="#6b4a46" opacity="0.45" d=" M 463.14 129.24 L 464.00 129.09 C 463.82 129.58 463.45 130.56 463.27 131.05 L 462.76 130.25 L 463.14 129.24 Z" />
</g>
<g id="#7b4f4983">
<path fill="#7b4f49" opacity="0.51" d=" M 680.91 130.15 L 681.80 130.28 L 682.24 131.28 L 681.74 132.11 C 681.53 131.62 681.12 130.64 680.91 130.15 Z" />
</g>
<g id="#7d4f4985">
<path fill="#7d4f49" opacity="0.52" d=" M 406.94 132.86 C 407.13 132.37 407.52 131.38 407.71 130.88 L 408.23 131.73 L 407.82 132.74 L 406.94 132.86 Z" />
</g>
<g id="#6346426a">
<path fill="#634642" opacity="0.42" d=" M 676.16 131.23 L 677.04 131.11 C 676.84 131.60 676.42 132.57 676.22 133.05 L 675.73 132.23 L 676.16 131.23 Z" />
</g>
<g id="#704b4777">
<path fill="#704b47" opacity="0.47" d=" M 467.92 132.14 L 468.81 132.24 L 469.26 133.23 L 468.79 134.06 C 468.57 133.58 468.14 132.62 467.92 132.14 Z" />
</g>
<g id="#7b4e4883">
<path fill="#7b4e48" opacity="0.51" d=" M 476.92 134.15 L 477.80 134.23 L 478.28 135.20 L 477.84 136.05 C 477.61 135.57 477.15 134.63 476.92 134.15 Z" />
</g>
<g id="#744f4a7b">
<path fill="#744f4a" opacity="0.48" d=" M 635.05 136.11 L 635.91 136.31 L 636.26 137.34 L 635.72 138.13 C 635.56 137.63 635.22 136.62 635.05 136.11 Z" />
</g>
<g id="#7b514c84">
<path fill="#7b514c" opacity="0.52" d=" M 666.18 136.23 L 667.07 136.13 C 666.85 136.61 666.41 137.58 666.18 138.06 L 665.73 137.22 L 666.18 136.23 Z" />
</g>
<g id="#85544d8f">
<path fill="#85544d" opacity="0.56" d=" M 366.14 140.00 C 366.38 140.46 366.84 141.40 367.08 141.86 L 366.20 141.81 L 365.72 140.85 L 366.14 140.00 Z" />
</g>
<g id="#8d544c99">
<path fill="#8d544c" opacity="0.60" d=" M 396.20 139.99 L 397.05 139.89 C 396.84 140.39 396.41 141.39 396.20 141.89 C 396.20 141.42 396.20 140.47 396.20 139.99 Z" />
</g>
<g id="#85504a8f">
<path fill="#85504a" opacity="0.56" d=" M 470.92 141.19 L 471.81 141.31 L 472.23 142.33 L 471.72 143.16 C 471.52 142.66 471.12 141.68 470.92 141.19 Z" />
</g>
<g id="#7d514c85">
<path fill="#7d514c" opacity="0.52" d=" M 663.20 145.22 L 664.08 145.13 C 663.85 145.61 663.40 146.57 663.17 147.04 L 662.72 146.20 L 663.20 145.22 Z" />
</g>
<g id="#7d3e3689">
<path fill="#7d3e36" opacity="0.54" d=" M 358.59 172.92 C 359.44 164.85 358.41 156.70 359.74 148.67 C 360.13 152.43 360.08 156.22 359.79 159.99 C 358.69 169.66 359.41 179.43 358.32 189.11 C 355.19 189.06 352.06 189.06 348.94 189.05 C 349.53 183.90 349.27 178.70 349.75 173.54 C 350.39 165.96 349.56 158.28 350.89 150.76 C 351.35 163.39 349.53 175.97 349.77 188.61 C 352.55 188.64 355.33 188.62 358.11 188.56 C 358.13 183.34 358.05 178.12 358.59 172.92 Z" />
</g>
<g id="#734c477b">
<path fill="#734c47" opacity="0.48" d=" M 695.92 150.17 L 696.80 150.26 L 697.27 151.23 L 696.82 152.08 C 696.60 151.60 696.14 150.65 695.92 150.17 Z" />
</g>
<g id="#83524c8c">
<path fill="#83524c" opacity="0.55" d=" M 377.91 151.92 L 378.77 152.03 L 379.21 153.06 L 378.76 153.92 C 378.55 153.42 378.13 152.42 377.91 151.92 Z" />
</g>
<g id="#7d4f4986">
<path fill="#7d4f49" opacity="0.53" d=" M 482.91 152.15 L 483.80 152.22 L 484.28 153.19 L 483.84 154.04 C 483.61 153.57 483.15 152.62 482.91 152.15 Z" />
</g>
<g id="#7d504b86">
<path fill="#7d504b" opacity="0.53" d=" M 660.20 154.20 L 661.09 154.13 C 660.86 154.60 660.39 155.54 660.16 156.01 L 659.72 155.16 L 660.20 154.20 Z" />
<path fill="#7d504b" opacity="0.53" d=" M 483.10 179.00 C 483.35 179.46 483.84 180.38 484.09 180.85 L 483.21 180.79 L 482.71 179.85 L 483.10 179.00 Z" />
</g>
<g id="#754d487d">
<path fill="#754d48" opacity="0.49" d=" M 698.91 159.16 L 699.79 159.23 L 700.28 160.19 L 699.86 161.04 C 699.62 160.57 699.15 159.63 698.91 159.16 Z" />
</g>
<g id="#7f514b89">
<path fill="#7f514b" opacity="0.54" d=" M 485.92 161.16 L 486.80 161.23 L 487.29 162.20 L 486.86 163.05 C 486.62 162.58 486.15 161.64 485.92 161.16 Z" />
</g>
<g id="#7f504b88">
<path fill="#7f504b" opacity="0.53" d=" M 657.21 163.21 L 658.09 163.16 C 657.85 163.62 657.37 164.56 657.13 165.03 L 656.71 164.17 L 657.21 163.21 Z" />
</g>
<g id="#7d4e4886">
<path fill="#7d4e48" opacity="0.53" d=" M 700.90 165.15 L 701.79 165.21 L 702.30 166.15 L 701.90 166.99 C 701.65 166.53 701.15 165.61 700.90 165.15 Z" />
</g>
<g id="#6a494471">
<path fill="#6a4944" opacity="0.44" d=" M 693.10 167.90 L 693.81 168.02 C 693.87 168.44 693.98 169.28 694.04 169.70 L 693.25 169.68 C 693.21 169.23 693.14 168.35 693.10 167.90 Z" />
</g>
<g id="#764c477e">
<path fill="#764c47" opacity="0.49" d=" M 701.91 168.18 L 702.78 168.23 L 703.28 169.17 L 702.88 170.02 C 702.64 169.56 702.15 168.64 701.91 168.18 Z" />
</g>
<g id="#724d477a">
<path fill="#724d47" opacity="0.48" d=" M 375.22 169.91 C 375.43 170.40 375.86 171.37 376.07 171.85 L 375.19 171.74 L 374.75 170.75 L 375.22 169.91 Z" />
</g>
<g id="#82514a8c">
<path fill="#82514a" opacity="0.55" d=" M 654.22 172.19 L 655.09 172.16 C 654.85 172.62 654.35 173.53 654.11 173.99 L 653.71 173.13 L 654.22 172.19 Z" />
</g>
<g id="#764b477e">
<path fill="#764b47" opacity="0.49" d=" M 448.94 174.86 C 449.16 174.38 449.59 173.42 449.81 172.93 L 450.28 173.76 L 449.83 174.75 L 448.94 174.86 Z" />
</g>
<g id="#7a504b83">
<path fill="#7a504b" opacity="0.51" d=" M 695.16 173.94 C 695.39 174.42 695.84 175.38 696.07 175.85 L 695.19 175.76 L 694.72 174.78 L 695.16 173.94 Z" />
</g>
<g id="#7e4f4987">
<path fill="#7e4f49" opacity="0.53" d=" M 703.90 174.15 L 704.79 174.21 L 705.30 175.14 L 704.91 175.99 C 704.66 175.53 704.16 174.61 703.90 174.15 Z" />
</g>
<g id="#704b4677">
<path fill="#704b46" opacity="0.47" d=" M 482.22 175.92 C 482.43 176.40 482.87 177.37 483.08 177.85 L 482.20 177.75 L 481.75 176.76 L 482.22 175.92 Z" />
</g>
<g id="#784d4880">
<path fill="#784d48" opacity="0.50" d=" M 704.92 177.16 L 705.80 177.24 L 706.29 178.19 L 705.87 179.03 C 705.63 178.57 705.16 177.63 704.92 177.16 Z" />
</g>
<g id="#714c4779">
<path fill="#714c47" opacity="0.47" d=" M 660.92 179.81 C 661.15 179.34 661.61 178.39 661.84 177.92 L 662.28 178.77 L 661.80 179.74 L 660.92 179.81 Z" />
</g>
<g id="#5d424064">
<path fill="#5d4240" opacity="0.39" d=" M 768.91 178.17 L 769.80 178.28 L 770.23 179.28 L 769.75 180.11 C 769.54 179.63 769.12 178.65 768.91 178.17 Z" />
</g>
<g id="#7f504989">
<path fill="#7f5049" opacity="0.54" d=" M 706.92 183.14 L 707.80 183.22 L 708.29 184.19 L 707.87 185.02 C 707.63 184.55 707.16 183.61 706.92 183.14 Z" />
</g>
<g id="#f1d964ff">
<path fill="#f1d964" opacity="1.00" d=" M 18.21 190.38 C 19.46 190.83 20.74 191.27 21.77 192.16 C 31.12 199.84 40.72 207.23 50.09 214.89 C 54.00 217.82 57.58 221.25 61.92 223.56 C 62.10 221.97 62.26 220.37 62.38 218.78 C 62.47 220.69 62.48 222.59 62.48 224.50 C 58.02 225.05 53.55 223.62 49.12 224.56 C 36.79 215.26 26.20 203.60 18.21 190.38 Z" />
</g>
<g id="#e34733ff">
<path fill="#e34733" opacity="1.00" d=" M 225.61 191.59 C 226.90 190.99 228.28 190.61 229.71 190.56 C 218.57 208.74 202.74 224.15 183.98 234.34 L 182.45 234.27 C 185.39 230.30 189.28 227.22 192.80 223.81 C 202.89 214.12 213.05 204.50 223.20 194.87 C 224.09 193.84 224.88 192.73 225.61 191.59 Z" />
</g>
<g id="#8b644094">
<path fill="#8b6440" opacity="0.58" d=" M 110.05 248.92 C 113.91 248.90 117.75 249.30 121.61 249.35 C 126.72 249.57 131.81 248.90 136.92 248.96 L 138.19 250.00 L 111.01 250.00 L 110.05 248.92 Z" />
</g>
</svg>