<svg width="51px" height="69px" viewBox="0 0 283 382" version="1.1" xmlns="http://www.w3.org/2000/svg">
<g id="#282561ff">
<path fill="#282561" opacity="1.00" d=" M 133.83 0.00 L 147.36 0.00 C 155.81 10.04 165.10 19.35 173.34 29.56 C 152.85 23.75 130.76 23.69 110.25 29.40 C 116.17 19.79 121.97 10.11 127.89 0.51 C 129.87 0.31 131.85 0.13 133.83 0.00 Z" />
<path fill="#282561" opacity="1.00" d=" M 215.42 20.64 C 238.77 34.90 257.84 56.04 269.53 80.79 C 258.12 78.31 246.90 75.03 235.43 72.89 C 228.16 63.00 219.34 54.23 209.39 47.05 C 211.63 38.30 213.48 29.46 215.42 20.64 Z" />
<path fill="#282561" opacity="1.00" d=" M 105.46 108.07 C 105.50 106.18 107.09 104.40 109.08 104.56 C 113.02 104.45 116.98 104.42 120.92 104.58 C 123.66 104.83 124.16 107.87 124.84 109.98 C 130.00 127.59 135.80 145.02 140.59 162.73 C 141.02 162.74 141.87 162.76 142.29 162.77 C 147.12 144.56 153.16 126.69 158.48 108.62 C 158.84 106.41 160.54 104.30 162.98 104.51 C 166.98 104.62 171.05 104.14 175.00 104.81 C 176.70 105.03 177.26 106.71 177.38 108.18 C 178.46 131.69 179.33 155.21 180.56 178.71 C 177.30 178.79 174.03 178.67 170.77 178.84 C 170.15 156.70 168.95 134.58 168.25 112.44 C 167.74 112.53 166.72 112.72 166.20 112.81 C 160.81 130.50 155.54 148.22 150.22 165.94 C 149.72 167.68 149.05 169.75 147.01 170.18 C 143.66 170.34 140.29 170.25 136.94 170.24 C 134.93 170.48 133.31 168.81 132.90 166.97 C 127.99 150.64 123.05 134.31 118.17 117.97 C 117.62 115.99 117.05 114.02 116.10 112.19 C 115.01 112.81 114.49 113.72 114.55 114.91 C 113.92 136.17 112.76 157.42 112.27 178.69 C 108.99 178.79 105.71 178.76 102.44 178.71 C 103.62 155.17 104.35 131.61 105.46 108.07 Z" />
<path fill="#282561" opacity="1.00" d=" M 64.49 314.32 C 73.28 313.20 82.16 313.53 91.01 313.50 C 95.72 313.67 100.85 314.25 104.66 317.30 C 108.66 320.56 109.71 326.01 109.95 330.90 C 110.09 336.68 110.35 342.74 108.07 348.18 C 106.40 352.12 102.57 354.79 98.45 355.63 C 90.56 357.25 82.47 356.26 74.52 355.68 C 74.47 364.45 74.51 373.22 74.50 382.00 L 64.50 382.00 C 64.49 359.44 64.52 336.88 64.49 314.32 M 74.49 322.31 C 74.51 330.79 74.50 339.26 74.49 347.74 C 79.73 347.71 84.97 347.84 90.21 347.69 C 93.62 347.56 97.55 346.26 98.86 342.77 C 100.40 338.42 100.25 333.61 99.51 329.11 C 99.06 326.01 96.69 323.23 93.54 322.68 C 87.27 321.51 80.82 322.00 74.49 322.31 Z" />
<path fill="#282561" opacity="1.00" d=" M 136.58 315.54 C 138.10 313.64 140.87 314.44 142.97 314.22 C 145.96 314.41 149.17 313.72 151.99 314.96 C 153.26 316.60 153.61 318.71 154.28 320.62 C 160.92 341.09 167.60 361.53 174.22 382.00 L 163.90 382.00 C 161.79 375.26 159.79 368.49 157.69 361.75 C 148.85 361.75 140.01 361.72 131.17 361.77 C 129.08 368.51 127.16 375.30 124.93 382.00 L 114.71 382.00 C 121.18 362.32 127.49 342.59 133.88 322.89 C 134.73 320.42 135.25 317.80 136.58 315.54 M 143.28 322.00 C 140.38 332.39 136.97 342.64 133.92 352.99 C 140.98 353.00 148.03 353.00 155.08 353.00 C 151.92 342.67 148.75 332.34 145.60 322.01 C 145.02 322.01 143.86 322.00 143.28 322.00 Z" />
<path fill="#282561" opacity="1.00" d=" M 173.65 314.26 C 177.18 314.24 180.71 314.25 184.24 314.26 C 188.68 323.02 192.80 331.94 197.23 340.71 C 198.73 343.78 199.80 347.04 200.97 350.25 C 205.38 337.78 212.19 326.34 217.57 314.27 C 221.08 314.24 224.59 314.24 228.10 314.26 C 220.87 328.99 213.30 343.56 206.19 358.34 C 205.72 366.20 206.14 374.12 206.00 382.00 L 196.00 382.00 C 196.00 374.98 196.00 367.96 196.02 360.95 C 196.08 359.56 195.82 358.19 195.15 356.98 C 188.00 342.73 180.68 328.57 173.65 314.26 Z" />
</g>
<g id="#2a3b90ff">
<path fill="#2a3b90" opacity="1.00" d=" M 147.36 0.00 L 149.17 0.00 C 172.50 1.34 195.51 8.37 215.42 20.64 C 213.48 29.46 211.63 38.30 209.39 47.05 C 198.52 39.16 186.24 33.28 173.34 29.56 C 165.10 19.35 155.81 10.04 147.36 0.00 Z" />
<path fill="#2a3b90" opacity="1.00" d=" M 235.43 72.89 C 246.90 75.03 258.12 78.31 269.53 80.79 C 277.44 97.37 281.89 115.52 283.00 133.84 L 283.00 138.91 C 274.33 131.17 265.78 123.28 256.95 115.74 C 256.51 115.91 255.65 116.25 255.21 116.42 C 251.59 100.79 244.99 85.81 235.43 72.89 Z" />
</g>
<g id="#f69421ff">
<path fill="#f69421" opacity="1.00" d=" M 101.31 5.68 C 109.99 3.13 118.89 1.37 127.89 0.51 C 121.97 10.11 116.17 19.79 110.25 29.40 C 108.15 29.97 106.08 30.64 104.03 31.33 C 103.01 22.79 102.49 14.20 101.31 5.68 Z" />
<path fill="#f69421" opacity="1.00" d=" M 38.58 44.16 C 42.64 39.75 47.12 35.74 51.72 31.90 C 64.57 33.63 77.45 35.20 90.30 36.99 C 72.51 45.79 57.02 59.15 45.73 75.47 C 43.09 65.09 41.42 54.49 38.58 44.16 Z" />
<path fill="#f69421" opacity="1.00" d=" M 0.00 133.73 C 1.06 116.23 5.24 98.93 12.50 82.96 C 18.81 90.32 24.57 98.12 30.86 105.49 C 26.37 119.21 24.42 133.79 25.30 148.20 C 16.94 149.45 8.60 150.79 0.24 152.01 C 0.18 151.27 0.06 149.78 0.00 149.03 L 0.00 133.73 Z" />
<path fill="#f69421" opacity="1.00" d=" M 220.36 227.29 C 232.54 224.98 244.43 221.44 256.55 218.83 C 240.85 234.42 224.42 249.28 208.49 264.64 C 207.36 265.78 206.32 267.02 205.24 268.21 C 194.73 273.57 183.51 277.51 172.00 280.02 C 170.79 271.66 169.47 263.31 168.29 254.95 C 187.66 250.43 205.68 240.67 220.36 227.29 Z" />
<path fill="#f69421" opacity="1.00" d=" M 82.27 241.85 C 87.99 245.20 93.98 248.12 100.18 250.50 C 90.91 252.45 81.42 253.07 72.18 255.18 L 71.95 255.12 C 71.94 254.96 71.94 254.64 71.93 254.48 C 75.29 250.20 78.86 246.09 82.27 241.85 Z" />
</g>
<g id="#f1542dff">
<path fill="#f1542d" opacity="1.00" d=" M 51.72 31.90 C 66.29 19.98 83.23 10.94 101.31 5.68 C 102.49 14.20 103.01 22.79 104.03 31.33 C 99.33 32.90 94.78 34.88 90.30 36.99 C 77.45 35.20 64.57 33.63 51.72 31.90 Z" />
<path fill="#f1542d" opacity="1.00" d=" M 0.24 152.01 C 8.60 150.79 16.94 149.45 25.30 148.20 C 25.48 151.37 25.77 154.54 26.22 157.68 C 18.31 161.30 10.29 164.68 2.38 168.30 C 1.33 162.92 0.60 157.48 0.24 152.01 Z" />
<path fill="#f1542d" opacity="1.00" d=" M 255.49 165.29 C 264.05 165.33 272.61 165.31 281.17 165.30 C 274.09 209.07 244.96 248.53 205.24 268.21 C 206.32 267.02 207.36 265.78 208.49 264.64 C 224.42 249.28 240.85 234.42 256.55 218.83 C 244.43 221.44 232.54 224.98 220.36 227.29 C 227.14 220.79 233.41 213.74 238.54 205.86 C 244.61 210.20 250.63 214.61 256.71 218.95 C 254.57 206.89 252.73 194.78 250.38 182.77 C 252.51 177.08 254.23 171.24 255.49 165.29 Z" />
<path fill="#f1542d" opacity="1.00" d=" M 69.90 233.39 C 73.83 236.48 77.99 239.27 82.27 241.85 C 78.86 246.09 75.29 250.20 71.93 254.48 C 71.26 247.45 70.36 240.44 69.90 233.39 Z" />
<path fill="#f1542d" opacity="1.00" d=" M 100.18 250.50 C 121.76 258.74 145.82 260.29 168.29 254.95 C 169.47 263.31 170.79 271.66 172.00 280.02 C 161.85 282.22 151.46 283.53 141.06 283.23 C 118.23 273.56 95.05 264.74 72.18 255.18 C 81.42 253.07 90.91 252.45 100.18 250.50 Z" />
</g>
<g id="#fbb243ff">
<path fill="#fbb243" opacity="1.00" d=" M 12.50 82.96 C 18.97 68.70 27.84 55.55 38.58 44.16 C 41.42 54.49 43.09 65.09 45.73 75.47 C 39.34 84.68 34.31 94.83 30.86 105.49 C 24.57 98.12 18.81 90.32 12.50 82.96 Z" />
<path fill="#fbb243" opacity="1.00" d=" M 255.31 116.57 C 255.72 116.36 256.54 115.95 256.95 115.74 C 265.78 123.28 274.33 131.17 283.00 138.91 L 283.00 149.25 C 282.57 154.62 282.11 159.99 281.17 165.30 C 272.61 165.31 264.05 165.33 255.49 165.29 C 258.87 149.26 258.56 132.59 255.31 116.57 Z" />
<path fill="#fbb243" opacity="1.00" d=" M 2.38 168.30 C 10.29 164.68 18.31 161.30 26.22 157.68 C 30.21 187.33 46.30 215.04 69.90 233.39 C 70.36 240.44 71.26 247.45 71.93 254.48 C 71.94 254.64 71.94 254.96 71.95 255.12 L 72.18 255.18 C 95.05 264.74 118.23 273.56 141.06 283.23 C 107.06 283.59 73.36 270.45 47.90 248.05 C 24.39 227.54 8.12 198.96 2.38 168.30 Z" />
<path fill="#fbb243" opacity="1.00" d=" M 250.38 182.77 C 252.73 194.78 254.57 206.89 256.71 218.95 C 250.63 214.61 244.61 210.20 238.54 205.86 C 243.32 198.64 247.29 190.86 250.38 182.77 Z" />
</g>
</svg>