<svg width="50px" height="29px" viewBox="0 0 250 145" version="1.1" xmlns="http://www.w3.org/2000/svg">
<g id="#333333ff">
<path fill="#333333" opacity="1.00" d=" M 8.49 0.00 L 241.44 0.00 C 245.22 1.67 248.06 4.72 250.00 8.32 L 250.00 14.51 C 247.83 19.15 243.50 23.13 238.08 22.85 C 164.72 22.93 91.36 22.81 18.01 22.91 C 13.90 22.79 9.42 23.44 5.70 21.27 C 3.07 19.80 1.63 17.06 0.00 14.64 L 0.00 8.45 C 1.74 4.71 4.78 1.78 8.49 0.00 Z" />
<path fill="#333333" opacity="1.00" d=" M 7.02 62.02 C 11.16 60.48 15.69 61.12 20.01 61.01 C 92.68 61.09 165.36 60.98 238.04 61.06 C 243.47 60.81 247.83 64.76 250.00 69.42 L 250.00 75.51 C 247.88 80.21 243.52 84.18 238.08 83.93 C 162.70 83.98 87.30 83.98 11.92 83.93 C 6.49 84.18 2.16 80.23 0.00 75.58 L 0.00 69.49 C 1.64 66.47 3.68 63.32 7.02 62.02 Z" />
<path fill="#333333" opacity="1.00" d=" M 7.69 122.85 C 12.01 121.61 16.57 122.24 21.00 122.11 C 90.67 122.14 160.33 122.15 230.00 122.11 C 234.32 122.24 238.86 121.56 243.01 123.11 C 246.33 124.35 248.16 127.55 250.00 130.36 L 250.00 136.55 C 248.23 140.27 245.23 143.23 241.52 145.00 L 8.55 145.00 C 4.82 143.27 1.79 140.32 0.00 136.61 L 0.00 130.50 C 1.75 127.31 4.02 123.96 7.69 122.85 Z" />
</g>
</svg>