<svg width="100px" height="200px" viewBox="0 0 500 1000" version="1.1" xmlns="http://www.w3.org/2000/svg">
<g id="#929292ff">
<path fill="#929292" opacity="1.00" d=" M 220.03 94.10 C 226.24 91.06 233.23 90.06 240.06 89.53 C 250.73 88.94 261.68 89.63 271.84 93.17 C 275.68 94.64 280.50 97.18 280.50 101.90 C 280.59 113.18 280.49 124.45 280.54 135.72 C 289.08 136.08 297.84 136.84 305.80 140.19 C 309.00 141.65 312.82 143.95 312.94 147.91 C 313.06 157.31 313.03 166.72 312.95 176.12 C 312.98 180.08 309.21 182.53 306.00 183.99 C 298.10 187.26 289.44 188.14 280.96 188.28 C 272.04 188.33 262.94 187.59 254.53 184.43 C 251.44 183.13 248.01 181.33 246.79 177.99 C 246.25 175.28 246.49 172.49 246.47 169.75 C 238.00 169.52 229.32 168.83 221.40 165.59 C 217.88 164.10 213.76 161.42 214.02 157.07 C 214.00 138.70 213.97 120.33 214.03 101.97 C 213.84 98.26 217.03 95.64 220.03 94.10 M 229.10 97.41 C 225.76 98.28 222.23 99.26 219.82 101.90 C 224.38 105.25 230.07 106.37 235.56 107.16 C 244.74 108.27 254.12 108.07 263.19 106.22 C 267.19 105.26 271.49 104.39 274.58 101.47 C 269.06 97.89 262.42 96.76 256.01 95.98 C 247.05 95.10 237.89 95.29 229.10 97.41 M 220.16 109.38 C 220.17 111.54 220.06 113.71 220.29 115.86 C 222.13 117.89 224.93 118.59 227.44 119.42 C 238.16 122.38 249.52 122.27 260.46 120.72 C 260.47 118.16 260.47 115.59 260.48 113.03 C 247.05 114.72 232.81 114.77 220.16 109.38 M 220.16 123.31 C 220.17 125.47 220.06 127.64 220.29 129.80 C 222.45 132.07 225.70 132.77 228.60 133.66 C 239.00 136.21 249.92 136.21 260.48 134.62 C 260.47 132.06 260.47 129.50 260.47 126.95 C 247.05 128.65 232.80 128.69 220.16 123.31 M 220.15 137.24 C 220.18 139.47 220.19 141.70 220.17 143.93 C 227.85 148.90 237.41 149.35 246.28 149.65 C 246.24 146.50 247.68 143.68 250.18 141.79 C 240.04 142.12 229.56 141.35 220.15 137.24 M 252.26 148.05 C 255.52 150.99 259.90 152.05 264.09 152.92 C 273.65 154.72 283.52 154.68 293.12 153.13 C 298.01 152.22 303.08 151.13 307.14 148.07 C 304.11 145.86 300.55 144.61 296.92 143.82 C 287.20 141.65 277.06 141.37 267.20 142.72 C 261.99 143.61 256.45 144.58 252.26 148.05 M 220.15 151.17 C 220.18 153.42 220.19 155.68 220.17 157.93 C 227.97 162.78 237.54 163.20 246.47 163.58 C 246.47 161.00 246.47 158.42 246.47 155.85 C 237.54 155.70 228.40 154.83 220.15 151.17 M 252.63 155.82 C 252.84 158.09 252.09 160.65 253.16 162.72 C 256.11 165.09 259.96 165.88 263.55 166.75 C 272.66 168.56 282.05 168.56 291.24 167.38 C 291.23 164.82 291.23 162.25 291.24 159.69 C 278.34 161.05 264.75 160.98 252.63 155.82 M 252.64 169.75 C 252.82 172.03 252.14 174.58 253.08 176.69 C 255.77 178.75 259.17 179.55 262.40 180.38 C 271.85 182.44 281.65 182.46 291.24 181.43 C 291.23 178.81 291.23 176.20 291.24 173.59 C 278.35 174.98 264.75 174.91 252.64 169.75 Z" />
<path fill="#929292" opacity="1.00" d=" M 160.00 190.53 C 168.65 190.60 177.31 190.41 185.96 190.61 C 190.22 190.67 193.93 193.11 196.68 196.20 C 205.47 196.20 214.26 196.22 223.05 196.18 C 231.46 196.02 239.17 200.44 245.42 205.71 C 247.95 207.75 250.42 210.73 254.04 210.34 C 262.39 210.07 271.39 208.82 279.06 212.97 C 282.40 214.64 284.63 217.76 286.09 221.11 C 293.04 219.94 299.90 218.17 306.48 215.60 C 313.99 212.70 322.47 211.55 330.30 213.84 C 334.61 215.11 339.09 218.12 339.86 222.87 C 340.25 226.66 339.74 231.02 336.91 233.84 C 334.61 235.99 331.72 237.35 328.96 238.80 C 315.80 245.31 302.48 251.51 289.60 258.57 C 284.84 261.31 280.18 264.30 274.95 266.09 C 263.17 270.43 250.17 269.96 238.09 267.15 C 224.33 263.66 211.58 257.19 198.10 252.85 C 195.64 257.23 191.22 260.76 186.02 260.82 C 177.35 260.95 168.68 260.82 160.00 260.87 C 160.00 237.42 160.00 213.98 160.00 190.53 M 199.35 207.46 C 199.35 218.82 199.36 230.18 199.35 241.54 C 215.24 245.95 229.82 254.57 246.20 257.31 C 257.02 259.08 268.68 258.02 278.18 252.20 C 294.63 242.25 312.52 235.04 329.30 225.73 C 323.37 222.50 316.15 223.91 310.15 226.22 C 302.47 229.27 294.40 231.22 286.25 232.49 C 283.48 238.77 276.26 240.96 269.93 241.10 C 257.66 241.33 245.39 241.14 233.12 241.20 C 233.12 237.44 233.12 233.69 233.12 229.94 C 244.41 229.93 255.70 229.94 267.00 229.94 C 269.99 229.98 273.00 229.60 275.81 228.51 C 275.41 226.45 275.75 223.64 273.36 222.71 C 265.92 219.59 257.74 222.45 250.02 221.26 C 244.16 220.33 240.13 215.67 235.61 212.30 C 231.95 209.65 227.67 207.31 223.02 207.44 C 215.13 207.48 207.24 207.47 199.35 207.46 Z" />
</g>
<g id="#ffffffff">
<path fill="#ffffff" opacity="1.00" d=" M 219.39 594.44 C 225.12 591.39 231.67 590.34 238.05 589.68 C 249.37 588.82 261.03 589.43 271.83 593.16 C 275.75 594.65 280.63 597.27 280.52 602.12 C 280.56 613.32 280.51 624.52 280.53 635.72 C 289.04 636.07 297.75 636.84 305.69 640.14 C 308.93 641.59 312.81 643.90 312.94 647.89 C 313.05 657.28 313.02 666.68 312.96 676.07 C 313.01 680.06 309.23 682.52 306.00 683.98 C 298.13 687.26 289.48 688.14 281.02 688.28 C 272.06 688.34 262.93 687.59 254.48 684.42 C 251.40 683.10 248.00 681.31 246.77 677.98 C 246.24 675.26 246.51 672.48 246.47 669.75 C 238.05 669.52 229.42 668.83 221.53 665.64 C 217.98 664.16 213.76 661.49 214.01 657.10 C 214.00 638.70 213.97 620.30 214.02 601.91 C 213.86 598.49 216.65 595.96 219.39 594.44 M 230.21 597.14 C 226.52 598.06 222.56 598.99 219.82 601.84 C 224.17 605.19 229.69 606.25 234.98 607.08 C 243.64 608.20 252.49 608.10 261.11 606.63 C 265.82 605.76 270.61 604.58 274.60 601.80 C 270.77 598.54 265.64 597.65 260.87 596.66 C 250.74 595.02 240.27 594.99 230.21 597.14 M 220.17 616.04 C 224.19 618.95 229.14 620.02 233.93 620.85 C 242.71 622.20 251.70 622.03 260.47 620.70 C 260.47 618.13 260.47 615.57 260.47 613.02 C 247.06 614.73 232.80 614.78 220.17 609.38 C 220.18 611.59 220.18 613.81 220.17 616.04 M 220.16 623.31 C 220.18 625.47 220.06 627.65 220.29 629.83 C 222.47 632.03 225.66 632.77 228.54 633.65 C 238.96 636.21 249.90 636.20 260.47 634.62 C 260.47 632.06 260.47 629.50 260.47 626.94 C 247.05 628.65 232.80 628.70 220.16 623.31 M 220.15 637.24 C 220.17 639.45 220.18 641.68 220.18 643.91 C 227.83 648.93 237.43 649.33 246.30 649.65 C 246.21 646.50 247.68 643.65 250.20 641.80 C 240.06 642.11 229.56 641.37 220.15 637.24 M 252.28 648.05 C 255.73 651.19 260.44 652.17 264.88 653.07 C 274.75 654.79 284.95 654.65 294.80 652.82 C 299.11 651.90 303.56 650.82 307.12 648.07 C 304.12 645.85 300.56 644.62 296.96 643.84 C 287.22 641.65 277.07 641.37 267.20 642.72 C 262.00 643.62 256.45 644.57 252.28 648.05 M 220.15 651.16 C 220.17 653.41 220.18 655.67 220.18 657.93 C 227.98 662.78 237.54 663.20 246.46 663.58 C 246.47 660.99 246.47 658.42 246.47 655.84 C 237.54 655.70 228.40 654.85 220.15 651.16 M 252.64 655.82 C 252.85 658.07 252.11 660.61 253.14 662.70 C 256.09 665.07 259.91 665.86 263.50 666.74 C 272.62 668.55 282.04 668.56 291.24 667.38 C 291.23 664.81 291.23 662.24 291.24 659.69 C 278.35 661.06 264.75 660.99 252.64 655.82 M 252.64 669.75 C 252.64 671.88 252.55 674.03 252.73 676.18 C 254.40 678.20 257.17 678.78 259.54 679.63 C 269.82 682.50 280.69 682.53 291.24 681.43 C 291.23 678.81 291.23 676.19 291.23 673.59 C 278.35 674.98 264.75 674.91 252.64 669.75 Z" />
<path fill="#ffffff" opacity="1.00" d=" M 160.00 690.53 C 168.66 690.59 177.32 690.42 185.97 690.61 C 190.20 690.69 193.95 693.06 196.64 696.19 C 206.08 696.23 215.52 696.15 224.97 696.22 C 232.88 696.73 239.98 701.05 245.88 706.09 C 248.22 708.05 250.63 710.72 254.01 710.35 C 262.19 710.07 270.92 708.88 278.53 712.68 C 282.08 714.34 284.61 717.53 286.08 721.11 C 293.01 719.95 299.85 718.19 306.40 715.63 C 313.93 712.71 322.43 711.54 330.28 713.84 C 334.62 715.11 339.12 718.14 339.87 722.92 C 340.19 726.08 339.86 729.47 338.20 732.25 C 336.49 734.90 333.53 736.33 330.86 737.82 C 315.39 745.68 299.45 752.68 284.51 761.54 C 274.25 767.82 261.90 770.23 249.97 769.06 C 231.61 767.70 215.33 758.34 198.08 752.85 C 195.66 757.26 191.19 760.75 186.00 760.83 C 177.34 760.93 168.67 760.82 160.00 760.87 C 160.00 737.42 160.00 713.98 160.00 690.53 M 199.35 707.47 C 199.34 718.82 199.36 730.18 199.34 741.54 C 210.34 744.59 220.63 749.65 231.41 753.35 C 242.95 757.60 255.78 759.72 267.86 756.57 C 275.63 754.64 281.96 749.52 289.06 746.08 C 302.30 738.97 316.16 733.06 329.28 725.75 C 323.69 722.62 316.80 723.82 311.05 725.89 C 303.08 729.08 294.71 731.20 286.23 732.49 C 283.51 738.79 276.26 740.95 269.94 741.10 C 257.67 741.33 245.39 741.14 233.12 741.20 C 233.12 737.44 233.12 733.68 233.12 729.93 C 244.41 729.93 255.70 729.93 267.00 729.94 C 269.99 729.97 273.01 729.64 275.79 728.48 C 275.34 726.62 275.87 724.06 273.86 723.01 C 264.50 718.30 253.03 724.88 244.02 718.89 C 237.92 714.70 232.63 708.37 224.83 707.51 C 216.34 707.39 207.84 707.51 199.35 707.47 Z" />
</g>
</svg>