<svg width="100px" height="200px" viewBox="0 0 500 1000" version="1.1" xmlns="http://www.w3.org/2000/svg">
<g id="#929292ff">
<path fill="#929292" opacity="1.00" d=" M 245.00 107.92 C 253.35 102.54 264.96 103.06 272.78 109.19 C 277.72 112.84 280.86 118.42 282.25 124.33 C 284.63 125.18 286.97 126.12 289.29 127.13 C 299.75 118.30 314.29 117.64 327.33 117.94 C 323.56 128.62 319.56 139.20 315.55 149.79 C 317.88 153.60 319.80 157.65 321.28 161.87 C 325.47 162.00 329.70 161.55 333.87 162.12 C 337.32 162.98 339.97 166.31 339.95 169.89 C 340.04 177.27 340.03 184.66 339.96 192.05 C 340.08 196.34 336.34 200.28 332.01 200.22 C 327.23 200.38 322.45 200.18 317.67 200.29 C 314.87 205.41 311.28 210.05 307.17 214.19 C 307.13 221.48 307.25 228.77 307.14 236.07 C 307.24 240.40 303.40 244.28 299.06 244.16 C 293.69 244.25 288.31 244.21 282.95 244.18 C 280.06 244.26 277.16 242.86 275.65 240.37 C 273.91 237.72 274.45 234.41 274.32 231.43 C 263.58 233.77 252.37 233.77 241.62 231.47 C 241.51 234.65 242.04 238.27 239.89 240.95 C 238.11 243.44 234.95 244.37 232.01 244.21 C 226.67 244.13 221.32 244.36 215.99 244.09 C 211.95 243.79 208.70 240.01 208.79 236.00 C 208.70 228.71 208.81 221.42 208.76 214.12 C 200.33 205.87 194.37 195.01 192.76 183.26 C 188.66 182.36 184.71 180.92 180.92 179.13 C 176.16 182.12 170.65 183.71 165.03 183.85 C 164.99 180.20 164.99 176.55 165.00 172.91 C 166.95 172.63 168.91 172.33 170.85 172.01 C 167.36 167.85 164.24 162.56 165.21 156.91 C 166.09 150.69 171.72 145.56 178.02 145.38 C 184.42 144.95 190.63 149.67 191.97 155.93 C 193.17 161.07 191.28 166.26 188.99 170.81 C 190.17 171.20 191.35 171.58 192.54 171.97 C 194.06 158.57 201.01 146.05 211.23 137.31 C 217.77 131.58 225.50 127.30 233.68 124.41 C 235.15 117.72 239.09 111.52 245.00 107.92 M 298.14 134.09 C 295.66 135.92 294.58 139.94 290.94 139.85 C 287.53 139.53 284.86 136.95 281.73 135.74 C 280.72 138.31 279.53 140.79 278.11 143.15 C 280.40 144.00 282.67 144.87 284.94 145.77 C 283.53 149.14 282.11 152.51 280.70 155.88 C 266.48 149.21 249.47 149.17 235.26 155.90 C 233.83 152.52 232.41 149.15 231.00 145.77 C 233.25 144.87 235.51 143.99 237.79 143.15 C 236.43 140.82 235.25 138.40 234.29 135.88 C 225.52 139.49 217.45 145.10 211.71 152.72 C 205.99 160.17 202.74 169.62 203.36 179.05 C 203.91 189.21 208.78 198.88 216.06 205.91 C 217.45 207.43 219.48 208.82 219.56 211.09 C 219.89 218.45 219.62 225.83 219.71 233.20 C 223.35 233.20 227.00 233.20 230.65 233.20 C 230.64 231.54 230.64 229.89 230.64 228.24 C 228.34 227.19 225.48 225.91 225.22 223.02 C 224.41 218.92 229.16 215.21 232.92 217.24 C 246.03 222.71 260.95 223.77 274.67 219.99 C 275.69 218.93 276.58 217.56 278.07 217.07 C 281.12 215.83 284.96 218.18 285.20 221.48 C 285.46 225.38 285.21 229.29 285.29 233.20 C 288.94 233.20 292.59 233.20 296.24 233.20 C 296.22 228.38 296.28 223.56 296.20 218.74 C 294.90 217.11 293.32 215.28 293.84 213.02 C 294.11 210.66 296.24 209.32 297.82 207.83 C 302.57 203.77 306.36 198.65 309.06 193.02 C 309.90 191.04 311.68 189.37 313.95 189.36 C 318.98 189.10 324.02 189.35 329.06 189.26 C 329.06 183.78 329.06 178.29 329.06 172.80 C 325.00 172.74 320.93 172.91 316.88 172.76 C 314.93 172.76 312.94 171.61 312.22 169.77 C 310.97 166.29 310.09 162.68 308.42 159.36 C 306.40 158.73 304.14 157.91 303.26 155.80 C 302.24 153.85 303.08 151.69 303.78 149.80 C 306.38 143.05 308.95 136.28 311.50 129.50 C 306.89 130.42 302.08 131.37 298.14 134.09 M 177.12 156.89 C 174.60 158.81 176.92 162.14 178.37 163.98 C 180.44 164.13 180.87 161.51 181.35 160.00 C 182.10 157.67 179.04 155.08 177.12 156.89 Z" />
</g>
<g id="#ffffffff">
<path fill="#ffffff" opacity="1.00" d=" M 246.19 607.21 C 254.42 602.56 265.32 603.36 272.77 609.19 C 277.70 612.83 280.89 618.40 282.23 624.33 C 284.62 625.16 286.98 626.10 289.30 627.14 C 299.74 618.28 314.30 617.65 327.34 617.94 C 323.56 628.61 319.56 639.21 315.55 649.79 C 317.89 653.60 319.82 657.65 321.28 661.87 C 326.49 662.44 332.63 660.30 337.11 663.82 C 340.20 666.23 340.13 670.42 340.02 673.97 C 339.95 680.00 340.07 686.04 339.97 692.09 C 340.05 696.34 336.36 700.25 332.06 700.23 C 327.27 700.36 322.47 700.20 317.67 700.29 C 314.88 705.41 311.29 710.06 307.17 714.18 C 307.14 721.46 307.23 728.73 307.15 736.01 C 307.27 740.37 303.41 744.29 299.03 744.17 C 293.67 744.24 288.31 744.21 282.95 744.19 C 280.08 744.27 277.20 742.87 275.68 740.42 C 273.90 737.77 274.44 734.42 274.33 731.43 C 263.58 733.77 252.36 733.78 241.61 731.46 C 241.62 735.05 242.01 739.35 238.97 741.97 C 235.79 745.08 231.01 744.02 227.00 744.20 C 222.98 744.06 218.91 744.53 214.92 743.92 C 211.36 743.11 208.72 739.62 208.78 735.99 C 208.71 728.70 208.79 721.40 208.76 714.11 C 200.33 705.87 194.36 695.00 192.77 683.25 C 188.69 682.36 184.72 680.99 181.00 679.10 C 176.21 682.08 170.68 683.73 165.04 683.84 C 164.98 680.19 165.00 676.54 165.00 672.89 C 166.96 672.64 168.93 672.34 170.88 671.99 C 167.32 667.85 164.20 662.48 165.23 656.81 C 166.14 650.62 171.78 645.54 178.05 645.38 C 184.12 644.99 190.05 649.21 191.73 655.04 C 193.37 660.40 191.45 666.02 188.98 670.80 C 190.17 671.18 191.35 671.58 192.54 671.98 C 194.04 658.55 201.03 646.01 211.27 637.27 C 217.81 631.56 225.52 627.28 233.70 624.42 C 235.20 617.25 239.69 610.70 246.19 607.21 M 297.56 634.55 C 295.52 636.48 294.32 639.93 290.99 639.84 C 287.54 639.59 284.88 636.91 281.72 635.73 C 280.75 638.31 279.54 640.79 278.10 643.15 C 280.39 643.98 282.67 644.86 284.94 645.77 C 283.53 649.14 282.11 652.51 280.70 655.89 C 266.48 649.20 249.47 649.18 235.26 655.90 C 233.84 652.52 232.41 649.15 231.00 645.77 C 233.25 644.86 235.52 643.98 237.80 643.15 C 236.41 640.83 235.23 638.40 234.30 635.87 C 220.35 641.46 208.00 652.92 204.39 667.87 C 200.91 681.23 205.81 695.84 215.53 705.38 C 217.01 707.08 219.36 708.47 219.55 710.94 C 219.88 718.35 219.62 725.78 219.70 733.20 C 223.35 733.20 227.00 733.20 230.65 733.20 C 230.65 731.53 230.65 729.87 230.64 728.22 C 228.83 727.27 226.53 726.58 225.67 724.52 C 224.21 721.63 225.95 717.75 229.07 716.91 C 230.81 716.28 232.56 717.10 234.18 717.69 C 246.94 722.86 261.41 723.59 274.68 720.00 C 275.70 718.89 276.61 717.51 278.12 717.05 C 281.18 715.85 284.98 718.22 285.21 721.51 C 285.44 725.40 285.22 729.30 285.29 733.20 C 288.94 733.20 292.59 733.20 296.24 733.20 C 296.22 728.36 296.27 723.52 296.21 718.69 C 293.58 716.47 292.72 712.06 295.69 709.75 C 301.20 705.19 305.98 699.66 309.00 693.13 C 309.84 691.01 311.78 689.29 314.16 689.33 C 319.12 689.14 324.09 689.32 329.06 689.27 C 329.06 683.77 329.06 678.29 329.06 672.80 C 324.98 672.75 320.89 672.90 316.82 672.76 C 314.66 672.77 312.58 671.27 311.98 669.20 C 310.95 665.86 309.95 662.50 308.43 659.35 C 305.04 658.83 301.70 655.62 303.05 651.99 C 305.71 644.44 308.74 637.02 311.50 629.51 C 306.67 630.47 301.54 631.44 297.56 634.55 M 176.07 658.23 C 175.61 660.77 177.62 662.76 178.96 664.67 C 180.22 662.75 182.09 660.49 181.15 658.06 C 180.38 655.65 176.72 655.86 176.07 658.23 Z" />
</g>
</svg>