<svg width="100px" height="200px" viewBox="0 0 500 1000" version="1.1" xmlns="http://www.w3.org/2000/svg">
<g id="#929292ff">
<path fill="#929292" opacity="1.00" d=" M 193.20 99.16 C 198.77 98.67 204.39 99.05 209.98 98.94 C 215.38 99.05 221.09 98.28 226.17 100.60 C 233.88 103.74 239.28 111.71 239.26 120.05 C 239.29 127.68 239.38 135.31 239.22 142.94 C 238.91 152.79 230.85 161.66 221.08 162.93 C 215.75 163.49 210.38 163.08 205.03 163.20 C 199.29 163.08 193.22 163.88 187.84 161.39 C 180.61 158.31 175.42 150.94 175.08 143.07 C 174.87 137.72 175.07 132.37 175.00 127.02 C 175.05 122.14 174.56 117.03 176.52 112.42 C 179.23 105.47 185.81 100.21 193.20 99.16 M 192.33 110.43 C 188.52 111.97 185.77 115.85 185.77 120.00 C 185.65 127.34 185.68 134.68 185.75 142.02 C 185.71 147.48 190.53 152.43 196.01 152.43 C 203.35 152.51 210.69 152.49 218.03 152.44 C 223.64 152.56 228.61 147.52 228.55 141.94 C 228.61 134.64 228.65 127.33 228.53 120.03 C 228.54 114.84 224.19 110.08 218.99 109.71 C 214.01 109.41 209.01 109.69 204.01 109.60 C 200.13 109.75 196.06 109.05 192.33 110.43 Z" />
<path fill="#929292" opacity="1.00" d=" M 276.36 99.70 C 284.77 98.10 293.43 99.32 301.94 98.92 C 310.54 98.28 319.24 103.19 322.87 111.05 C 326.02 117.23 324.75 124.35 325.00 131.00 C 324.75 137.42 325.93 144.22 323.23 150.29 C 320.16 157.49 312.88 162.72 305.03 163.11 C 299.71 163.34 294.38 163.13 289.05 163.20 C 284.07 163.15 278.87 163.65 274.17 161.65 C 266.25 158.58 260.69 150.45 260.73 141.96 C 260.72 134.32 260.62 126.68 260.78 119.05 C 261.14 110.13 267.77 102.01 276.36 99.70 M 277.47 110.68 C 273.58 112.48 271.26 116.73 271.43 120.95 C 271.41 127.97 271.35 134.99 271.46 142.01 C 271.45 147.57 276.39 152.57 281.98 152.45 C 289.30 152.48 296.63 152.51 303.95 152.43 C 309.46 152.45 314.31 147.48 314.26 141.99 C 314.32 134.67 314.35 127.35 314.24 120.03 C 314.29 114.55 309.44 109.69 303.98 109.65 C 298.01 109.48 292.03 109.68 286.06 109.58 C 283.18 109.62 280.13 109.36 277.47 110.68 Z" />
<path fill="#929292" opacity="1.00" d=" M 190.39 185.51 C 198.77 183.71 207.46 184.99 215.97 184.59 C 224.44 184.03 233.08 188.57 236.90 196.25 C 240.20 202.27 239.12 209.35 239.29 215.93 C 239.10 221.56 239.83 227.29 238.60 232.84 C 236.40 242.01 227.53 248.98 218.09 248.91 C 210.39 248.92 202.69 249.02 194.99 248.85 C 184.66 248.41 175.60 239.43 175.10 229.11 C 174.88 221.37 175.02 213.63 175.02 205.89 C 174.92 196.67 181.54 187.98 190.39 185.51 M 195.32 195.44 C 190.41 195.81 186.10 200.08 185.82 205.03 C 185.55 212.33 185.76 219.65 185.71 226.96 C 185.33 232.67 190.18 238.14 195.95 238.16 C 203.32 238.25 210.70 238.22 218.07 238.17 C 223.53 238.27 228.43 233.46 228.53 228.03 C 228.70 222.02 228.51 216.01 228.61 210.01 C 228.60 206.67 228.82 203.00 226.78 200.14 C 224.72 196.91 220.86 195.17 217.08 195.33 C 209.83 195.39 202.57 195.18 195.32 195.44 Z" />
<path fill="#929292" opacity="1.00" d=" M 277.29 185.20 C 282.12 184.21 287.07 184.71 291.96 184.60 C 296.97 184.71 302.01 184.30 306.99 184.93 C 316.35 186.27 324.15 194.54 324.87 203.98 C 325.17 209.63 324.91 215.29 325.00 220.95 C 324.96 225.78 325.41 230.84 323.48 235.41 C 320.57 242.95 313.06 248.46 304.96 248.85 C 299.66 249.06 294.35 248.87 289.05 248.94 C 284.14 248.88 279.02 249.38 274.37 247.46 C 266.43 244.47 260.77 236.40 260.74 227.89 C 260.70 220.27 260.64 212.64 260.77 205.02 C 261.03 195.68 268.19 187.18 277.29 185.20 M 281.25 195.42 C 276.17 195.69 271.75 200.11 271.52 205.20 C 271.24 210.82 271.51 216.45 271.40 222.07 C 271.30 226.62 270.98 231.97 274.77 235.26 C 279.07 239.57 285.60 237.88 291.03 238.20 C 296.70 237.80 302.68 239.18 308.13 237.21 C 311.97 235.42 314.48 231.28 314.29 227.05 C 314.29 220.03 314.35 213.01 314.25 206.00 C 314.40 200.43 309.52 195.41 303.96 195.38 C 296.39 195.31 288.81 195.24 281.25 195.42 Z" />
</g>
<g id="#ffffffff">
<path fill="#ffffff" opacity="1.00" d=" M 190.49 599.74 C 194.54 598.54 198.80 599.01 202.96 598.93 C 208.65 599.01 214.34 598.78 220.03 599.04 C 230.17 599.84 238.86 608.85 239.22 619.04 C 239.35 627.02 239.34 635.02 239.22 643.01 C 238.88 653.60 229.53 662.88 218.93 663.14 C 211.31 663.26 203.67 663.20 196.04 663.17 C 187.55 663.15 179.47 657.50 176.48 649.56 C 174.55 644.93 175.06 639.82 175.00 634.94 C 175.06 629.59 174.88 624.24 175.08 618.91 C 175.48 610.10 182.03 602.09 190.49 599.74 M 193.26 610.10 C 188.98 611.37 185.75 615.54 185.76 620.03 C 185.65 627.36 185.68 634.69 185.74 642.02 C 185.71 647.47 190.53 652.43 196.02 652.44 C 203.36 652.50 210.70 652.47 218.04 652.45 C 223.67 652.56 228.64 647.47 228.56 641.87 C 228.61 634.69 228.62 627.52 228.55 620.35 C 228.61 616.06 225.86 611.94 221.86 610.39 C 218.06 609.03 213.94 609.78 209.99 609.60 C 204.42 609.84 198.75 609.05 193.26 610.10 Z" />
<path fill="#ffffff" opacity="1.00" d=" M 276.41 599.69 C 284.82 598.10 293.49 599.32 302.01 598.92 C 310.86 598.26 319.78 603.56 323.21 611.78 C 325.61 616.86 324.90 622.61 325.00 628.05 C 324.91 633.43 325.20 638.82 324.84 644.19 C 323.95 653.82 315.68 662.11 306.05 663.03 C 300.71 663.41 295.35 663.10 290.00 663.20 C 284.71 663.09 279.17 663.77 274.17 661.65 C 266.26 658.58 260.69 650.45 260.72 641.96 C 260.72 634.31 260.62 626.66 260.77 619.01 C 261.17 610.09 267.80 601.97 276.41 599.69 M 277.45 610.69 C 273.78 612.41 271.43 616.34 271.44 620.37 C 271.38 627.52 271.39 634.68 271.44 641.84 C 271.36 647.48 276.35 652.60 282.04 652.45 C 289.33 652.47 296.63 652.50 303.92 652.44 C 309.42 652.47 314.28 647.51 314.26 642.04 C 314.31 634.68 314.35 627.31 314.24 619.96 C 314.25 614.52 309.44 609.71 304.02 609.65 C 298.02 609.50 292.01 609.66 286.00 609.59 C 283.14 609.62 280.10 609.35 277.45 610.69 Z" />
<path fill="#ffffff" opacity="1.00" d=" M 192.17 685.07 C 200.70 684.11 209.34 684.78 217.91 684.63 C 228.93 684.42 238.99 693.94 239.23 704.98 C 239.32 712.97 239.37 720.97 239.21 728.96 C 238.77 738.74 230.69 747.44 220.99 748.68 C 215.67 749.21 210.31 748.81 204.98 748.93 C 199.45 748.79 193.68 749.59 188.44 747.38 C 180.65 744.34 175.10 736.40 175.03 728.03 C 174.99 720.33 174.93 712.63 175.06 704.93 C 175.34 695.42 182.85 686.81 192.17 685.07 M 195.32 695.43 C 190.06 695.82 185.65 700.67 185.75 705.94 C 185.67 713.31 185.65 720.68 185.76 728.05 C 185.87 733.38 190.62 738.13 195.97 738.17 C 203.32 738.23 210.68 738.21 218.04 738.18 C 224.32 738.32 229.29 732.18 228.60 726.09 C 228.53 719.27 228.69 712.46 228.53 705.65 C 228.50 700.10 223.51 695.29 217.99 695.36 C 210.43 695.35 202.87 695.21 195.32 695.43 Z" />
<path fill="#ffffff" opacity="1.00" d=" M 277.30 685.19 C 285.80 683.97 294.46 684.86 303.02 684.61 C 313.87 684.16 324.07 693.06 324.87 703.93 C 325.14 711.97 324.97 720.03 324.97 728.08 C 324.89 736.43 319.34 744.32 311.60 747.37 C 305.68 749.80 299.17 748.68 292.96 748.93 C 286.32 748.67 279.25 749.93 273.05 746.90 C 265.80 743.58 260.80 735.94 260.73 727.95 C 260.70 720.31 260.65 712.67 260.76 705.03 C 261.03 695.69 268.18 687.17 277.30 685.19 M 281.26 695.41 C 277.27 695.66 273.57 698.41 272.18 702.16 C 271.25 704.63 271.42 707.32 271.40 709.91 C 271.47 715.89 271.33 721.87 271.45 727.85 C 271.50 733.38 276.44 738.30 282.00 738.18 C 289.34 738.21 296.68 738.23 304.02 738.17 C 309.39 738.14 314.15 733.37 314.25 728.02 C 314.35 720.68 314.32 713.34 314.26 706.01 C 314.40 700.39 309.45 695.35 303.84 695.37 C 296.32 695.33 288.78 695.25 281.26 695.41 Z" />
</g>
</svg>