<svg width="100px" height="200px" viewBox="0 0 500 1000" version="1.1" xmlns="http://www.w3.org/2000/svg">
<g id="#929292ff">
<path fill="#929292" opacity="1.00" d=" M 220.15 117.93 C 220.71 113.19 225.19 109.38 229.94 109.44 C 243.28 109.37 256.62 109.38 269.95 109.44 C 274.73 109.33 279.27 113.14 279.85 117.90 C 280.21 121.72 279.91 125.57 280.00 129.40 C 290.31 129.45 300.62 129.31 310.93 129.47 C 321.09 129.70 330.03 138.79 329.96 148.99 C 330.06 177.66 329.96 206.33 330.01 235.00 C 330.03 238.98 330.15 243.12 328.57 246.86 C 325.70 254.35 317.94 259.57 309.91 259.45 C 269.93 259.47 229.94 259.48 189.96 259.45 C 179.51 259.68 170.03 250.50 170.04 240.03 C 169.97 209.69 169.98 179.34 170.04 149.00 C 169.96 138.80 178.90 129.70 189.07 129.47 C 199.38 129.30 209.69 129.45 220.00 129.40 C 220.08 125.58 219.79 121.74 220.15 117.93 M 231.14 121.24 C 229.35 123.55 230.17 126.71 229.99 129.40 C 243.33 129.40 256.67 129.40 270.01 129.40 C 270.07 125.95 270.72 120.71 266.34 119.63 C 257.26 119.06 248.13 119.59 239.04 119.37 C 236.37 119.50 233.04 118.84 231.14 121.24 M 180.07 148.88 C 179.88 157.41 180.06 165.94 180.00 174.47 C 226.67 174.47 273.33 174.47 320.00 174.47 C 319.94 165.95 320.10 157.42 319.94 148.90 C 319.88 143.34 314.48 138.92 309.04 139.41 C 269.66 139.38 230.27 139.40 190.89 139.40 C 185.50 138.99 180.12 143.34 180.07 148.88 M 180.01 184.46 C 180.00 202.66 179.98 220.85 180.01 239.05 C 179.64 244.54 184.49 249.56 189.98 249.44 C 227.99 249.52 266.01 249.44 304.02 249.48 C 306.70 249.47 309.39 249.61 312.06 249.21 C 316.72 248.34 320.27 243.79 319.99 239.05 C 320.01 220.85 320.00 202.66 319.99 184.46 C 303.14 184.46 286.28 184.49 269.43 184.45 C 271.67 193.21 267.39 203.09 259.26 207.16 C 251.25 211.52 240.43 209.39 234.69 202.30 C 230.48 197.46 229.17 190.63 230.57 184.44 C 213.72 184.49 196.86 184.46 180.01 184.46 M 241.22 184.46 C 239.53 188.08 239.51 192.65 242.28 195.77 C 245.80 200.38 253.44 200.67 257.26 196.28 C 260.42 193.19 260.59 188.29 258.79 184.46 C 252.93 184.47 247.08 184.47 241.22 184.46 Z" />
</g>
<g id="#ffffffff">
<path fill="#ffffff" opacity="1.00" d=" M 220.57 616.07 C 221.95 612.21 225.82 609.40 229.94 609.44 C 243.25 609.36 256.56 609.38 269.87 609.43 C 274.66 609.29 279.21 613.07 279.85 617.83 C 280.20 621.68 279.91 625.54 280.00 629.40 C 290.22 629.44 300.45 629.32 310.67 629.45 C 320.94 629.56 330.04 638.71 329.97 649.00 C 330.02 679.35 330.03 709.71 329.96 740.06 C 329.95 750.55 320.43 759.72 309.96 759.45 C 269.99 759.48 230.02 759.48 190.05 759.45 C 179.55 759.72 170.01 750.51 170.04 739.99 C 169.98 709.65 169.97 679.31 170.04 648.97 C 169.98 638.78 178.92 629.69 189.08 629.47 C 199.38 629.30 209.69 629.45 220.00 629.40 C 220.22 624.96 219.45 620.41 220.57 616.07 M 231.70 620.66 C 229.20 622.84 230.18 626.50 230.00 629.40 C 243.33 629.40 256.67 629.40 270.00 629.40 C 270.01 627.27 270.13 625.13 269.79 623.03 C 269.24 620.88 267.09 619.37 264.89 619.44 C 255.93 619.31 246.97 619.47 238.01 619.38 C 235.89 619.47 233.41 619.08 231.70 620.66 M 180.06 648.98 C 179.90 657.47 180.06 665.97 180.00 674.47 C 226.67 674.47 273.33 674.47 320.00 674.47 C 319.95 665.95 320.09 657.43 319.95 648.92 C 319.88 643.63 314.94 639.18 309.69 639.43 C 270.10 639.37 230.51 639.42 190.91 639.40 C 185.48 638.97 180.06 643.40 180.06 648.98 M 180.01 684.46 C 180.00 702.68 179.98 720.89 180.01 739.11 C 179.67 744.59 184.54 749.57 190.01 749.44 C 230.00 749.48 270.00 749.50 309.99 749.43 C 315.51 749.58 320.38 744.51 319.99 739.01 C 320.01 720.82 319.99 702.64 320.00 684.46 C 303.14 684.46 286.28 684.49 269.41 684.45 C 271.77 693.44 267.12 703.62 258.62 707.48 C 250.70 711.43 240.32 709.20 234.73 702.33 C 230.50 697.49 229.14 690.64 230.58 684.45 C 213.72 684.49 196.86 684.46 180.01 684.46 M 241.22 684.46 C 239.52 688.08 239.52 692.64 242.28 695.76 C 245.80 700.39 253.48 700.66 257.29 696.24 C 260.42 693.16 260.59 688.28 258.80 684.46 C 252.94 684.47 247.08 684.47 241.22 684.46 Z" />
</g>
</svg>