<svg width="100px" height="200px" viewBox="0 0 400 800" version="1.1" xmlns="http://www.w3.org/2000/svg">
<g id="#929292ff">
<path fill="#929292" opacity="1.00" d=" M 180.44 73.55 C 191.78 70.59 203.96 70.78 215.27 73.78 C 218.91 74.99 223.80 76.66 224.34 81.06 C 224.53 90.22 224.35 99.39 224.41 108.56 C 231.51 108.93 238.86 109.46 245.40 112.52 C 247.97 113.71 250.64 115.94 250.39 119.07 C 250.40 126.39 250.50 133.72 250.34 141.04 C 249.99 145.46 245.14 147.16 241.56 148.36 C 230.93 151.29 219.56 151.31 208.80 149.10 C 205.17 148.18 201.27 147.12 198.59 144.33 C 196.48 142.03 197.37 138.64 197.14 135.82 C 189.99 135.54 182.58 135.03 176.00 131.95 C 173.33 130.73 170.82 128.26 171.18 125.09 C 171.19 110.69 171.14 96.30 171.20 81.91 C 171.08 76.95 176.47 74.77 180.44 73.55 M 175.71 81.23 C 180.26 84.95 186.40 85.53 192.03 86.08 C 201.38 86.56 211.30 86.17 219.73 81.65 C 215.19 77.67 208.69 77.36 202.98 76.62 C 193.80 76.17 183.73 76.09 175.71 81.23 M 176.17 87.55 C 176.16 89.35 176.17 91.16 176.18 92.96 C 185.87 98.41 197.66 97.83 208.35 96.59 C 208.35 94.53 208.35 92.47 208.36 90.42 C 197.63 91.71 186.29 91.81 176.17 87.55 M 176.17 98.71 C 176.16 100.50 176.16 102.28 176.16 104.07 C 185.83 109.58 197.65 108.93 208.35 107.75 C 208.35 105.68 208.35 103.62 208.36 101.56 C 197.63 102.87 186.31 102.92 176.17 98.71 M 176.17 109.86 C 176.16 111.63 176.15 113.39 176.14 115.16 C 182.28 119.10 189.85 119.45 196.92 119.71 C 197.02 117.21 198.27 115.11 200.01 113.41 C 191.95 113.70 183.68 113.01 176.17 109.86 M 201.71 118.23 C 206.13 122.20 212.43 122.63 218.07 123.22 C 227.40 123.64 237.40 123.39 245.74 118.66 C 240.71 114.75 234.01 114.30 227.91 113.67 C 219.06 113.31 209.51 113.49 201.71 118.23 M 176.09 121.00 C 176.17 122.84 176.07 124.71 176.41 126.53 C 182.61 130.23 190.14 130.57 197.18 130.86 C 197.18 128.81 197.18 126.75 197.18 124.70 C 190.02 124.56 182.75 123.80 176.09 121.00 M 202.11 124.69 C 202.10 126.48 202.11 128.27 202.12 130.06 C 211.38 135.40 222.70 134.90 232.99 133.91 C 233.00 131.86 233.00 129.81 233.00 127.76 C 222.68 128.81 211.83 128.76 202.11 124.69 M 202.12 135.83 C 202.11 137.62 202.09 139.41 202.08 141.20 C 211.39 146.45 222.68 145.98 233.00 145.15 C 233.00 143.07 233.00 140.98 233.00 138.90 C 222.68 139.95 211.83 139.90 202.12 135.83 Z" />
<path fill="#929292" opacity="1.00" d=" M 128.00 152.47 C 134.96 152.52 141.92 152.38 148.88 152.52 C 152.26 152.54 155.10 154.59 157.37 156.91 C 164.93 157.02 172.50 156.81 180.06 157.00 C 187.50 157.43 193.68 162.15 199.10 166.84 C 202.48 169.55 207.10 167.64 211.04 167.96 C 217.96 167.60 226.21 169.76 228.95 176.89 C 239.65 175.84 249.20 168.94 260.18 170.25 C 264.45 170.74 269.25 172.37 271.32 176.45 C 273.06 180.91 271.55 186.85 266.97 188.98 C 253.64 196.08 239.67 202.00 226.68 209.76 C 215.40 216.43 201.44 216.68 189.05 213.35 C 178.63 210.42 168.83 205.73 158.60 202.26 C 156.48 205.62 153.16 208.55 148.98 208.66 C 141.99 208.86 135.00 208.66 128.01 208.74 C 127.99 189.98 128.00 171.23 128.00 152.47 M 159.47 165.94 C 159.47 175.04 159.46 184.13 159.47 193.23 C 171.81 196.75 183.21 203.19 195.86 205.67 C 204.66 207.27 214.19 206.65 222.03 202.04 C 235.37 194.02 249.80 188.05 263.44 180.60 C 258.66 177.98 252.84 179.18 248.00 181.03 C 241.90 183.46 235.48 184.90 229.02 186.03 C 226.69 190.91 221.14 192.79 216.06 192.87 C 206.20 193.02 196.33 192.90 186.46 192.92 C 186.47 189.93 186.47 186.94 186.47 183.96 C 195.30 183.91 204.13 183.94 212.96 183.95 C 215.54 184.00 218.11 183.58 220.63 183.03 C 220.21 181.37 220.74 178.98 218.75 178.23 C 211.43 174.85 202.67 179.68 195.61 175.34 C 190.58 172.04 186.37 166.82 180.04 166.06 C 173.19 165.74 166.32 166.02 159.47 165.94 Z" />
</g>
<g id="#ffffffff">
<path fill="#ffffff" opacity="1.00" d=" M 180.42 473.56 C 191.74 470.59 203.93 470.78 215.23 473.77 C 218.87 474.97 223.73 476.62 224.35 480.99 C 224.50 490.18 224.37 499.37 224.41 508.56 C 231.50 508.91 238.84 509.47 245.37 512.50 C 247.91 513.69 250.63 515.88 250.39 519.01 C 250.41 526.33 250.48 533.66 250.36 540.99 C 250.11 545.18 245.59 546.97 242.19 548.16 C 231.82 551.23 220.68 551.28 210.08 549.38 C 206.21 548.52 202.13 547.49 199.07 544.84 C 196.41 542.60 197.34 538.84 197.16 535.81 C 190.26 535.58 183.19 535.03 176.76 532.32 C 174.17 531.15 171.18 529.13 171.21 525.96 C 171.14 511.29 171.18 496.61 171.19 481.94 C 171.06 476.97 176.44 474.78 180.42 473.56 M 175.72 481.21 C 177.42 482.62 179.38 483.71 181.53 484.28 C 189.49 486.56 197.95 486.64 206.13 485.72 C 210.87 485.01 215.89 484.23 219.78 481.21 C 212.97 477.11 204.75 476.52 196.99 476.39 C 189.73 476.57 181.94 477.04 175.72 481.21 M 176.19 492.96 C 185.86 498.42 197.67 497.82 208.35 496.58 C 208.35 494.52 208.35 492.46 208.36 490.41 C 197.63 491.72 186.28 491.81 176.16 487.55 C 176.16 489.35 176.17 491.15 176.19 492.96 M 176.16 498.69 C 176.17 500.48 176.17 502.27 176.18 504.06 C 185.83 509.58 197.68 508.96 208.35 507.72 C 208.35 505.66 208.35 503.60 208.35 501.55 C 197.63 502.87 186.28 502.94 176.16 498.69 M 176.13 509.85 C 176.53 511.91 175.12 515.11 177.67 516.12 C 183.61 519.10 190.43 519.51 196.96 519.71 C 196.97 517.17 198.26 515.08 200.04 513.41 C 191.96 513.71 183.65 513.01 176.13 509.85 M 201.73 518.26 C 203.19 519.54 204.84 520.64 206.73 521.17 C 214.92 523.71 223.68 523.80 232.13 522.85 C 236.83 522.13 241.88 521.41 245.71 518.34 C 239.56 514.53 232.10 513.86 225.04 513.54 C 217.12 513.52 208.61 513.89 201.73 518.26 M 176.11 520.99 C 176.26 522.85 175.90 524.82 176.51 526.62 C 182.72 530.20 190.17 530.59 197.18 530.86 C 197.17 528.80 197.17 526.75 197.18 524.70 C 190.03 524.56 182.75 523.82 176.11 520.99 M 202.10 524.66 C 202.11 526.45 202.12 528.25 202.13 530.06 C 211.38 535.40 222.71 534.90 232.99 533.90 C 233.00 531.85 233.00 529.80 233.00 527.75 C 222.68 528.81 211.80 528.79 202.10 524.66 M 202.11 535.82 C 202.11 537.61 202.11 539.41 202.11 541.22 C 211.42 546.45 222.69 545.98 233.00 545.15 C 233.00 543.06 233.00 540.97 233.00 538.89 C 222.68 539.96 211.81 539.91 202.11 535.82 Z" />
<path fill="#ffffff" opacity="1.00" d=" M 128.00 552.46 C 134.99 552.51 141.98 552.38 148.96 552.51 C 152.30 552.57 155.15 554.58 157.36 556.93 C 164.58 556.95 171.81 556.90 179.03 556.94 C 186.65 557.03 193.21 561.64 198.68 566.53 C 202.04 569.66 206.93 567.66 211.01 567.95 C 217.93 567.61 226.24 569.74 228.95 576.91 C 234.36 575.92 239.72 574.59 244.86 572.60 C 251.39 570.07 258.93 568.99 265.60 571.58 C 268.72 572.76 271.71 575.37 271.96 578.89 C 272.09 581.86 271.65 585.27 269.27 587.33 C 266.89 589.38 263.93 590.56 261.16 591.99 C 249.45 597.89 237.48 603.30 226.20 610.03 C 215.01 616.45 201.28 616.62 189.06 613.36 C 178.64 610.42 168.82 605.73 158.59 602.25 C 156.51 605.67 153.11 608.56 148.93 608.67 C 141.96 608.83 134.98 608.68 128.00 608.74 C 128.00 589.98 128.00 571.22 128.00 552.46 M 159.47 565.94 C 159.48 575.03 159.46 584.13 159.48 593.23 C 174.67 597.48 188.76 606.63 204.98 606.47 C 211.13 606.49 217.29 604.88 222.59 601.73 C 232.86 595.56 243.80 590.64 254.48 585.26 C 257.52 583.68 260.80 582.46 263.45 580.23 C 258.67 578.51 253.37 578.91 248.69 580.78 C 242.37 583.31 235.72 584.91 229.01 586.01 C 226.72 590.98 221.06 592.78 215.97 592.88 C 206.14 593.01 196.30 592.89 186.47 592.93 C 186.48 589.92 186.45 586.91 186.50 583.91 C 195.33 583.97 204.16 583.91 212.99 583.95 C 215.56 584.02 218.10 583.62 220.59 583.02 C 220.26 581.33 220.75 578.94 218.72 578.21 C 211.21 574.80 202.13 579.89 195.03 574.99 C 190.34 571.63 186.14 566.87 180.11 566.05 C 173.24 565.76 166.35 566.01 159.47 565.94 Z" />
</g>
</svg>