<svg width="100px" height="200px" viewBox="0 0 400 800" version="1.1" xmlns="http://www.w3.org/2000/svg">
<g id="#929292ff">
<path fill="#929292" opacity="1.00" d=" M 181.49 87.39 C 184.13 83.44 190.36 82.92 193.64 86.37 C 197.14 89.65 196.58 95.97 192.56 98.59 C 190.67 100.10 188.16 99.96 185.89 99.91 C 177.78 107.87 169.80 115.98 161.75 123.99 C 187.27 124.00 212.79 124.00 238.31 123.99 C 230.25 115.97 222.27 107.86 214.15 99.90 C 210.17 100.64 205.74 98.67 204.46 94.66 C 202.30 89.33 207.45 83.09 213.08 84.13 C 217.86 84.61 220.80 89.66 219.88 94.19 C 229.11 103.61 238.56 112.81 247.79 122.23 C 248.69 123.00 249.54 124.23 250.91 123.99 C 255.27 124.08 259.64 123.95 264.00 124.00 C 264.00 132.00 264.00 140.00 264.00 148.00 C 261.41 148.00 258.82 148.00 256.23 148.01 C 254.21 161.34 252.15 174.66 250.12 187.99 C 249.06 196.77 240.93 204.20 232.01 203.99 C 210.66 204.01 189.30 204.01 167.95 203.99 C 159.04 204.22 150.92 196.83 149.85 188.06 C 147.84 174.71 145.77 161.36 143.76 148.01 C 141.18 148.00 138.59 148.00 136.00 148.00 C 136.00 140.00 136.00 132.00 136.00 124.00 C 140.35 123.95 144.70 124.08 149.05 123.99 C 150.43 124.21 151.33 123.12 152.21 122.28 C 161.44 112.86 170.90 103.66 180.12 94.24 C 179.99 91.89 179.96 89.34 181.49 87.39 M 144.00 132.00 C 144.00 134.67 144.00 137.33 144.00 140.00 C 181.33 140.00 218.67 140.00 256.00 140.00 C 256.00 137.33 256.00 134.67 256.00 132.00 C 218.67 132.00 181.33 132.00 144.00 132.00 M 153.03 156.00 C 154.64 166.37 156.18 176.75 157.81 187.11 C 158.48 191.99 163.01 196.17 168.02 195.98 C 189.36 196.01 210.69 196.02 232.03 195.97 C 237.02 196.09 241.63 191.95 242.17 187.01 C 243.78 176.68 245.33 166.34 246.93 156.00 C 240.62 156.00 234.31 156.00 228.00 156.00 C 227.88 165.67 228.24 175.36 227.83 185.01 C 227.09 188.89 220.88 188.87 220.16 185.00 C 219.77 175.35 220.12 165.66 220.00 156.00 C 214.67 156.00 209.33 156.00 204.00 156.00 C 203.88 165.66 204.24 175.35 203.83 185.00 C 203.10 188.89 196.87 188.87 196.16 184.99 C 195.77 175.34 196.12 165.66 196.00 156.00 C 190.67 156.00 185.33 156.00 180.00 156.00 C 179.88 165.65 180.23 175.33 179.84 184.97 C 179.15 188.90 172.81 188.88 172.16 184.94 C 171.77 175.31 172.11 165.64 172.00 156.00 C 165.68 156.00 159.35 156.00 153.03 156.00 Z" />
</g>
<g id="#ffffffff">
<path fill="#ffffff" opacity="1.00" d=" M 180.14 494.23 C 179.12 489.69 182.16 484.61 186.93 484.12 C 192.22 483.18 197.19 488.62 195.79 493.81 C 194.90 498.22 190.16 500.76 185.90 499.90 C 177.79 507.88 169.80 515.97 161.74 524.00 C 187.27 524.00 212.79 524.00 238.31 524.00 C 230.25 515.97 222.26 507.87 214.15 499.89 C 209.87 500.79 205.14 498.24 204.21 493.84 C 202.77 488.63 207.80 483.15 213.11 484.13 C 217.86 484.64 220.83 489.67 219.87 494.19 C 229.77 504.18 239.73 514.13 249.72 524.04 C 254.48 523.96 259.24 524.01 264.00 524.00 C 264.00 532.00 264.00 540.00 264.00 548.00 C 261.41 548.00 258.82 547.99 256.24 548.01 C 254.22 561.33 252.15 574.64 250.13 587.96 C 249.09 596.76 240.92 604.22 231.97 603.99 C 210.63 604.01 189.28 604.01 167.94 603.99 C 159.08 604.21 150.99 596.90 149.87 588.20 C 147.84 574.80 145.78 561.41 143.76 548.01 C 141.17 547.99 138.58 548.00 136.00 548.00 C 136.00 540.00 136.00 532.00 136.00 524.00 C 140.36 523.96 144.72 524.06 149.08 523.99 C 150.48 524.26 151.33 523.07 152.22 522.26 C 161.46 512.86 170.89 503.63 180.14 494.23 M 144.00 532.00 C 144.00 534.66 144.00 537.33 144.00 540.00 C 181.33 540.00 218.67 540.00 256.00 540.00 C 256.00 537.33 256.00 534.66 256.00 532.00 C 218.67 532.00 181.33 532.00 144.00 532.00 M 153.03 556.00 C 154.64 566.39 156.20 576.79 157.82 587.18 C 158.52 592.03 163.04 596.17 168.02 595.98 C 189.39 596.01 210.77 596.03 232.14 595.97 C 237.10 596.03 241.66 591.89 242.17 586.98 C 243.77 576.65 245.33 566.32 246.93 556.00 C 240.62 556.00 234.31 556.00 228.00 556.00 C 227.89 565.67 228.22 575.36 227.84 585.03 C 227.06 588.86 220.96 588.87 220.16 585.05 C 219.78 575.38 220.11 565.68 220.00 556.00 C 214.67 556.00 209.33 556.00 204.00 556.00 C 203.89 565.66 204.21 575.34 203.85 584.99 C 203.10 588.89 196.86 588.87 196.15 584.97 C 195.79 575.32 196.10 565.65 196.00 556.00 C 190.67 556.00 185.33 556.00 180.00 556.00 C 179.90 565.64 180.20 575.30 179.86 584.93 C 179.18 588.86 172.93 588.91 172.15 585.02 C 171.78 575.36 172.11 565.67 172.00 556.00 C 165.68 556.00 159.36 556.00 153.03 556.00 Z" />
</g>
</svg>