<svg width="100px" height="200px" viewBox="0 0 500 1000" version="1.1" xmlns="http://www.w3.org/2000/svg">
<g id="#929292ff">
<path fill="#929292" opacity="1.00" d=" M 304.89 99.08 C 307.57 98.23 310.79 97.80 313.12 99.77 C 314.85 100.90 315.00 103.12 315.01 104.99 C 315.01 116.29 314.99 127.60 315.01 138.90 C 320.24 139.15 325.10 143.50 324.97 148.92 C 325.03 182.28 325.01 215.65 324.97 249.01 C 325.18 254.35 320.38 259.21 315.03 259.02 C 272.00 259.12 228.97 259.02 185.94 259.07 C 180.28 259.61 174.79 254.78 175.04 249.02 C 174.95 212.36 175.03 175.71 175.00 139.05 C 218.30 125.73 261.59 112.39 304.89 99.08 M 207.69 138.78 C 211.10 139.01 214.52 139.16 217.94 139.07 C 246.96 139.06 275.98 139.07 305.00 139.07 C 305.00 129.06 305.01 119.05 304.99 109.04 C 272.54 118.90 240.23 129.24 207.69 138.78 M 185.00 149.06 C 185.00 180.39 185.00 211.72 185.00 243.05 C 184.57 246.02 186.83 249.19 189.99 249.02 C 229.67 249.13 269.37 249.03 309.05 249.07 C 311.95 249.46 315.05 247.28 314.94 244.20 C 315.10 235.82 314.95 227.44 315.00 219.06 C 306.63 219.01 298.26 219.16 289.90 219.01 C 287.29 219.09 284.96 216.74 285.05 214.14 C 284.95 207.40 284.95 200.66 285.06 193.92 C 284.99 191.33 287.32 189.02 289.91 189.11 C 298.27 188.98 306.64 189.12 315.00 189.07 C 314.95 177.34 315.09 165.60 314.94 153.87 C 315.02 150.80 311.91 148.67 309.04 149.06 C 267.69 149.07 226.35 149.06 185.00 149.06 M 295.00 199.06 C 295.00 202.40 295.00 205.73 295.00 209.07 C 301.67 209.07 308.33 209.07 315.00 209.07 C 315.00 205.73 315.00 202.40 315.00 199.06 C 308.33 199.06 301.67 199.07 295.00 199.06 Z" />
</g>
<g id="#ffffffff">
<path fill="#ffffff" opacity="1.00" d=" M 305.82 598.83 C 309.53 597.28 315.26 599.23 314.97 603.90 C 315.06 615.57 314.97 627.24 315.00 638.91 C 320.25 639.12 325.10 643.51 324.97 648.92 C 325.03 682.28 325.01 715.64 324.98 749.00 C 325.18 754.36 320.35 759.24 314.98 759.03 C 271.64 759.10 228.30 759.07 184.96 759.04 C 179.65 759.17 174.85 754.41 175.04 749.09 C 174.95 712.41 175.03 675.73 175.00 639.05 C 218.61 625.65 262.19 612.16 305.82 598.83 M 207.68 638.78 C 211.12 639.01 214.58 639.15 218.03 639.07 C 247.02 639.06 276.01 639.07 305.00 639.07 C 305.00 629.06 305.00 619.05 305.00 609.05 C 272.54 618.89 240.23 629.26 207.68 638.78 M 185.00 649.06 C 185.03 680.74 184.94 712.41 185.04 744.09 C 184.89 747.21 188.03 749.50 190.99 749.07 C 230.34 749.06 269.69 749.07 309.03 749.07 C 311.98 749.49 315.09 747.22 314.96 744.12 C 315.07 735.77 314.96 727.41 315.00 719.06 C 306.64 719.02 298.27 719.15 289.92 719.02 C 287.30 719.11 284.95 716.73 285.05 714.13 C 284.96 707.37 284.95 700.61 285.05 693.86 C 285.03 691.29 287.35 689.01 289.92 689.11 C 298.28 688.99 306.64 689.10 315.00 689.07 C 314.95 677.33 315.08 665.60 314.95 653.87 C 315.02 650.84 311.96 648.67 309.10 649.06 C 267.73 649.07 226.37 649.07 185.00 649.06 M 295.00 699.06 C 295.00 702.39 295.00 705.73 295.00 709.07 C 301.67 709.06 308.33 709.06 315.00 709.07 C 315.00 705.73 315.00 702.39 315.00 699.06 C 308.33 699.07 301.67 699.07 295.00 699.06 Z" />
</g>
</svg>