<svg width="100px" height="200px" viewBox="0 0 400 800" version="1.1" xmlns="http://www.w3.org/2000/svg">
<g id="#929292ff">
<path fill="#929292" opacity="1.00" d=" M 248.75 100.85 C 250.50 99.08 252.27 97.31 254.04 95.56 C 265.15 106.67 271.65 122.24 271.55 137.97 C 271.65 153.72 265.17 169.31 254.04 180.43 C 252.27 178.67 250.50 176.90 248.75 175.14 C 258.92 164.92 264.67 150.47 264.02 136.04 C 263.62 122.92 257.97 110.15 248.75 100.85 Z" />
<path fill="#929292" opacity="1.00" d=" M 152.62 100.81 C 164.83 99.24 177.72 99.75 189.18 104.61 C 194.20 106.86 199.85 110.79 199.97 116.88 C 200.02 132.29 200.02 147.71 199.97 163.12 C 199.96 168.04 195.95 171.73 191.97 173.98 C 183.76 178.49 174.21 179.80 164.97 179.99 C 155.33 180.01 145.36 178.83 136.69 174.35 C 132.43 172.07 128.00 168.28 128.03 163.04 C 127.98 147.68 127.97 132.31 128.04 116.95 C 127.96 112.81 130.91 109.42 134.14 107.22 C 139.61 103.51 146.16 101.81 152.62 100.81 M 153.48 105.74 C 146.96 106.88 140.00 108.36 134.95 112.94 C 132.94 114.62 132.24 117.80 134.10 119.86 C 137.97 124.27 143.93 125.97 149.44 127.29 C 161.24 129.59 173.80 129.37 185.22 125.36 C 188.93 123.83 193.35 122.00 194.86 117.96 C 195.68 113.87 191.41 111.35 188.35 109.73 C 177.51 104.80 165.14 104.24 153.48 105.74 M 132.93 125.76 C 133.07 128.81 132.52 132.00 133.42 134.97 C 135.40 138.59 139.50 140.32 143.16 141.76 C 154.19 145.55 166.23 145.75 177.65 143.75 C 177.65 140.03 177.65 136.32 177.65 132.60 C 162.66 134.77 145.94 134.43 132.93 125.76 M 132.93 142.00 C 133.17 145.16 132.11 148.93 134.43 151.53 C 136.97 154.26 140.48 155.83 143.95 157.04 C 154.78 160.54 166.50 160.72 177.65 158.75 C 177.65 155.45 177.65 152.16 177.65 148.86 C 162.66 151.03 145.92 150.71 132.93 142.00 M 132.93 157.00 C 133.17 160.15 132.11 163.90 134.41 166.50 C 137.12 169.43 140.93 171.04 144.65 172.27 C 155.30 175.53 166.74 175.68 177.65 173.75 C 177.65 170.45 177.65 167.16 177.65 163.86 C 162.66 166.03 145.92 165.71 132.93 157.00 Z" />
<path fill="#929292" opacity="1.00" d=" M 238.10 111.44 C 239.86 109.69 241.62 107.94 243.38 106.18 C 252.18 115.00 257.13 127.53 256.46 139.99 C 256.04 151.12 251.23 161.94 243.38 169.81 C 241.62 168.06 239.86 166.31 238.10 164.57 C 249.94 152.91 252.50 133.25 243.89 119.02 C 242.30 116.24 240.24 113.79 238.10 111.44 Z" />
<path fill="#929292" opacity="1.00" d=" M 227.51 122.04 C 229.27 120.27 231.04 118.51 232.82 116.75 C 238.01 122.19 241.34 129.46 241.50 137.03 C 241.85 145.25 238.51 153.38 232.80 159.25 C 231.03 157.49 229.27 155.72 227.52 153.96 C 236.11 145.50 236.11 130.50 227.51 122.04 Z" />
</g>
<g id="#ffffffff">
<path fill="#ffffff" opacity="1.00" d=" M 248.74 500.85 C 250.50 499.08 252.27 497.31 254.04 495.56 C 265.17 506.68 271.66 522.28 271.55 538.03 C 271.64 553.76 265.15 569.32 254.04 580.43 C 252.27 578.66 250.50 576.90 248.74 575.14 C 258.92 564.94 264.65 550.48 264.02 536.05 C 263.62 522.93 257.98 510.15 248.74 500.85 Z" />
<path fill="#ffffff" opacity="1.00" d=" M 152.58 500.81 C 164.81 499.23 177.72 499.74 189.19 504.61 C 194.19 506.86 199.82 510.77 199.98 516.83 C 200.02 532.25 200.01 547.68 199.98 563.11 C 199.97 568.03 195.96 571.72 191.99 573.98 C 183.79 578.47 174.27 579.79 165.04 579.99 C 155.34 580.02 145.30 578.83 136.59 574.30 C 132.37 572.02 127.99 568.24 128.03 563.03 C 127.96 548.02 128.02 533.00 128.00 517.98 C 127.79 514.78 129.10 511.63 131.44 509.46 C 137.12 504.07 145.06 502.03 152.58 500.81 M 153.56 505.73 C 146.99 506.87 139.96 508.35 134.89 513.00 C 132.96 514.65 132.27 517.72 134.03 519.76 C 138.03 524.42 144.34 526.11 150.11 527.42 C 161.69 529.56 173.96 529.30 185.15 525.39 C 188.91 523.83 193.48 521.97 194.91 517.79 C 195.52 513.68 191.25 511.26 188.16 509.64 C 177.39 504.81 165.13 504.25 153.56 505.73 M 132.93 525.75 C 132.98 528.53 132.77 531.34 133.12 534.12 C 134.37 537.89 138.39 539.69 141.73 541.21 C 153.11 545.57 165.75 545.82 177.65 543.74 C 177.65 540.03 177.65 536.31 177.65 532.60 C 162.67 534.77 145.93 534.44 132.93 525.75 M 132.93 541.99 C 133.18 545.13 132.10 548.88 134.39 551.48 C 137.07 554.38 140.82 555.98 144.49 557.22 C 155.18 560.52 166.69 560.70 177.65 558.75 C 177.65 555.45 177.65 552.15 177.65 548.86 C 162.67 551.03 145.91 550.72 132.93 541.99 M 132.93 556.99 C 133.18 560.16 132.09 563.95 134.45 566.55 C 136.96 569.24 140.43 570.79 143.85 572.01 C 154.71 575.53 166.47 575.73 177.65 573.74 C 177.65 570.45 177.65 567.15 177.65 563.86 C 162.67 566.03 145.91 565.72 132.93 556.99 Z" />
<path fill="#ffffff" opacity="1.00" d=" M 238.09 511.45 C 239.85 509.69 241.61 507.93 243.37 506.18 C 252.17 514.98 257.12 527.51 256.46 539.96 C 256.05 551.10 251.24 561.94 243.37 569.82 C 241.61 568.06 239.86 566.31 238.10 564.56 C 244.99 557.55 249.09 547.86 249.00 538.01 C 249.10 528.15 245.00 518.45 238.09 511.45 Z" />
<path fill="#ffffff" opacity="1.00" d=" M 227.50 522.05 C 229.27 520.27 231.04 518.50 232.82 516.74 C 238.25 522.41 241.61 530.11 241.52 538.01 C 241.60 545.91 238.26 553.60 232.82 559.26 C 231.04 557.49 229.27 555.72 227.51 553.96 C 236.11 545.52 236.12 530.48 227.50 522.05 Z" />
</g>
</svg>