<svg width="30px" height="30px" viewBox="0 0 300 300" version="1.1" xmlns="http://www.w3.org/2000/svg">
<g id="#c1c1c1ff">
<path fill="#c1c1c1" opacity="1.00" d=" M 166.99 82.96 C 168.70 80.93 171.34 79.37 174.08 79.99 C 178.09 80.76 180.75 85.13 180.02 89.07 C 179.69 92.11 177.23 94.19 175.32 96.33 C 158.93 114.16 142.57 132.02 126.19 149.87 C 143.40 168.66 160.64 187.41 177.84 206.20 C 181.27 209.63 180.74 216.03 176.65 218.70 C 173.83 220.69 169.71 220.00 167.54 217.37 C 149.06 197.23 130.56 177.09 112.10 156.92 C 108.85 152.76 109.03 145.69 112.89 141.93 C 130.94 122.29 148.97 102.62 166.99 82.96 Z" />
</g>
</svg>