<svg width="30px" height="30px" viewBox="0 0 300 300" version="1.1" xmlns="http://www.w3.org/2000/svg">
<g id="#c1c1c1ff">
<path fill="#c1c1c1" opacity="1.00" d=" M 121.82 93.13 C 117.96 88.97 120.18 81.08 125.88 80.00 C 129.19 79.21 131.99 81.58 133.93 83.95 C 151.78 103.48 169.70 122.96 187.58 142.47 C 190.46 145.21 190.19 149.48 189.81 153.10 C 189.42 155.78 187.23 157.61 185.54 159.53 C 167.81 178.81 150.13 198.14 132.41 217.42 C 130.24 220.02 126.14 220.67 123.35 218.70 C 119.27 216.03 118.74 209.65 122.14 206.23 C 139.34 187.42 156.60 168.67 173.80 149.87 C 156.49 130.95 139.08 112.10 121.82 93.13 Z" />
</g>
</svg>