<svg width="25px" height="25px" viewBox="0 0 250 250" version="1.1" xmlns="http://www.w3.org/2000/svg">
<g id="#333333ff">
<path fill="#333333" opacity="1.00" d=" M 188.92 12.99 C 192.84 7.65 200.63 5.80 206.62 8.50 C 209.74 9.74 212.05 12.26 214.36 14.60 C 220.67 20.96 227.08 27.23 233.38 33.60 C 237.45 37.65 239.95 43.25 239.98 49.02 C 240.09 57.13 237.12 64.83 234.50 72.38 C 232.77 77.87 229.11 82.42 226.19 87.30 C 206.13 118.08 183.77 147.65 156.88 172.82 C 133.12 194.94 106.80 214.24 78.99 230.95 C 69.26 236.28 58.25 241.21 46.88 239.51 C 40.55 238.57 35.25 234.60 31.02 230.00 C 24.40 223.30 17.61 216.77 11.06 209.99 C 5.95 204.51 4.88 194.31 11.50 189.55 C 25.99 178.71 40.45 167.84 54.98 157.06 C 60.66 152.91 69.22 150.99 75.11 155.79 C 80.06 160.21 84.55 165.14 89.33 169.75 C 110.03 154.25 129.89 137.47 147.22 118.22 C 155.49 108.98 163.31 99.35 170.71 89.40 C 166.28 85.09 161.92 80.71 157.56 76.34 C 154.58 73.46 152.99 69.24 153.48 65.12 C 153.90 60.59 156.11 56.47 158.86 52.94 C 168.90 39.64 178.91 26.31 188.92 12.99 M 194.08 29.05 C 187.38 37.74 180.90 46.60 174.24 55.32 C 171.92 58.33 169.98 62.12 170.78 66.03 C 171.24 68.55 173.14 70.37 174.86 72.12 C 180.11 77.28 185.29 82.52 190.53 87.70 C 177.93 108.09 162.11 126.32 144.94 142.99 C 127.20 160.09 107.98 175.67 87.62 189.55 C 82.40 184.38 77.20 179.20 72.02 173.99 C 70.36 172.37 68.58 170.60 66.18 170.24 C 62.32 169.50 58.57 171.39 55.58 173.67 C 47.05 180.11 38.44 186.45 29.92 192.91 C 25.13 196.22 26.72 203.25 29.82 207.18 C 33.86 211.46 38.16 215.50 42.27 219.71 C 44.95 222.74 49.21 223.18 53.00 223.45 C 58.15 223.61 63.75 223.33 68.07 220.17 C 96.17 201.72 124.18 182.78 149.04 160.05 C 162.55 147.18 174.66 132.90 186.33 118.35 C 198.92 102.29 210.98 85.71 221.00 67.90 C 224.37 62.20 225.65 55.24 224.33 48.74 C 223.51 44.24 219.59 41.50 216.63 38.39 C 213.06 34.98 209.79 31.24 206.01 28.07 C 202.57 25.23 196.79 25.19 194.08 29.05 Z" />
</g>
</svg>