<svg width="32px" height="50px" viewBox="0 0 88 136" version="1.1" xmlns="http://www.w3.org/2000/svg">
<g id="#43586075">
<path fill="#435860" opacity="0.46" d=" M 33.74 4.79 C 39.35 1.87 45.96 1.93 52.13 2.18 C 54.23 3.00 56.90 2.53 58.60 4.13 C 55.88 3.60 53.20 2.74 50.39 2.96 C 47.73 2.71 45.04 2.63 42.36 2.79 C 39.40 2.99 36.60 4.08 33.74 4.79 Z" />
<path fill="#435860" opacity="0.46" d=" M 58.93 4.21 C 59.37 4.20 60.25 4.17 60.69 4.16 L 60.93 4.99 C 60.43 4.80 59.43 4.40 58.93 4.21 Z" />
<path fill="#435860" opacity="0.46" d=" M 62.18 5.37 C 62.34 5.44 62.67 5.58 62.83 5.66 C 62.67 5.58 62.34 5.44 62.18 5.37 Z" />
<path fill="#435860" opacity="0.46" d=" M 64.13 6.31 C 64.28 6.40 64.60 6.56 64.75 6.64 C 64.60 6.56 64.28 6.40 64.13 6.31 Z" />
<path fill="#435860" opacity="0.46" d=" M 65.32 6.95 C 66.90 6.86 67.88 7.56 68.27 9.03 C 66.96 8.74 65.98 8.04 65.32 6.95 Z" />
<path fill="#435860" opacity="0.46" d=" M 68.27 9.03 C 69.70 8.28 72.15 10.85 72.38 12.20 C 70.63 11.75 69.46 10.26 68.27 9.03 Z" />
<path fill="#435860" opacity="0.46" d=" M 63.84 103.56 C 65.45 103.97 66.58 107.68 65.80 109.29 C 64.67 107.61 64.22 105.52 63.84 103.56 Z" />
<path fill="#435860" opacity="0.46" d=" M 65.96 109.54 C 67.56 112.57 67.41 116.70 66.05 119.82 C 66.13 116.39 66.18 112.97 65.96 109.54 Z" />
<path fill="#435860" opacity="0.46" d=" M 65.00 122.47 C 65.21 121.94 65.61 120.86 65.82 120.33 C 65.82 120.82 65.83 121.81 65.83 122.31 L 65.00 122.47 Z" />
<path fill="#435860" opacity="0.46" d=" M 57.40 131.08 C 58.06 129.97 59.03 129.27 60.33 128.97 C 59.95 130.45 58.97 131.16 57.40 131.08 Z" />
<path fill="#435860" opacity="0.46" d=" M 37.24 130.96 C 37.71 131.19 38.65 131.67 39.12 131.90 C 38.67 131.87 37.78 131.80 37.33 131.77 L 37.24 130.96 Z" />
<path fill="#435860" opacity="0.46" d=" M 40.12 131.91 C 41.24 131.75 42.23 132.05 43.11 132.80 C 41.53 133.63 40.53 133.33 40.12 131.91 Z" />
<path fill="#435860" opacity="0.46" d=" M 43.54 133.06 C 47.62 132.92 51.76 133.31 55.67 131.86 C 52.28 133.85 47.38 134.44 43.54 133.06 Z" />
</g>
<g id="#fc8636ff">
<path fill="#fc8636" opacity="1.00" d=" M 33.74 4.79 C 36.60 4.08 39.40 2.99 42.36 2.79 C 43.18 11.61 41.38 20.64 43.60 29.30 L 43.64 29.56 C 36.28 33.65 32.34 41.97 31.01 49.99 C 29.46 59.85 31.81 70.86 39.23 77.92 C 33.45 73.23 28.46 67.59 24.29 61.43 C 24.83 61.38 25.91 61.27 26.45 61.22 C 27.14 47.52 26.50 33.75 26.75 20.03 C 26.58 16.61 27.51 12.72 25.11 9.86 C 27.42 7.70 30.35 6.40 33.16 5.04 L 33.74 4.79 Z" />
</g>
<g id="#f9581cff">
<path fill="#f9581c" opacity="1.00" d=" M 42.36 2.79 C 45.04 2.63 47.73 2.71 50.39 2.96 C 55.86 4.80 59.39 10.16 60.10 15.73 C 60.77 20.07 59.82 24.42 58.73 28.61 C 54.36 27.39 49.08 26.28 44.77 28.88 C 44.48 28.99 43.89 29.20 43.60 29.30 C 41.38 20.64 43.18 11.61 42.36 2.79 Z" />
</g>
<g id="#004f90ff">
<path fill="#004f90" opacity="1.00" d=" M 50.39 2.96 C 53.20 2.74 55.88 3.60 58.60 4.13 L 58.93 4.21 C 59.43 4.40 60.43 4.80 60.93 4.99 L 62.18 5.37 C 62.34 5.44 62.67 5.58 62.83 5.66 L 64.13 6.31 C 64.28 6.40 64.60 6.56 64.75 6.64 L 65.32 6.95 C 65.98 8.04 66.96 8.74 68.27 9.03 L 68.27 9.03 C 69.46 10.26 70.63 11.75 72.38 12.20 C 73.98 13.18 75.29 14.81 76.27 16.42 C 70.90 16.48 65.32 17.33 60.10 15.73 C 59.39 10.16 55.86 4.80 50.39 2.96 Z" />
<path fill="#004f90" opacity="1.00" d=" M 57.50 106.27 C 59.23 104.57 61.36 103.34 63.73 102.77 L 63.84 103.56 C 64.22 105.52 64.67 107.61 65.80 109.29 L 65.96 109.54 C 66.18 112.97 66.13 116.39 66.05 119.82 L 65.82 120.33 C 65.61 120.86 65.21 121.94 65.00 122.47 C 64.34 125.07 62.48 127.45 60.33 128.97 C 59.03 129.27 58.06 129.97 57.40 131.08 C 56.93 131.52 56.36 131.78 55.67 131.86 C 51.76 133.31 47.62 132.92 43.54 133.06 L 43.11 132.80 C 42.23 132.05 41.24 131.75 40.12 131.91 L 39.12 131.90 C 38.65 131.67 37.71 131.19 37.24 130.96 C 35.60 130.77 34.22 129.69 32.84 128.86 C 36.66 123.65 42.35 120.35 46.82 115.78 C 50.23 112.45 54.05 109.57 57.50 106.27 Z" />
</g>
<g id="#00a7e3ff">
<path fill="#00a7e3" opacity="1.00" d=" M 15.43 17.44 C 20.36 12.13 26.40 7.68 33.16 5.04 C 30.35 6.40 27.42 7.70 25.11 9.86 C 18.75 15.71 15.77 24.53 15.51 33.02 C 15.42 43.10 18.65 53.11 24.29 61.43 C 28.46 67.59 33.45 73.23 39.23 77.92 C 41.82 79.92 44.22 82.15 46.79 84.17 C 36.82 92.95 27.43 102.42 16.85 110.49 C 6.95 92.06 1.05 71.04 2.37 50.02 C 3.25 38.20 7.26 26.24 15.43 17.44 Z" />
<path fill="#00a7e3" opacity="1.00" d=" M 58.47 30.12 C 66.80 31.10 75.29 30.65 83.67 30.38 C 87.08 41.24 84.97 53.37 79.05 62.99 C 75.48 69.52 68.60 74.47 61.00 74.55 C 54.91 74.77 48.84 71.18 46.23 65.65 C 42.58 58.53 44.33 49.48 49.39 43.49 C 52.88 39.59 56.01 35.24 57.79 30.28 L 58.47 30.12 Z" />
</g>
<g id="#ffaa51ff">
<path fill="#ffaa51" opacity="1.00" d=" M 15.51 33.02 C 15.77 24.53 18.75 15.71 25.11 9.86 C 27.51 12.72 26.58 16.61 26.75 20.03 C 26.50 33.75 27.14 47.52 26.45 61.22 C 25.91 61.27 24.83 61.38 24.29 61.43 C 18.65 53.11 15.42 43.10 15.51 33.02 Z" />
</g>
<g id="#007ebbff">
<path fill="#007ebb" opacity="1.00" d=" M 60.10 15.73 C 65.32 17.33 70.90 16.48 76.27 16.42 L 76.63 16.41 C 79.64 20.68 82.47 25.26 83.67 30.38 C 75.29 30.65 66.80 31.10 58.47 30.12 C 58.27 28.31 56.33 28.39 55.09 27.81 C 51.63 26.98 48.01 27.50 44.77 28.88 C 49.08 26.28 54.36 27.39 58.73 28.61 C 59.82 24.42 60.77 20.07 60.10 15.73 Z" />
<path fill="#007ebb" opacity="1.00" d=" M 46.79 84.17 C 53.22 89.54 59.84 95.19 63.73 102.77 C 61.36 103.34 59.23 104.57 57.50 106.27 C 54.05 109.57 50.23 112.45 46.82 115.78 C 42.35 120.35 36.66 123.65 32.84 128.86 C 25.79 124.52 20.79 117.62 16.85 110.49 C 27.43 102.42 36.82 92.95 46.79 84.17 Z" />
</g>
</svg>