<svg width="19px" height="24px" viewBox="0 0 190 240" version="1.1" xmlns="http://www.w3.org/2000/svg">
<g id="#333333ff">
<path fill="#333333" opacity="1.00" d=" M 35.27 0.00 L 152.16 0.00 C 166.96 0.94 179.80 14.02 179.95 28.94 C 180.07 88.97 179.96 149.02 180.00 209.06 C 180.10 214.60 178.79 220.18 175.98 224.98 C 171.19 233.47 162.05 239.09 152.38 240.00 L 35.42 240.00 C 20.57 239.12 7.65 225.96 7.56 210.99 C 7.48 152.66 7.56 94.33 7.52 36.00 C 7.45 30.43 7.30 24.67 9.45 19.42 C 13.35 8.65 23.90 0.91 35.27 0.00 M 24.16 23.16 C 21.79 27.57 22.67 32.74 22.54 37.53 C 70.02 37.55 117.50 37.53 164.98 37.54 C 164.87 32.83 165.69 27.79 163.47 23.42 C 161.07 18.38 155.67 14.96 150.07 15.03 C 112.70 14.97 75.33 15.01 37.96 15.00 C 32.29 14.80 26.70 18.08 24.16 23.16 M 22.53 52.54 C 22.53 92.53 22.53 132.53 22.53 172.53 C 70.02 172.55 117.50 172.52 164.99 172.54 C 165.01 132.54 165.00 92.54 165.00 52.53 C 117.51 52.53 70.02 52.53 22.53 52.54 M 22.53 187.54 C 22.55 195.05 22.49 202.56 22.54 210.07 C 22.33 217.84 29.15 224.91 36.92 224.95 C 74.63 225.05 112.34 225.00 150.05 224.98 C 157.63 225.16 164.62 218.68 164.92 211.09 C 165.13 203.24 164.93 195.39 165.00 187.53 C 117.51 187.53 70.02 187.53 22.53 187.54 Z" />
<path fill="#333333" opacity="1.00" d=" M 90.38 195.52 C 96.45 193.43 103.59 197.62 104.75 203.92 C 106.18 209.77 101.94 216.20 96.02 217.23 C 90.33 218.62 84.14 214.64 82.84 208.98 C 81.31 203.40 84.84 197.13 90.38 195.52 Z" />
</g>
</svg>