<svg width="30px" height="48px" viewBox="0 0 83 133" version="1.1" xmlns="http://www.w3.org/2000/svg">
<g id="#00c0f3ff">
<path fill="#00c0f3" opacity="1.00" d=" M 2.01 8.93 C 2.93 2.34 12.21 -0.25 16.67 4.50 C 20.57 7.92 19.06 13.53 19.34 18.07 C 19.17 25.71 23.13 33.33 29.64 37.38 C 35.62 41.33 43.62 41.85 50.11 38.88 C 58.12 35.36 63.41 26.73 63.13 18.02 C 63.37 14.16 62.32 9.90 64.31 6.37 C 67.00 1.46 74.55 0.56 78.30 4.71 C 81.99 8.18 80.03 13.61 80.52 18.04 C 81.60 36.17 67.80 53.50 50.17 57.28 C 50.01 63.44 50.07 69.60 50.13 75.75 C 66.17 79.26 78.99 93.74 80.48 110.09 C 80.50 115.03 80.64 119.99 80.41 124.93 C 78.65 131.10 69.88 133.05 65.57 128.38 C 61.82 124.53 63.48 118.80 63.12 114.01 C 63.12 102.79 53.41 92.44 42.08 92.33 C 32.28 91.69 22.87 98.80 20.28 108.17 C 18.48 113.58 19.99 119.38 19.01 124.87 C 17.35 130.95 8.73 133.09 4.40 128.56 C 0.48 125.12 2.42 119.57 1.99 115.07 C 0.87 96.93 14.71 79.58 32.33 75.79 C 32.43 69.71 32.18 63.63 32.48 57.56 C 20.16 54.37 9.34 45.53 4.65 33.57 C 1.14 25.83 2.06 17.18 2.01 8.93 Z" />
<path fill="#00c0f3" opacity="1.00" d=" M 39.12 98.98 C 47.87 97.44 56.82 105.08 56.50 113.99 C 56.88 123.02 47.72 130.73 38.91 129.01 C 30.97 128.00 24.73 119.87 26.12 111.92 C 26.93 105.34 32.54 99.78 39.12 98.98 Z" />
</g>
</svg>