<svg width="15px" height="24px" viewBox="0 0 150 240" version="1.1" xmlns="http://www.w3.org/2000/svg">
<g id="#333333ff">
<path fill="#333333" opacity="1.00" d=" M 74.48 0.00 L 75.57 0.00 C 77.63 4.23 81.09 7.55 83.41 11.62 C 90.31 21.27 96.29 31.54 102.22 41.80 C 115.00 64.38 126.66 87.63 136.29 111.73 C 142.55 127.76 148.26 144.24 150.00 161.46 L 150.00 168.57 C 149.00 187.25 140.97 205.49 127.51 218.53 C 114.76 231.22 97.31 238.74 79.42 240.00 L 70.69 240.00 C 53.24 238.79 36.20 231.66 23.52 219.53 C 9.47 206.42 1.03 187.76 0.00 168.61 L 0.00 161.57 C 1.56 145.36 6.75 129.78 12.51 114.63 C 20.80 93.34 30.75 72.73 41.63 52.65 C 49.93 37.55 58.62 22.63 68.55 8.52 C 70.48 5.65 72.90 3.11 74.48 0.00 M 59.40 53.32 C 44.70 78.75 31.92 105.38 22.24 133.14 C 18.02 146.30 13.54 160.09 15.52 174.09 C 17.38 188.39 24.94 201.77 36.03 210.95 C 48.13 221.14 64.34 226.16 80.08 224.78 C 95.04 223.63 109.46 216.65 119.61 205.59 C 131.04 193.29 136.89 175.81 134.42 159.13 C 132.80 148.10 129.26 137.48 125.56 127.01 C 116.47 102.67 105.20 79.16 92.41 56.55 C 87.08 47.41 81.67 38.24 75.00 30.00 C 69.08 37.26 64.17 45.28 59.40 53.32 Z" />
</g>
</svg>