<svg width="24px" height="24px" viewBox="0 0 240 240" version="1.1" xmlns="http://www.w3.org/2000/svg">
<g id="#333333ff">
<path fill="#333333" opacity="1.00" d=" M 34.77 0.00 L 204.46 0.00 C 215.19 0.76 225.25 7.55 229.71 17.37 C 231.86 21.91 232.63 26.98 232.54 31.97 C 232.52 90.31 232.52 148.64 232.54 206.98 C 232.68 212.56 231.95 218.28 229.39 223.31 C 224.91 232.57 215.41 238.86 205.26 240.00 L 34.92 240.00 C 20.28 238.79 7.66 225.82 7.56 211.00 C 7.50 150.32 7.52 89.64 7.55 28.97 C 7.68 14.21 20.20 1.33 34.77 0.00 M 22.65 28.11 C 22.35 33.73 22.61 39.37 22.53 45.00 C 87.54 44.99 152.54 45.02 217.54 44.98 C 217.16 38.41 218.36 31.65 216.71 25.22 C 214.75 19.04 208.43 14.70 201.95 15.00 C 147.31 15.00 92.67 15.00 38.03 15.00 C 30.53 14.61 23.38 20.61 22.65 28.11 M 22.53 60.00 C 22.52 108.35 22.54 156.69 22.52 205.04 C 22.55 208.74 22.16 212.65 23.80 216.10 C 26.15 221.57 31.99 225.23 37.95 225.00 C 92.65 225.00 147.35 225.00 202.06 225.00 C 210.24 225.44 217.70 218.19 217.50 210.01 C 217.58 160.01 217.49 110.02 217.54 60.03 C 152.54 59.96 87.54 60.02 22.53 60.00 Z" />
<path fill="#333333" opacity="1.00" d=" M 54.54 90.68 C 62.18 88.71 70.74 91.14 76.16 96.87 C 82.11 102.87 84.10 112.33 81.13 120.23 C 77.84 129.60 67.83 135.99 57.93 134.89 C 47.23 134.12 38.06 124.72 37.57 114.00 C 36.64 103.45 44.25 93.06 54.54 90.68 M 52.53 105.00 C 52.53 110.00 52.53 115.00 52.53 120.00 C 57.54 119.99 62.54 120.02 67.54 119.97 C 67.52 114.99 67.53 110.00 67.54 105.02 C 62.54 104.98 57.53 105.00 52.53 105.00 Z" />
<path fill="#333333" opacity="1.00" d=" M 114.53 90.68 C 122.40 88.64 131.23 91.30 136.64 97.37 C 142.23 103.38 144.01 112.55 141.13 120.23 C 137.84 129.59 127.85 135.98 117.97 134.89 C 107.24 134.14 98.04 124.71 97.56 113.97 C 96.65 103.43 104.26 93.07 114.53 90.68 M 112.53 105.00 C 112.53 110.00 112.53 115.00 112.53 120.00 C 117.53 120.00 122.54 120.02 127.54 119.98 C 127.53 115.00 127.52 110.01 127.54 105.02 C 122.54 104.98 117.54 105.00 112.53 105.00 Z" />
<path fill="#333333" opacity="1.00" d=" M 174.49 90.69 C 182.14 88.70 190.73 91.13 196.16 96.87 C 202.11 102.87 204.09 112.32 201.13 120.22 C 197.84 129.62 187.78 136.02 177.85 134.88 C 167.17 134.08 158.03 124.66 157.56 113.95 C 156.66 103.44 164.24 93.10 174.49 90.69 M 172.53 105.00 C 172.52 110.00 172.52 115.00 172.53 120.00 C 177.53 120.00 182.52 120.00 187.52 120.00 C 187.54 115.01 187.51 110.02 187.54 105.03 C 182.54 104.98 177.54 105.01 172.53 105.00 Z" />
<path fill="#333333" opacity="1.00" d=" M 54.49 150.69 C 62.13 148.71 70.71 151.12 76.14 156.86 C 82.09 162.83 84.09 172.27 81.15 180.17 C 77.88 189.58 67.83 196.01 57.90 194.89 C 47.20 194.10 38.04 184.69 37.56 173.97 C 36.65 163.45 44.24 153.10 54.49 150.69 M 52.53 165.00 C 52.53 170.00 52.53 175.00 52.53 180.00 C 57.54 179.99 62.54 180.02 67.54 179.98 C 67.53 175.00 67.51 170.03 67.56 165.05 C 62.55 164.95 57.54 165.01 52.53 165.00 Z" />
<path fill="#333333" opacity="1.00" d=" M 114.47 150.70 C 122.12 148.70 130.71 151.12 136.15 156.86 C 142.10 162.84 144.09 172.29 141.15 180.19 C 137.87 189.58 127.84 195.99 117.93 194.89 C 107.22 194.12 98.05 184.71 97.57 173.98 C 96.65 163.46 104.23 153.12 114.47 150.70 M 112.53 165.00 C 112.53 170.00 112.53 175.00 112.53 180.00 C 117.54 179.99 122.54 180.03 127.54 179.97 C 127.52 174.99 127.53 170.00 127.54 165.02 C 122.54 164.98 117.53 165.00 112.53 165.00 Z" />
<path fill="#333333" opacity="1.00" d=" M 174.51 150.69 C 180.97 149.05 188.14 150.45 193.45 154.49 C 199.20 158.74 202.73 165.85 202.48 173.01 C 202.39 180.06 198.68 186.91 192.90 190.92 C 187.21 194.97 179.57 196.09 172.96 193.85 C 164.41 191.16 158.01 182.90 157.56 173.94 C 156.66 163.42 164.26 153.09 174.51 150.69 M 172.53 165.00 C 172.53 170.00 172.52 175.00 172.53 180.00 C 177.55 179.97 182.56 180.07 187.57 179.93 C 187.49 174.96 187.53 169.99 187.54 165.02 C 182.54 164.98 177.53 165.00 172.53 165.00 Z" />
</g>
</svg>