<svg width="48px" height="46px" viewBox="0 0 124 120" version="1.1" xmlns="http://www.w3.org/2000/svg">
<g id="#2bbb1aff">
<path fill="#2bbb1a" opacity="1.00" d=" M 18.29 20.34 C 29.89 7.50 47.48 1.08 64.63 2.15 C 64.65 22.02 64.68 41.89 64.61 61.76 C 61.42 61.90 58.22 61.65 55.03 61.89 C 52.83 62.45 51.51 64.76 51.78 66.96 C 51.75 83.81 51.85 100.67 51.73 117.52 C 34.95 114.97 19.74 104.56 10.89 90.15 C 2.47 76.45 0.19 59.15 4.82 43.74 C 5.29 42.49 5.41 40.99 6.37 39.98 C 6.64 39.72 7.16 39.20 7.43 38.94 L 7.21 38.19 C 8.85 31.41 13.66 25.53 18.29 20.34 M 48.41 38.55 C 44.01 40.19 42.61 46.65 46.17 49.83 C 49.74 53.73 56.99 51.32 57.64 46.13 C 58.66 41.11 53.18 36.53 48.41 38.55 Z" />
</g>
<g id="#593e92ff">
<path fill="#593e92" opacity="1.00" d=" M 71.69 2.48 C 95.59 5.14 116.22 24.36 121.07 47.83 C 123.25 60.17 122.43 73.39 116.76 84.74 C 109.41 100.44 94.77 112.52 77.88 116.51 C 71.63 118.19 65.10 118.01 58.69 117.82 C 58.74 101.33 58.59 84.84 58.77 68.35 C 61.78 68.26 64.80 68.39 67.82 68.28 C 70.00 68.32 71.71 66.10 71.63 64.01 C 71.74 43.50 71.62 22.99 71.69 2.48 M 69.21 77.98 C 65.77 79.10 63.76 83.63 65.86 86.75 C 68.11 91.13 75.58 90.75 76.99 85.89 C 78.91 81.24 73.88 76.16 69.21 77.98 M 85.31 78.25 C 80.35 80.26 80.94 88.33 86.12 89.58 C 90.49 91.24 95.38 86.39 93.75 82.08 C 92.95 78.50 88.51 76.63 85.31 78.25 M 102.21 78.18 C 97.61 79.95 97.32 87.04 101.76 89.17 C 105.91 91.55 111.66 87.66 110.72 82.92 C 110.27 79.05 105.74 76.47 102.21 78.18 Z" />
<path fill="#593e92" opacity="1.00" d=" M 6.32 38.29 L 7.21 38.19 L 7.43 38.94 C 7.16 39.20 6.64 39.72 6.37 39.98 C 6.36 39.56 6.33 38.71 6.32 38.29 Z" />
</g>
</svg>