<svg width="25px" height="23px" viewBox="0 0 250 230" version="1.1" xmlns="http://www.w3.org/2000/svg">
<g id="#333333ff">
<path fill="#333333" opacity="1.00" d=" M 2.92 10.04 C 3.99 6.74 7.49 4.74 10.88 5.00 C 26.78 5.01 42.68 4.98 58.58 5.02 C 64.77 25.02 71.05 45.00 77.26 64.99 C 132.34 65.01 187.42 64.99 242.50 65.00 C 235.14 94.53 227.70 124.05 220.38 153.59 C 219.77 160.22 218.53 167.06 214.37 172.48 C 208.89 180.21 199.56 185.06 190.07 184.98 C 162.37 185.01 134.66 185.02 106.96 184.98 C 94.98 184.95 83.57 176.87 79.47 165.64 C 77.66 161.31 77.71 156.56 77.02 152.00 C 72.11 123.05 67.43 94.07 62.47 65.13 C 57.78 50.01 52.43 35.08 47.52 20.02 C 34.99 19.94 22.45 20.09 9.92 19.95 C 4.99 20.13 1.12 14.65 2.92 10.04 M 80.00 80.00 C 83.99 103.98 88.00 127.95 91.98 151.93 C 92.59 155.45 92.56 159.24 94.45 162.39 C 97.09 167.17 102.49 170.19 107.94 170.00 C 134.96 170.01 161.98 169.98 188.99 170.01 C 193.97 170.25 199.01 168.07 201.98 164.02 C 204.79 160.64 204.78 156.09 205.74 152.01 C 211.76 128.01 217.75 104.00 223.75 80.00 C 175.83 80.00 127.92 80.00 80.00 80.00 Z" />
<path fill="#333333" opacity="1.00" d=" M 92.55 216.01 C 91.81 208.23 98.15 200.72 105.93 200.10 C 114.10 198.99 122.16 205.81 122.46 214.04 C 123.17 221.83 116.91 229.01 109.26 230.00 L 105.95 230.00 C 98.92 229.19 92.86 223.17 92.55 216.01 Z" />
<path fill="#333333" opacity="1.00" d=" M 167.82 217.99 C 165.94 209.99 171.90 201.37 180.01 200.22 C 188.05 198.62 196.49 204.86 197.35 213.00 C 198.69 221.10 192.29 229.00 184.26 230.00 L 180.95 230.00 C 174.63 229.22 168.96 224.35 167.82 217.99 Z" />
</g>
</svg>