<svg width="24px" height="24px" viewBox="0 0 240 240" version="1.1" xmlns="http://www.w3.org/2000/svg">
<g id="#333333ff">
<path fill="#333333" opacity="1.00" d=" M 113.31 8.19 C 116.44 6.39 118.84 11.23 120.76 13.24 C 130.45 26.93 138.16 41.89 146.86 56.21 C 165.04 85.36 180.42 116.11 196.52 146.43 C 197.72 148.72 199.15 151.32 198.22 153.96 C 196.60 158.81 191.75 161.54 187.19 163.13 C 183.99 164.35 180.15 163.61 177.56 161.42 C 174.26 157.50 172.14 152.76 169.69 148.30 C 158.03 125.19 147.79 101.39 137.52 77.63 C 129.79 59.49 121.11 41.70 114.94 22.94 C 113.79 18.21 111.31 12.95 113.31 8.19 Z" />
<path fill="#333333" opacity="1.00" d=" M 97.30 64.25 C 100.54 62.59 103.63 65.14 106.37 66.61 C 110.06 68.95 114.09 70.76 117.64 73.31 C 120.02 74.97 120.25 78.43 118.75 80.76 C 96.71 119.39 74.58 157.98 52.52 196.61 C 51.29 199.27 48.04 201.02 45.22 199.69 C 41.09 197.68 37.26 195.10 33.21 192.93 C 31.02 191.56 28.09 190.45 27.46 187.64 C 26.67 184.81 28.71 182.38 29.94 180.04 C 51.46 142.51 72.92 104.95 94.39 67.40 C 95.15 66.20 95.93 64.85 97.30 64.25 Z" />
<path fill="#333333" opacity="1.00" d=" M 0.00 109.28 C 0.86 107.23 2.43 105.15 4.91 105.27 C 23.66 105.09 42.43 105.26 61.18 105.20 C 53.08 119.44 44.93 133.64 36.80 147.86 C 26.50 147.84 16.19 147.92 5.89 147.85 C 3.26 148.18 1.25 146.41 0.00 144.30 L 0.00 109.28 Z" />
<path fill="#333333" opacity="1.00" d=" M 116.33 105.23 C 123.73 105.20 131.14 105.14 138.54 105.27 C 144.74 119.62 151.23 133.85 158.17 147.86 C 136.10 147.87 114.03 147.86 91.96 147.87 C 100.07 133.65 108.23 119.46 116.33 105.23 Z" />
<path fill="#333333" opacity="1.00" d=" M 186.17 105.22 C 202.45 105.24 218.73 105.11 235.00 105.27 C 237.47 105.11 239.06 107.15 240.00 109.15 L 240.00 144.02 C 239.00 145.93 237.46 147.92 235.07 147.79 C 226.12 148.01 217.15 147.79 208.19 147.86 C 201.46 133.36 193.48 119.44 186.17 105.22 Z" />
<path fill="#333333" opacity="1.00" d=" M 199.55 166.64 C 202.18 165.45 205.50 166.71 206.86 169.22 C 208.90 172.59 210.48 176.20 212.40 179.64 C 213.63 182.09 215.38 184.75 214.48 187.62 C 213.41 191.32 209.31 192.62 206.40 194.55 C 203.70 196.46 199.58 196.10 197.68 193.24 C 194.57 188.64 191.69 183.87 188.74 179.16 C 187.17 176.89 187.41 173.39 189.79 171.78 C 192.88 169.80 196.21 168.17 199.55 166.64 Z" />
<path fill="#333333" opacity="1.00" d=" M 19.45 203.81 C 19.87 201.29 19.54 197.25 22.90 196.81 C 25.54 197.11 27.65 198.93 29.94 200.12 C 33.61 202.49 37.77 204.14 41.13 206.95 C 42.59 208.53 41.50 210.84 39.86 211.77 C 34.14 215.79 28.31 219.65 22.59 223.65 C 21.19 224.74 19.47 225.19 17.74 225.40 C 17.02 218.17 19.01 211.02 19.45 203.81 Z" />
<path fill="#333333" opacity="1.00" d=" M 208.03 207.88 C 210.06 199.56 223.48 195.70 228.45 203.47 C 233.65 211.97 232.96 222.44 232.93 232.01 C 228.18 226.43 220.19 225.83 214.65 221.30 C 210.67 218.16 207.14 213.19 208.03 207.88 Z" />
</g>
</svg>