<svg width="35px" height="36px" viewBox="0 0 350 358" version="1.1" xmlns="http://www.w3.org/2000/svg">
<g id="#333333ff">
<path fill="#333333" opacity="1.00" d=" M 205.27 0.00 L 209.96 0.00 C 212.86 0.69 215.58 2.12 217.55 4.40 C 260.46 50.83 303.40 97.25 346.33 143.67 C 348.25 145.59 349.40 148.10 350.00 150.73 L 350.00 155.68 C 349.56 158.52 348.29 161.19 346.25 163.23 C 302.98 209.95 259.81 256.77 216.51 303.47 C 209.69 311.08 195.55 306.05 194.71 296.00 C 194.58 269.80 194.51 243.58 194.48 217.38 C 158.59 217.34 122.87 228.23 92.84 247.82 C 54.29 272.66 24.88 312.62 16.13 357.99 C 6.14 335.52 0.79 311.08 0.00 286.53 L 0.00 276.55 C 0.88 248.00 8.03 219.63 21.26 194.29 C 38.63 160.70 66.18 132.53 99.25 114.22 C 128.25 98.02 161.44 89.60 194.64 89.57 C 194.65 65.39 194.66 41.20 194.64 17.02 C 194.66 13.64 194.21 10.03 195.85 6.91 C 197.60 3.21 201.34 0.83 205.27 0.00 M 220.65 46.09 C 220.58 69.14 220.78 92.20 220.55 115.25 C 209.36 115.02 198.16 115.04 186.97 115.02 C 170.84 114.83 154.68 117.78 139.63 123.58 C 109.81 134.93 84.51 156.02 64.75 180.76 C 51.70 197.28 40.73 215.57 33.26 235.30 C 29.29 246.03 26.18 257.27 25.94 268.78 C 36.38 255.91 49.26 245.25 62.78 235.77 C 81.71 222.67 102.21 211.83 123.77 203.74 C 141.77 197.10 160.67 192.17 179.95 191.82 C 193.52 191.80 207.09 191.94 220.65 192.02 C 220.64 214.92 220.65 237.82 220.64 260.72 C 253.74 224.96 286.81 189.18 319.89 153.41 C 286.81 117.63 253.74 81.85 220.65 46.09 Z" />
</g>
</svg>