<svg width="23px" height="23px" viewBox="0 0 230 230" version="1.1" xmlns="http://www.w3.org/2000/svg">
<g id="#333333ff">
<path fill="#333333" opacity="1.00" d=" M 192.70 10.69 C 195.56 8.44 199.99 8.93 202.45 11.56 C 209.49 18.55 216.51 25.57 223.49 32.61 C 226.11 35.08 226.55 39.48 224.31 42.33 C 222.49 44.56 220.27 46.43 218.31 48.54 C 224.97 54.81 225.86 65.16 221.88 73.13 C 222.28 73.63 223.09 74.64 223.50 75.14 C 188.11 110.52 152.73 145.92 117.33 181.29 C 111.09 187.40 103.06 192.75 94.00 192.59 C 88.80 192.59 84.02 189.99 80.32 186.49 C 68.02 198.81 55.70 211.13 43.37 223.44 C 40.58 226.50 35.29 226.49 32.51 223.41 C 25.66 216.60 18.84 209.75 12.00 202.92 C 10.09 201.13 8.78 198.49 9.34 195.82 C 9.70 193.19 11.80 191.36 13.57 189.59 C 25.24 177.98 36.85 166.31 48.51 154.69 C 45.04 150.98 42.50 146.21 42.52 141.03 C 42.42 131.74 47.87 123.48 54.23 117.14 C 89.43 81.93 124.63 46.73 159.84 11.53 C 160.77 12.56 161.98 13.38 163.30 12.46 C 170.94 8.94 180.60 10.44 186.39 16.69 C 188.57 14.77 190.42 12.50 192.70 10.69 M 138.75 53.91 C 152.84 68.01 166.97 82.06 181.01 96.20 C 188.32 89.37 195.24 82.11 202.33 75.05 C 188.19 60.92 174.07 46.78 159.92 32.65 C 152.88 39.75 145.72 46.73 138.75 53.91 M 96.29 96.29 C 110.43 110.43 124.56 124.58 138.72 138.71 C 145.80 131.69 152.77 124.55 159.92 117.59 C 145.91 103.32 131.62 89.31 117.55 75.09 C 110.40 82.09 103.38 89.23 96.29 96.29 M 63.79 128.88 C 58.74 134.35 58.90 143.63 64.12 148.93 C 71.39 156.28 78.71 163.59 86.05 170.86 C 91.37 176.11 100.70 176.27 106.17 171.17 C 110.04 167.52 113.72 163.67 117.49 159.92 C 103.36 145.78 89.22 131.64 75.07 117.51 C 71.32 121.31 67.45 124.99 63.79 128.88 Z" />
</g>
</svg>
