<svg width="46px" height="46px" viewBox="0 0 125 125" version="1.1" xmlns="http://www.w3.org/2000/svg">
<g id="#261a06ff">
<path fill="#261a06" opacity="1.00" d=" M 17.39 21.54 C 28.66 9.73 44.49 1.83 61.00 2.03 C 77.37 1.31 93.83 8.10 105.20 19.83 C 106.78 21.37 108.75 22.71 109.61 24.82 C 109.36 24.68 108.85 24.40 108.60 24.26 C 107.43 23.95 106.72 23.25 106.46 22.16 C 88.35 20.63 70.16 20.55 52.00 20.70 C 40.95 20.81 29.91 21.18 18.90 22.12 C 18.52 21.98 17.77 21.69 17.39 21.54 Z" />
<path fill="#261a06" opacity="1.00" d=" M 3.26 75.31 C 1.37 66.05 1.23 56.14 3.92 47.05 C 17.60 46.64 31.29 46.61 44.98 46.51 C 70.20 46.57 95.45 46.18 120.66 47.21 L 120.86 47.23 C 122.58 54.92 123.26 62.99 121.96 70.79 C 121.58 72.59 120.60 74.15 119.69 75.72 C 81.76 76.63 43.81 76.59 5.88 75.88 C 4.98 75.82 4.11 75.63 3.26 75.31 Z" />
<path fill="#261a06" opacity="1.00" d=" M 107.48 101.68 C 107.36 100.34 108.41 99.32 109.63 99.21 C 109.06 101.20 107.28 102.48 105.95 103.97 C 97.00 113.39 84.93 119.79 72.10 121.84 C 55.25 124.68 37.29 119.98 24.10 109.09 C 20.96 106.71 18.65 103.37 15.21 101.38 L 15.21 99.87 C 17.07 101.98 19.96 102.00 22.56 102.20 C 38.69 103.34 54.88 103.43 71.05 103.32 C 83.21 103.19 95.38 102.89 107.48 101.68 Z" />
</g>
<g id="#ffd42bff">
<path fill="#ffd42b" opacity="1.00" d=" M 18.90 22.12 C 29.91 21.18 40.95 20.81 52.00 20.70 C 70.16 20.55 88.35 20.63 106.46 22.16 C 106.72 23.25 107.43 23.95 108.60 24.26 C 108.85 24.40 109.36 24.68 109.61 24.82 C 114.72 31.47 118.57 39.08 120.66 47.21 C 95.45 46.18 70.20 46.57 44.98 46.51 C 31.29 46.61 17.60 46.64 3.92 47.05 C 6.21 37.86 10.91 29.38 17.09 22.25 C 17.54 22.21 18.45 22.15 18.90 22.12 Z" />
<path fill="#ffd42b" opacity="1.00" d=" M 119.69 75.72 C 120.60 74.15 121.58 72.59 121.96 70.79 C 121.92 71.79 121.83 73.77 121.79 74.76 C 121.52 74.85 120.98 75.02 120.71 75.11 C 119.84 83.94 115.08 91.95 110.06 99.09 L 109.63 99.21 C 108.41 99.32 107.36 100.34 107.48 101.68 C 95.38 102.89 83.21 103.19 71.05 103.32 C 54.88 103.43 38.69 103.34 22.56 102.20 C 19.96 102.00 17.07 101.98 15.21 99.87 C 9.30 92.80 5.52 84.18 3.26 75.31 C 4.11 75.63 4.98 75.82 5.88 75.88 C 43.81 76.59 81.76 76.63 119.69 75.72 Z" />
</g>
</svg>