<svg width="46px" height="45px" viewBox="0 0 105 104" version="1.1" xmlns="http://www.w3.org/2000/svg">
<g id="#e01d0bff">
<path fill="#e01d0b" opacity="1.00" d=" M 5.43 2.59 C 6.83 1.89 8.48 2.11 10.00 2.03 C 39.02 2.09 68.05 2.07 97.07 2.04 C 100.20 1.86 102.84 4.89 102.52 7.95 C 102.52 37.30 102.52 66.65 102.52 96.00 C 102.63 97.76 102.02 99.54 100.63 100.68 C 98.58 102.57 95.57 101.87 93.04 101.98 C 64.68 101.88 36.32 101.99 7.96 101.92 C 4.77 102.18 2.13 99.06 2.47 95.98 C 2.48 66.65 2.48 37.33 2.48 8.01 C 2.28 5.80 3.46 3.61 5.43 2.59 M 49.17 12.18 C 44.15 13.38 40.09 16.95 36.80 20.78 C 29.46 29.60 25.19 40.74 23.77 52.07 C 22.62 62.21 23.99 73.35 30.71 81.45 C 39.88 92.55 57.96 93.57 69.24 85.20 C 77.19 79.12 80.17 68.63 80.13 59.00 C 79.97 44.72 75.11 30.23 65.54 19.49 C 61.43 15.04 55.59 10.71 49.17 12.18 Z" />
</g>
<g id="#ffffffff">
<path fill="#ffffff" opacity="1.00" d=" M 49.17 12.18 C 55.59 10.71 61.43 15.04 65.54 19.49 C 75.11 30.23 79.97 44.72 80.13 59.00 C 80.17 68.63 77.19 79.12 69.24 85.20 C 57.96 93.57 39.88 92.55 30.71 81.45 C 23.99 73.35 22.62 62.21 23.77 52.07 C 25.19 40.74 29.46 29.60 36.80 20.78 C 40.09 16.95 44.15 13.38 49.17 12.18 Z" />
</g>
</svg>