<svg width="24px" height="24px" viewBox="0 0 240 240" version="1.1" xmlns="http://www.w3.org/2000/svg">
<g id="#333333ff">
<path fill="#333333" opacity="1.00" d=" M 114.60 0.00 L 125.29 0.00 C 156.38 1.51 186.72 15.30 207.82 38.26 C 227.22 58.81 238.56 86.43 240.00 114.60 L 240.00 125.27 C 238.62 153.28 227.41 180.73 208.26 201.28 C 186.75 224.89 155.48 239.08 123.57 240.00 L 114.70 240.00 C 83.86 238.51 53.75 224.91 32.68 202.28 C 13.00 181.65 1.44 153.82 0.00 125.40 L 0.00 114.74 C 1.40 86.52 12.75 58.84 32.19 38.26 C 53.25 15.32 83.55 1.55 114.60 0.00 M 112.69 15.39 C 106.06 29.39 101.01 44.11 97.35 59.15 C 112.41 60.50 127.59 60.50 142.65 59.15 C 138.99 44.10 133.94 29.38 127.31 15.39 C 122.45 14.92 117.55 14.92 112.69 15.39 M 43.50 48.42 C 56.10 52.26 68.97 55.24 82.01 57.15 C 85.07 43.92 89.07 30.90 94.23 18.33 C 74.95 23.26 56.90 33.64 43.50 48.42 M 157.99 57.15 C 171.07 55.21 184.01 52.29 196.63 48.34 C 183.02 33.81 165.22 23.27 145.93 18.35 C 150.77 31.01 155.02 43.91 157.99 57.15 M 33.04 61.29 C 22.74 76.41 16.56 94.29 15.29 112.54 C 35.30 112.53 55.31 112.55 75.32 112.53 C 75.75 98.94 76.85 85.36 79.07 71.95 C 63.46 69.70 48.01 66.24 33.04 61.29 M 160.93 71.95 C 163.19 85.36 164.24 98.94 164.68 112.53 C 184.69 112.55 204.70 112.53 224.71 112.54 C 223.44 94.28 217.26 76.40 206.96 61.28 C 191.99 66.25 176.53 69.69 160.93 71.95 M 94.21 73.83 C 91.89 86.61 90.81 99.57 90.36 112.54 C 110.12 112.53 129.88 112.54 149.65 112.54 C 149.19 99.57 148.11 86.61 145.80 73.84 C 128.64 75.35 111.36 75.36 94.21 73.83 M 15.29 127.53 C 16.57 145.76 22.75 163.60 33.03 178.72 C 48.01 173.76 63.46 170.31 79.07 168.05 C 76.85 154.66 75.76 141.10 75.32 127.53 C 55.31 127.53 35.30 127.53 15.29 127.53 M 90.36 127.53 C 90.81 140.47 91.89 153.42 94.21 166.17 C 111.36 164.65 128.64 164.64 145.79 166.17 C 148.11 153.42 149.19 140.48 149.64 127.53 C 129.88 127.53 110.12 127.53 90.36 127.53 M 160.93 168.06 C 176.53 170.31 191.99 173.76 206.96 178.72 C 217.25 163.61 223.43 145.76 224.71 127.53 C 204.70 127.53 184.69 127.53 164.68 127.53 C 164.22 141.10 163.20 154.66 160.93 168.06 M 97.38 180.84 C 100.96 195.90 106.09 210.59 112.66 224.60 C 117.53 225.10 122.44 225.08 127.31 224.61 C 133.91 210.60 139.08 195.91 142.59 180.83 C 127.55 179.52 112.41 179.49 97.38 180.84 M 43.43 191.62 C 56.96 206.21 74.82 216.90 94.19 221.56 C 89.04 209.03 85.07 196.04 82.01 182.85 C 68.94 184.77 56.05 187.74 43.43 191.62 M 157.99 182.85 C 154.96 196.09 150.88 209.07 145.82 221.67 C 165.07 216.73 183.14 206.37 196.49 191.57 C 183.88 187.75 171.03 184.75 157.99 182.85 Z" />
</g>
</svg>