<svg width="9px" height="9px" viewBox="0 0 90 90" version="1.1" xmlns="http://www.w3.org/2000/svg">
<g id="#3bb54aff">
<path fill="#3bb54a" opacity="1.00" d=" M 43.00 0.00 L 46.91 0.00 C 49.51 2.24 50.36 5.60 50.04 8.93 C 50.02 19.27 49.92 29.61 50.05 39.95 C 61.39 40.15 72.73 39.84 84.07 40.06 C 86.45 39.95 88.25 41.64 90.00 43.00 L 90.00 46.89 C 87.77 49.50 84.40 50.36 81.08 50.04 C 70.73 50.02 60.39 49.92 50.05 50.05 C 49.85 61.38 50.16 72.73 49.94 84.06 C 50.05 86.45 48.36 88.25 47.02 90.00 L 43.11 90.00 C 40.49 87.77 39.64 84.40 39.96 81.08 C 39.98 70.73 40.08 60.39 39.95 50.05 C 28.61 49.85 17.27 50.16 5.93 49.94 C 3.55 50.05 1.75 48.36 0.00 47.01 L 0.00 43.11 C 1.65 41.59 3.54 39.96 5.94 40.06 C 17.27 39.84 28.61 40.15 39.95 39.95 C 40.08 29.61 39.98 19.27 39.96 8.93 C 39.61 5.60 40.57 2.35 43.00 0.00 Z" />
</g>
</svg>