<svg width="10px" height="10px" viewBox="0 0 100 100" version="1.1" xmlns="http://www.w3.org/2000/svg">
<g id="#0f0f0f4d">
<path fill="#0f0f0f" opacity="0.30" d=" M 43.90 0.00 L 55.93 0.00 C 61.65 1.37 67.46 2.67 72.69 5.46 C 79.84 9.04 85.83 14.54 90.68 20.84 C 90.91 17.14 89.82 13.00 91.62 9.61 C 93.84 6.58 97.79 8.06 100.00 10.26 L 100.00 33.00 C 97.63 36.86 92.81 35.88 88.99 35.96 C 83.77 35.72 78.49 36.39 73.32 35.60 C 69.55 34.42 69.34 28.53 72.97 27.04 C 76.24 26.15 79.71 26.62 83.06 26.44 C 76.56 17.26 66.11 10.96 54.91 9.68 C 44.11 8.32 32.83 11.55 24.43 18.47 C 13.68 27.01 7.89 41.30 9.69 54.91 C 11.43 71.41 24.44 85.89 40.60 89.51 C 52.19 92.29 65.01 89.72 74.46 82.40 C 83.66 75.54 89.78 64.58 90.43 53.08 C 90.68 50.40 90.46 46.65 93.64 45.64 C 96.15 44.47 98.31 46.46 100.00 48.05 L 100.00 55.94 C 98.75 61.14 97.61 66.45 95.25 71.29 C 90.25 81.96 81.34 90.73 70.59 95.57 C 65.99 97.72 60.98 98.76 56.08 100.00 L 44.05 100.00 C 38.86 98.74 33.57 97.63 28.75 95.26 C 18.07 90.27 9.29 81.37 4.45 70.63 C 2.28 66.02 1.25 60.99 0.00 56.08 L 0.00 44.08 C 1.21 39.12 2.26 34.06 4.44 29.40 C 8.97 19.34 16.94 10.89 26.70 5.76 C 32.06 2.85 38.02 1.43 43.90 0.00 Z" />
</g>
</svg>