<svg width="8px" height="8px" viewBox="0 0 80 80" version="1.1" xmlns="http://www.w3.org/2000/svg">
<g id="#929292ff">
<path fill="#929292" opacity="1.00" d=" M 71.77 0.00 L 74.91 0.00 C 77.24 0.71 79.05 2.39 80.00 4.62 L 80.00 8.50 C 79.21 10.11 78.13 11.56 76.85 12.80 C 67.72 21.84 58.66 30.96 49.57 40.04 C 58.64 49.10 67.68 58.18 76.77 67.21 C 78.32 68.76 79.87 70.64 79.76 72.98 C 79.88 76.58 76.60 79.79 73.01 79.66 C 70.73 79.75 68.89 78.24 67.38 76.73 C 58.32 67.62 49.23 58.55 40.14 49.47 C 30.84 58.75 21.57 68.06 12.27 77.34 C 10.10 79.83 6.21 80.75 3.36 78.83 C -0.24 76.70 -0.84 71.17 2.29 68.36 C 11.68 58.84 21.21 49.45 30.64 39.96 C 21.70 31.04 12.79 22.08 3.82 13.18 C 2.42 11.70 0.75 10.16 0.53 8.00 C -0.18 4.18 3.10 0.28 6.99 0.35 C 9.29 0.19 11.21 1.66 12.74 3.19 C 21.83 12.32 30.95 21.43 40.06 30.53 C 49.13 21.46 58.24 12.42 67.26 3.30 C 68.56 1.95 70.09 0.84 71.77 0.00 Z" />
</g>
</svg>