<svg width="3px" height="35px" viewBox="0 0 30 350" version="1.1" xmlns="http://www.w3.org/2000/svg">
<g id="#03080e29">
<path fill="#03080e" opacity="0.16" d=" M 12.25 0.00 L 18.68 0.00 C 21.37 2.10 24.63 4.28 25.10 7.98 C 26.42 13.67 21.83 19.75 15.98 19.93 C 10.10 20.54 4.64 15.04 5.32 9.16 C 5.43 4.95 8.83 1.92 12.25 0.00 Z" />
<path fill="#03080e" opacity="0.16" d=" M 12.26 80.47 C 19.20 77.92 26.88 84.87 25.08 92.03 C 24.00 99.48 13.76 102.80 8.50 97.43 C 2.86 92.64 5.12 82.41 12.26 80.47 Z" />
<path fill="#03080e" opacity="0.16" d=" M 13.28 160.32 C 20.34 158.55 27.23 166.05 24.88 172.96 C 23.19 180.25 12.81 182.68 7.97 177.01 C 2.61 171.74 5.81 161.48 13.28 160.32 Z" />
<path fill="#03080e" opacity="0.16" d=" M 13.34 240.42 C 18.80 239.16 24.72 243.42 25.20 249.02 C 26.14 254.86 20.93 260.69 15.01 260.29 C 9.97 260.29 5.49 255.93 5.30 250.91 C 4.85 246.03 8.53 241.29 13.34 240.42 Z" />
<path fill="#03080e" opacity="0.16" d=" M 14.34 320.39 C 21.98 319.25 28.01 328.48 24.11 335.09 C 21.00 341.60 10.83 342.21 7.03 336.07 C 2.64 330.18 6.97 320.75 14.34 320.39 Z" />
</g>
</svg>