<svg width="16px" height="16px" viewBox="0 0 160 160" version="1.1" xmlns="http://www.w3.org/2000/svg">
<g id="#000000ff">
<path fill="#000000" opacity="1.00" d=" M 17.72 0.00 L 141.57 0.00 C 150.93 0.71 158.82 8.45 160.00 17.71 L 160.00 141.58 C 159.28 151.14 151.16 159.27 141.60 160.00 L 18.46 160.00 C 8.88 159.31 0.74 151.17 0.00 141.60 L 0.00 17.91 C 1.03 8.77 8.62 1.18 17.72 0.00 M 18.15 10.20 C 13.16 11.03 9.52 16.00 9.99 21.00 C 10.04 60.70 9.93 100.40 10.05 140.09 C 9.89 145.39 14.69 150.11 19.97 149.97 C 59.65 150.05 99.34 149.97 139.03 150.01 C 144.66 150.57 150.16 145.78 149.97 140.04 C 150.05 100.38 149.97 60.71 150.01 21.05 C 150.49 16.06 146.89 11.06 141.91 10.23 C 137.96 9.76 133.97 10.08 130.00 10.00 C 129.97 26.67 130.05 43.35 129.97 60.02 C 130.15 65.34 125.34 70.12 120.04 69.97 C 93.33 70.02 66.62 70.03 39.91 69.97 C 34.62 70.09 29.85 65.31 30.04 60.01 C 29.94 43.34 30.03 26.67 30.00 10.00 C 26.05 10.09 22.08 9.75 18.15 10.20 M 40.00 10.00 C 40.04 25.03 39.92 40.06 40.05 55.08 C 39.93 58.18 43.04 60.40 45.97 60.00 C 68.69 60.00 91.41 60.00 114.12 60.00 C 117.03 60.38 120.07 58.13 119.95 55.08 C 120.08 40.06 119.96 25.03 120.00 10.00 C 93.33 10.00 66.67 10.00 40.00 10.00 Z" />
<path fill="#000000" opacity="1.00" d=" M 93.20 20.34 C 96.25 19.00 100.09 21.57 99.95 24.91 C 100.05 31.64 100.05 38.38 99.95 45.12 C 100.13 49.06 94.92 51.53 91.95 48.95 C 89.71 47.38 90.00 44.41 89.97 42.01 C 90.08 36.31 89.88 30.61 90.05 24.91 C 90.01 22.91 91.35 21.04 93.20 20.34 Z" />
</g>
</svg>