<svg width="20px" height="20px" viewBox="0 0 200 200" version="1.1" xmlns="http://www.w3.org/2000/svg">
<g id="#19191980">
<path fill="#191919" opacity="0.50" d=" M 78.46 0.00 L 90.45 0.00 C 106.24 1.57 121.77 6.90 134.52 16.46 C 149.30 27.34 160.42 43.18 165.28 60.91 C 170.84 80.72 168.50 102.61 158.80 120.76 C 155.50 127.12 151.22 132.89 146.50 138.26 C 161.07 152.77 175.80 167.12 190.43 181.57 C 193.69 184.84 197.20 187.88 200.00 191.58 L 200.00 195.28 C 198.93 197.24 197.27 198.72 195.49 200.00 L 191.76 200.00 C 188.31 197.95 185.69 194.86 182.84 192.11 C 167.58 177.12 152.37 162.08 137.09 147.11 C 124.17 157.28 108.36 163.77 91.95 165.20 C 72.45 167.02 52.34 161.92 36.19 150.79 C 20.89 140.38 9.18 124.75 3.69 107.06 C 1.71 101.03 0.87 94.73 0.00 88.47 L 0.00 77.52 C 1.61 56.72 11.02 36.56 26.49 22.47 C 40.56 9.25 59.29 1.53 78.46 0.00 M 72.38 13.65 C 48.62 17.34 27.34 33.94 18.24 56.23 C 12.07 70.94 11.28 87.80 15.99 103.03 C 20.83 119.04 31.77 133.04 45.94 141.88 C 58.13 149.57 72.69 153.37 87.08 152.75 C 105.82 152.10 124.16 143.69 136.82 129.83 C 146.91 118.98 153.40 104.82 154.91 90.07 C 156.42 76.06 153.53 61.61 146.66 49.29 C 139.02 35.40 126.52 24.30 111.88 18.23 C 99.49 13.03 85.63 11.50 72.38 13.65 Z" />
</g>
</svg>