<svg width="15px" height="15px" viewBox="0 0 150 150" version="1.1" xmlns="http://www.w3.org/2000/svg">
<g id="#0f0f0f4d">
<path fill="#0f0f0f" opacity="0.30" d=" M 55.68 0.00 L 70.33 0.00 C 81.15 2.01 91.89 5.52 100.74 12.23 C 117.26 24.16 127.28 44.57 126.10 64.97 C 125.61 79.35 119.34 93.04 109.96 103.79 C 123.23 117.10 136.90 130.01 150.00 143.47 L 150.00 147.30 C 148.56 147.08 147.06 148.55 147.30 150.00 L 143.48 150.00 C 129.61 137.16 116.49 123.52 102.88 110.41 C 92.26 118.48 79.34 123.62 65.95 124.09 C 45.79 125.15 25.40 115.91 13.07 99.89 C 5.92 91.11 2.18 80.23 0.00 69.26 L 0.00 54.81 C 0.79 51.39 1.69 48.01 2.57 44.61 C 7.58 27.21 20.82 12.56 37.38 5.36 C 43.19 2.69 49.49 1.44 55.68 0.00 M 53.25 10.44 C 38.91 12.98 25.80 21.73 17.95 34.00 C 10.36 45.71 7.83 60.56 11.13 74.12 C 14.45 88.37 24.16 100.88 36.97 107.89 C 47.56 113.82 60.20 115.86 72.14 113.84 C 85.82 111.64 98.48 103.81 106.57 92.57 C 114.40 81.88 117.84 68.12 115.99 55.00 C 114.02 39.88 104.89 25.95 91.97 17.90 C 80.64 10.60 66.48 7.97 53.25 10.44 Z" />
</g>
</svg>