<svg width="16px" height="16px" viewBox="0 0 160 160" version="1.1" xmlns="http://www.w3.org/2000/svg">
<g id="#3bb54aff">
<path fill="#3bb54a" opacity="1.00" d=" M 75.86 0.00 L 83.94 0.00 C 102.13 1.07 119.97 8.21 133.47 20.52 C 149.38 34.65 159.03 55.34 160.00 76.56 L 160.00 83.96 C 158.97 101.23 152.52 118.18 141.29 131.39 C 127.29 148.32 106.07 158.73 84.19 160.00 L 76.62 160.00 C 57.99 159.12 39.73 151.70 26.01 139.02 C 10.40 124.91 0.98 104.45 0.00 83.46 L 0.00 77.46 C 0.67 55.93 10.40 34.87 26.50 20.55 C 39.96 8.27 57.72 1.13 75.86 0.00 M 69.58 10.78 C 43.23 14.43 20.16 34.54 12.88 60.11 C 8.08 76.24 9.33 94.10 16.45 109.36 C 23.21 124.06 35.26 136.26 49.88 143.19 C 62.00 149.02 75.84 151.15 89.16 149.39 C 105.00 147.38 120.02 139.65 130.93 128.00 C 141.22 117.16 147.87 102.94 149.53 88.08 C 151.10 74.54 148.67 60.54 142.46 48.39 C 135.55 34.69 123.99 23.40 110.13 16.81 C 97.62 10.79 83.29 8.73 69.58 10.78 Z" />
<path fill="#3bb54a" opacity="1.00" d=" M 103.27 47.28 C 104.66 44.49 108.78 43.78 111.01 45.98 C 112.92 47.62 113.09 50.59 111.70 52.61 C 99.99 72.93 88.40 93.33 76.46 113.51 C 74.98 116.18 70.90 116.11 68.99 113.95 C 61.54 107.10 54.09 100.24 46.66 93.37 C 44.67 91.79 44.15 88.68 45.69 86.62 C 47.28 84.19 51.08 83.73 53.14 85.82 C 59.24 91.35 65.24 96.99 71.33 102.55 C 82.00 84.14 92.58 65.67 103.27 47.28 Z" />
</g>
</svg>