<svg width="14px" height="14px" viewBox="0 0 140 140" version="1.1" xmlns="http://www.w3.org/2000/svg">
<g id="#3bb54aff">
<path fill="#3bb54a" opacity="1.00" d=" M 65.90 0.00 L 73.29 0.00 C 91.70 0.95 109.61 9.30 121.91 23.06 C 132.62 34.73 138.85 50.13 140.00 65.88 L 140.00 73.30 C 139.10 90.04 132.21 106.42 120.49 118.46 C 108.30 131.33 91.06 139.04 73.40 140.00 L 66.17 140.00 C 49.60 138.92 33.41 132.07 21.49 120.45 C 8.64 108.24 0.96 91.03 0.00 73.37 L 0.00 66.17 C 1.16 47.71 9.64 29.80 23.60 17.60 C 35.21 7.18 50.39 1.13 65.90 0.00 M 90.35 41.41 C 80.98 57.48 71.75 73.64 62.40 89.73 C 57.15 84.91 51.94 80.04 46.67 75.24 C 45.17 73.66 42.49 73.43 40.83 74.89 C 38.81 76.41 38.60 79.75 40.56 81.42 C 47.11 87.55 53.75 93.61 60.36 99.70 C 62.13 101.73 65.89 101.59 67.11 99.03 C 77.39 81.57 87.41 63.95 97.54 46.40 C 98.73 44.68 99.03 42.16 97.44 40.57 C 95.60 38.28 91.62 38.78 90.35 41.41 Z" />
</g>
<g id="#ffffffff">
<path fill="#ffffff" opacity="1.00" d=" M 90.35 41.41 C 91.62 38.78 95.60 38.28 97.44 40.57 C 99.03 42.16 98.73 44.68 97.54 46.40 C 87.41 63.95 77.39 81.57 67.11 99.03 C 65.89 101.59 62.13 101.73 60.36 99.70 C 53.75 93.61 47.11 87.55 40.56 81.42 C 38.60 79.75 38.81 76.41 40.83 74.89 C 42.49 73.43 45.17 73.66 46.67 75.24 C 51.94 80.04 57.15 84.91 62.40 89.73 C 71.75 73.64 80.98 57.48 90.35 41.41 Z" />
</g>
</svg>