<svg width="14px" height="14px" viewBox="0 0 140 140" version="1.1" xmlns="http://www.w3.org/2000/svg">
<g id="#fb5240ff">
<path fill="#fb5240" opacity="1.00" d=" M 66.94 0.00 L 72.81 0.00 C 90.68 0.76 108.13 8.54 120.47 21.51 C 132.23 33.62 139.18 50.09 140.00 66.93 L 140.00 72.87 C 139.22 90.72 131.45 108.16 118.47 120.49 C 106.36 132.24 89.88 139.18 73.05 140.00 L 67.17 140.00 C 49.31 139.23 31.87 131.46 19.54 118.50 C 7.77 106.39 0.83 89.91 0.00 73.08 L 0.00 66.91 C 0.85 49.39 8.38 32.28 20.98 20.04 C 33.15 7.99 49.85 0.83 66.94 0.00 M 43.22 60.31 C 40.46 62.62 40.12 66.63 40.01 69.99 C 40.12 73.38 40.46 77.42 43.26 79.75 C 45.14 80.16 47.08 80.00 48.99 80.02 C 64.37 79.96 79.75 80.04 95.12 79.98 C 97.79 80.22 98.79 77.19 99.38 75.14 C 100.39 70.55 100.39 65.28 97.75 61.23 C 96.98 59.90 95.36 60.02 94.05 59.98 C 77.65 60.04 61.26 59.96 44.86 60.02 C 44.45 60.09 43.63 60.23 43.22 60.31 Z" />
</g>
<g id="#ffffffff">
<path fill="#ffffff" opacity="1.00" d=" M 43.22 60.31 C 43.63 60.23 44.45 60.09 44.86 60.02 C 61.26 59.96 77.65 60.04 94.05 59.98 C 95.36 60.02 96.98 59.90 97.75 61.23 C 100.39 65.28 100.39 70.55 99.38 75.14 C 98.79 77.19 97.79 80.22 95.12 79.98 C 79.75 80.04 64.37 79.96 48.99 80.02 C 47.08 80.00 45.14 80.16 43.26 79.75 C 40.46 77.42 40.12 73.38 40.01 69.99 C 40.12 66.63 40.46 62.62 43.22 60.31 Z" />
</g>
</svg>