<svg width="14px" height="14px" viewBox="0 0 140 140" version="1.1" xmlns="http://www.w3.org/2000/svg">
<g id="#fbb040ff">
<path fill="#fbb040" opacity="1.00" d=" M 65.94 0.00 L 73.21 0.00 C 91.18 0.90 108.69 8.85 120.97 22.03 C 132.23 33.84 138.84 49.69 140.00 65.92 L 140.00 73.25 C 139.13 89.78 132.40 105.95 120.98 117.96 C 108.74 131.11 91.29 139.03 73.38 140.00 L 66.73 140.00 C 50.20 139.11 34.03 132.39 22.02 120.95 C 8.87 108.72 0.97 91.28 0.00 73.38 L 0.00 66.32 C 1.09 48.04 9.39 30.27 23.09 18.06 C 34.78 7.36 50.18 1.13 65.94 0.00 M 70.06 46.97 C 75.59 53.24 81.41 59.25 87.01 65.46 C 72.71 65.50 58.41 65.42 44.12 65.49 C 41.03 65.31 39.09 69.10 40.38 71.71 C 41.11 73.59 43.16 74.47 45.08 74.26 C 59.04 74.28 73.01 74.25 86.97 74.27 C 81.46 80.34 75.81 86.29 70.32 92.38 C 68.10 94.56 69.07 98.85 72.09 99.73 C 73.97 100.38 75.67 99.12 76.80 97.77 C 83.99 89.94 91.21 82.15 98.41 74.34 C 100.96 71.90 100.73 67.26 98.07 64.96 C 90.48 56.90 83.15 48.58 75.45 40.63 C 71.66 37.49 66.91 43.67 70.06 46.97 Z" />
</g>
<g id="#ffffffff">
<path fill="#ffffff" opacity="1.00" d=" M 70.06 46.97 C 66.91 43.67 71.66 37.49 75.45 40.63 C 83.15 48.58 90.48 56.90 98.07 64.96 C 100.73 67.26 100.96 71.90 98.41 74.34 C 91.21 82.15 83.99 89.94 76.80 97.77 C 75.67 99.12 73.97 100.38 72.09 99.73 C 69.07 98.85 68.10 94.56 70.32 92.38 C 75.81 86.29 81.46 80.34 86.97 74.27 C 73.01 74.25 59.04 74.28 45.08 74.26 C 43.16 74.47 41.11 73.59 40.38 71.71 C 39.09 69.10 41.03 65.31 44.12 65.49 C 58.41 65.42 72.71 65.50 87.01 65.46 C 81.41 59.25 75.59 53.24 70.06 46.97 Z" />
</g>
</svg>