<svg width="13px" height="16px" viewBox="0 0 270 320" version="1.1" xmlns="http://www.w3.org/2000/svg">
<g id="#0f0f0f4d">
<path fill="#0f0f0f" opacity="0.30" d=" M 131.65 0.00 L 138.30 0.00 C 142.14 1.33 145.92 3.15 148.61 6.29 C 185.39 45.90 222.18 85.50 258.95 125.12 C 265.40 131.62 266.90 142.35 262.33 150.31 C 259.80 155.24 254.90 158.22 249.83 160.00 C 255.14 161.82 260.20 165.09 262.67 170.32 C 265.98 176.73 265.74 184.85 261.92 190.99 C 259.91 194.20 257.11 196.81 254.58 199.60 C 219.27 237.61 183.97 275.63 148.67 313.66 C 145.99 316.80 142.22 318.61 138.41 320.00 L 131.70 320.00 C 127.85 318.62 124.07 316.77 121.38 313.61 C 84.48 273.87 47.57 234.15 10.69 194.40 C 4.63 188.15 3.30 178.04 7.31 170.36 C 9.77 165.10 14.85 161.82 20.18 160.00 C 14.85 158.18 9.78 154.91 7.32 149.66 C 3.30 141.99 4.62 131.89 10.65 125.64 C 47.06 86.38 83.54 47.18 119.94 7.91 C 122.98 4.15 127.08 1.50 131.65 0.00 M 36.41 154.42 C 33.73 157.35 30.03 158.97 26.25 159.93 C 29.92 161.19 33.73 162.54 36.38 165.56 C 69.33 200.86 102.03 236.41 135.05 271.65 C 168.18 236.24 201.05 200.58 234.10 165.10 C 236.54 162.53 239.92 161.30 243.12 160.01 C 239.93 158.68 236.53 157.48 234.10 154.90 C 201.04 119.42 168.18 83.75 135.03 48.35 C 102.05 83.60 69.34 119.12 36.41 154.42 Z" />
</g>
</svg>
