<svg width="25px" height="28px" viewBox="0 0 250 280" version="1.1" xmlns="http://www.w3.org/2000/svg">
<g id="#333333ff">
<path fill="#333333" opacity="1.00" d=" M 122.44 0.00 L 127.56 0.00 C 154.46 0.59 181.10 9.99 202.20 26.73 C 228.01 46.84 245.35 77.48 249.07 110.01 C 249.42 113.20 249.73 116.39 250.00 119.59 L 250.00 183.35 C 249.00 198.87 242.02 214.04 230.34 224.40 C 227.78 226.52 225.66 229.08 223.75 231.78 C 206.19 254.66 180.40 271.05 152.23 277.22 C 150.56 277.28 149.82 278.44 149.62 280.00 L 100.00 280.00 C 100.00 270.02 99.99 260.05 100.00 250.07 C 116.67 250.07 133.33 250.07 149.99 250.07 C 150.01 255.91 149.99 261.75 150.01 267.59 C 170.41 263.03 189.45 252.77 204.55 238.33 C 199.77 239.38 194.90 240.00 190.01 240.12 C 189.99 200.06 190.00 160.01 190.00 119.96 C 209.81 119.84 229.10 130.25 240.01 146.75 C 239.76 132.50 240.89 118.09 238.05 104.03 C 233.08 76.63 217.59 51.37 195.59 34.33 C 175.11 18.23 149.01 9.48 122.95 10.06 C 96.82 10.40 70.98 20.15 51.06 37.04 C 29.80 54.79 15.34 80.45 11.29 107.85 C 9.25 120.80 10.24 133.95 9.99 146.99 C 20.83 130.42 40.14 119.87 59.99 120.01 C 60.01 160.05 60.00 200.08 59.99 240.12 C 45.90 240.09 31.85 235.05 21.18 225.81 C 8.96 215.44 1.18 199.98 0.29 183.95 C 0.16 181.03 0.18 178.10 0.00 175.18 L 0.00 119.67 C 1.51 87.77 15.40 56.57 38.70 34.63 C 61.00 13.14 91.49 0.61 122.44 0.00 M 15.20 158.10 C 8.87 170.99 8.47 186.60 14.18 199.78 C 20.36 214.65 34.22 225.92 49.98 229.12 C 50.01 196.41 50.02 163.70 49.98 130.99 C 35.05 134.12 21.77 144.29 15.20 158.10 M 200.01 130.96 C 199.99 163.67 200.00 196.37 200.01 229.08 C 214.01 226.22 226.61 217.11 233.54 204.59 C 241.50 190.78 242.13 173.08 235.22 158.72 C 228.71 144.60 215.24 134.03 200.01 130.96 M 110.01 260.06 C 109.99 263.40 109.99 266.73 110.01 270.06 C 120.00 270.07 130.00 270.07 139.99 270.06 C 140.00 266.73 140.00 263.40 139.99 260.06 C 130.00 260.07 120.00 260.07 110.01 260.06 Z" />
</g>
</svg>