<svg width="25px" height="25px" viewBox="0 0 250 250" version="1.1" xmlns="http://www.w3.org/2000/svg">
<g id="#333333ff">
<path fill="#333333" opacity="1.00" d=" M 100.00 0.00 L 150.00 0.00 C 150.02 8.90 149.95 17.79 150.04 26.69 C 159.44 29.09 168.43 32.94 176.75 37.91 C 183.09 31.62 189.37 25.27 195.71 18.98 C 207.51 30.74 219.27 42.53 231.05 54.31 C 224.65 60.84 218.07 67.19 211.72 73.76 C 216.44 81.97 219.90 90.87 222.17 100.05 C 231.45 100.09 240.72 100.06 250.00 100.07 L 250.00 150.07 C 240.43 150.08 230.86 150.03 221.30 150.09 C 218.84 158.89 215.17 167.32 210.47 175.15 C 217.30 182.05 224.20 188.88 231.05 195.77 C 219.29 207.57 207.50 219.34 195.72 231.12 C 188.69 224.15 181.72 217.11 174.71 210.13 C 166.95 214.52 158.64 217.90 150.01 220.15 C 149.98 230.10 150.01 240.05 150.00 250.00 L 100.00 250.00 C 99.99 240.05 100.01 230.10 99.99 220.15 C 91.37 217.90 83.05 214.52 75.29 210.13 C 68.35 217.12 61.29 224.00 54.45 231.08 C 42.41 219.53 30.80 207.53 18.95 195.78 C 25.79 188.88 32.71 182.06 39.53 175.15 C 34.81 167.32 31.17 158.87 28.69 150.08 C 19.13 150.04 9.56 150.08 0.00 150.07 L 0.00 100.07 C 9.28 100.05 18.55 100.09 27.83 100.05 C 30.11 90.86 33.57 81.96 38.28 73.75 C 31.91 67.19 25.35 60.83 18.95 54.31 C 30.72 42.53 42.50 30.74 54.29 18.98 C 60.62 25.28 66.91 31.61 73.24 37.91 C 81.57 32.94 90.57 29.10 99.97 26.67 C 100.04 17.78 99.98 8.89 100.00 0.00 M 110.00 10.00 C 109.79 18.13 110.41 26.49 109.70 34.47 C 103.42 36.13 97.06 37.61 91.05 40.14 C 84.22 42.83 77.99 46.73 71.75 50.54 C 65.90 44.76 60.12 38.91 54.29 33.12 C 47.21 40.14 40.20 47.24 33.10 54.26 C 38.90 60.28 44.90 66.09 50.77 72.03 C 47.24 78.20 43.55 84.34 41.13 91.05 C 38.73 97.20 37.27 103.65 35.73 110.05 C 27.16 110.09 18.58 110.05 10.01 110.06 C 9.99 120.06 10.00 130.06 10.01 140.06 C 18.77 140.08 27.53 140.06 36.30 140.07 C 38.18 146.84 39.95 153.69 42.92 160.09 C 45.45 165.92 48.92 171.25 52.16 176.69 C 45.81 183.06 39.44 189.41 33.08 195.77 C 40.10 202.85 47.21 209.84 54.20 216.95 C 60.85 210.66 67.11 203.97 73.71 197.63 C 84.80 204.69 97.10 209.68 109.96 212.35 C 110.05 221.58 109.97 230.82 110.01 240.06 C 120.00 240.07 130.00 240.07 139.99 240.06 C 140.05 230.81 139.92 221.57 140.06 212.32 C 152.91 209.68 165.20 204.70 176.25 197.64 C 182.85 203.97 189.20 210.57 195.72 216.99 C 202.78 209.92 209.85 202.86 216.91 195.78 C 210.57 189.40 204.19 183.06 197.84 176.69 C 201.23 171.03 204.83 165.45 207.40 159.36 C 210.20 153.17 211.88 146.59 213.70 140.07 C 222.46 140.05 231.23 140.08 239.99 140.06 C 240.00 130.06 240.01 120.06 239.99 110.07 C 231.41 110.05 222.84 110.09 214.26 110.05 C 212.50 102.67 210.81 95.21 207.76 88.23 C 205.43 82.57 202.24 77.34 199.23 72.04 C 205.11 66.12 211.03 60.24 216.92 54.32 C 209.86 47.24 202.79 40.18 195.72 33.12 C 189.87 38.90 184.10 44.76 178.25 50.54 C 172.43 47.00 166.63 43.33 160.30 40.71 C 153.89 37.87 147.06 36.23 140.31 34.48 C 139.58 26.49 140.22 18.14 140.00 10.00 C 130.00 10.00 120.00 10.00 110.00 10.00 Z" />
<path fill="#333333" opacity="1.00" d=" M 116.59 80.82 C 128.37 78.57 141.02 81.22 150.78 88.21 C 160.70 95.11 167.69 106.17 169.44 118.14 C 171.25 129.22 168.63 140.96 162.25 150.21 C 154.52 161.89 141.02 169.49 127.01 170.01 C 113.35 170.73 99.55 164.69 90.78 154.20 C 82.24 144.34 78.41 130.66 80.62 117.80 C 83.32 99.55 98.45 84.07 116.59 80.82 M 117.54 90.82 C 104.98 93.46 94.42 103.54 91.20 115.96 C 87.40 129.41 92.72 144.82 104.01 153.05 C 112.12 159.24 123.04 161.51 132.95 159.13 C 144.58 156.57 154.43 147.53 158.16 136.24 C 163.58 121.15 156.83 103.01 142.97 95.00 C 135.42 90.45 126.15 88.97 117.54 90.82 Z" />
</g>
</svg>