<svg width="24px" height="19px" viewBox="0 0 240 190" version="1.1" xmlns="http://www.w3.org/2000/svg">
<g id="#333333ff">
<path fill="#333333" opacity="1.00" d=" M 0.00 0.00 L 140.00 0.00 C 139.99 23.35 140.01 46.70 139.99 70.06 C 136.66 70.07 133.34 70.08 130.01 70.05 C 129.98 50.04 130.02 30.02 129.99 10.01 C 90.00 10.00 50.00 10.00 10.01 10.01 C 10.00 66.69 9.99 123.37 10.01 180.06 C 50.00 180.07 90.00 180.07 129.99 180.06 C 130.02 160.06 129.98 140.07 130.01 120.07 C 133.34 120.06 136.66 120.06 139.99 120.07 C 140.01 143.38 139.99 166.69 140.00 190.00 L 0.00 190.00 L 0.00 0.00 Z" />
<path fill="#333333" opacity="1.00" d=" M 188.34 40.18 C 205.61 56.72 222.72 73.43 239.92 90.05 C 222.77 106.69 205.57 123.27 188.44 139.93 C 185.99 137.67 183.62 135.32 181.24 133.00 C 194.32 120.30 207.45 107.65 220.52 94.94 C 167.01 94.92 113.51 94.94 60.01 94.93 C 59.99 91.66 59.99 88.40 60.01 85.13 C 113.50 85.13 166.99 85.15 220.48 85.12 C 207.42 72.42 194.31 59.78 181.24 47.10 C 183.59 44.78 185.99 42.50 188.34 40.18 Z" />
</g>
</svg>